<svg version="1.1" id="Layer_1" xmlns="http://www.w3.org/2000/svg" xmlns:xlink="http://www.w3.org/1999/xlink" x="0px" y="0px"
	 width="100%" viewBox="0 0 694 419" enable-background="new 0 0 694 419" xml:space="preserve">
<path fill="none" opacity="1.000000" stroke="none" 
	d="
M522.000000,420.000000 
	C348.000000,420.000000 174.500000,420.000000 1.000000,420.000000 
	C1.000000,280.333344 1.000000,140.666672 1.000000,1.000000 
	C232.333328,1.000000 463.666656,1.000000 695.000000,1.000000 
	C695.000000,140.666672 695.000000,280.333344 695.000000,420.000000 
	C637.500000,420.000000 580.000000,420.000000 522.000000,420.000000 
M378.694641,218.893982 
	C378.694641,261.154633 378.694641,303.415253 378.694641,345.811768 
	C396.464508,345.811768 413.497009,345.811768 431.005554,345.811768 
	C431.005554,334.539001 431.005554,323.645142 431.005554,311.768585 
	C432.920898,313.548035 434.080017,314.644165 435.259674,315.717712 
	C442.896820,322.667816 450.537872,329.613586 458.178802,336.559509 
	C465.125153,342.874084 473.129700,346.129395 482.681122,345.937958 
	C493.503571,345.720978 504.338104,346.191010 515.164856,346.090790 
	C542.641907,345.836487 570.133972,345.887726 597.587219,344.902740 
	C612.527588,344.366669 621.673401,334.325562 627.371033,321.518677 
	C632.683594,309.577179 631.669556,297.820282 623.268372,287.229462 
	C617.576660,280.054260 611.886902,272.877502 606.224792,265.678986 
	C604.958435,264.069061 603.811462,262.365204 602.011963,259.878967 
	C623.419556,259.878967 643.638123,259.878967 663.926208,259.878967 
	C663.926208,244.353561 663.926208,229.274445 663.926208,214.277756 
	C663.363464,214.075241 663.066467,213.874573 662.769531,213.874832 
	C634.448059,213.900497 606.117493,213.527542 577.808960,214.153793 
	C563.376587,214.473099 551.755005,221.312500 545.410583,234.765076 
	C539.206604,247.919830 540.009155,261.032440 548.606384,273.057343 
	C552.173706,278.046997 556.545166,282.460846 560.537659,287.147888 
	C563.049927,290.097168 565.537537,293.067566 568.651306,296.757416 
	C542.888916,296.757416 518.443115,296.774445 493.997559,296.708740 
	C492.730316,296.705353 491.464966,295.995605 489.998199,295.554382 
	C494.615479,291.314697 499.037842,287.957794 502.589233,283.848206 
	C510.246857,274.986969 513.855225,264.543488 511.626251,252.843842 
	C508.189606,234.805298 491.939117,219.013855 473.798859,216.058899 
	C467.930145,215.102921 461.864594,215.129196 455.887451,215.105164 
	C431.563171,215.007401 407.238220,215.060104 382.913544,215.072495 
	C380.873596,215.073532 378.247559,214.341888 378.694641,218.893982 
M278.126862,205.317612 
	C278.126862,176.879837 278.126862,148.442062 278.126862,119.513306 
	C297.466919,119.513306 316.216492,119.513306 335.229889,119.513306 
	C335.229889,104.445915 335.229889,89.872841 335.229889,75.157036 
	C333.840332,75.080704 332.694122,74.961945 331.547943,74.962776 
	C276.905243,75.002296 222.262451,75.018730 167.619873,75.133163 
	C158.308914,75.152664 148.902695,74.833870 139.706924,75.992462 
	C115.095039,79.093376 96.910614,114.329971 116.278900,135.873245 
	C121.844093,142.063370 127.150589,148.486801 132.539185,154.834259 
	C133.422394,155.874619 134.115799,157.076141 135.445312,158.994446 
	C100.034225,158.994446 65.652405,158.994446 31.200481,158.994446 
	C31.200481,175.198242 31.200481,190.930237 31.200481,207.009506 
	C32.925232,207.009506 34.390717,207.009506 35.856197,207.009506 
	C58.346554,207.009506 80.837654,207.122742 103.327049,206.975662 
	C123.310226,206.844986 143.291962,206.451828 163.273422,206.119568 
	C170.390869,206.001221 176.499435,203.131332 181.985870,198.794510 
	C197.923538,186.196426 201.041275,165.005936 189.218613,148.723892 
	C184.036011,141.586472 178.518326,134.693100 173.208817,127.646713 
	C171.461639,125.327980 169.890610,122.876518 167.770096,119.806908 
	C188.353806,119.806908 207.942032,119.806908 228.162476,119.806908 
	C228.162476,148.847763 228.162476,177.875137 228.162476,207.005020 
	C244.450851,207.005020 260.108917,207.015030 275.766846,206.974396 
	C276.518707,206.972443 277.269409,206.523804 278.126862,205.317612 
M82.500053,214.515717 
	C66.157745,214.515717 49.815441,214.515717 33.337337,214.515717 
	C33.513294,215.276245 33.582664,215.764084 33.738419,216.222549 
	C48.004658,258.216217 62.309414,300.196869 76.474968,342.224426 
	C77.376625,344.899536 78.769020,345.339447 81.191101,345.310547 
	C89.851509,345.207275 98.519020,345.098389 107.172958,345.356537 
	C110.537880,345.456940 112.058983,344.495239 113.201660,341.215759 
	C118.283897,326.629700 123.699944,312.159821 129.012253,297.654144 
	C129.610062,296.021790 130.315125,294.428680 131.285568,292.042542 
	C137.345779,309.514801 143.143738,325.963379 148.696701,342.494293 
	C149.664062,345.374115 150.942810,346.345337 153.953690,346.272247 
	C162.443756,346.066132 170.950729,345.975433 179.433212,346.302185 
	C183.267685,346.449860 184.839828,345.132751 186.047958,341.579590 
	C199.845078,301.001434 213.816605,260.482544 227.726883,219.942795 
	C228.284027,218.319107 228.694839,216.645218 229.276093,214.642288 
	C215.872696,214.642288 203.217468,214.642288 190.562241,214.642288 
	C179.652420,214.642288 179.657349,214.643997 176.070938,224.983139 
	C173.350754,232.825012 170.615982,240.661835 167.508118,249.591568 
	C163.626007,238.132858 160.255875,227.877701 156.596268,217.726898 
	C156.068756,216.263718 154.164948,214.285141 152.870514,214.264435 
	C137.729446,214.022141 122.583107,214.109131 107.382927,214.109131 
	C103.324173,225.494339 99.358261,236.619110 94.934425,249.028397 
	C90.582489,236.780365 86.755547,226.009857 82.500053,214.515717 
M510.500000,207.012589 
	C519.110352,207.012589 527.720703,207.012589 536.941101,207.012589 
	C536.941101,196.018112 536.941101,185.544464 536.941101,174.407394 
	C545.780945,182.364853 554.078613,189.547226 562.040161,197.084595 
	C569.501709,204.148544 578.167297,206.988037 588.354492,206.907913 
	C612.510620,206.717911 636.669983,206.950760 660.828064,207.012039 
	C662.105530,207.015274 663.383057,207.012466 664.105713,207.012466 
	C664.105713,191.883560 664.110901,177.263412 664.093811,162.643280 
	C664.092712,161.684937 663.921204,160.726776 663.777222,159.231247 
	C661.637268,159.231247 659.670715,159.251740 657.704712,159.228073 
	C638.880737,159.001587 620.056213,158.800400 601.233643,158.489517 
	C599.149719,158.455109 597.076355,157.782043 593.654541,157.161514 
	C596.243835,155.311508 597.420593,154.457642 598.610535,153.622467 
	C614.447449,142.506943 620.748352,124.940796 615.629822,106.165421 
	C611.453491,90.846031 595.607300,77.338226 578.350708,76.821823 
	C547.223572,75.890327 516.059814,76.185394 484.911255,75.986351 
	C484.619598,75.984482 484.326355,76.230965 483.859161,76.439484 
	C483.859161,119.802277 483.859161,163.236267 483.859161,207.012589 
	C492.550720,207.012589 501.025360,207.012589 510.500000,207.012589 
M420.311096,75.909653 
	C401.647125,75.909660 382.982269,76.001961 364.319916,75.827835 
	C360.800568,75.794998 359.178589,76.739769 357.992279,80.232513 
	C347.516571,111.075333 336.797302,141.835358 326.174774,172.628403 
	C322.284576,183.905487 318.460785,195.205475 314.507172,206.786591 
	C331.642792,206.786591 348.224884,206.786591 364.848389,206.786591 
	C366.686707,201.127045 368.463501,195.656982 370.185913,190.354248 
	C381.241913,190.354248 391.733368,190.314728 402.224304,190.372330 
	C406.876007,190.397873 412.696014,188.977554 415.845093,191.219833 
	C418.922363,193.410965 419.280670,199.428055 420.815125,203.771790 
	C421.091400,204.553925 421.077454,205.538116 421.565338,206.121307 
	C422.204437,206.885178 423.205688,207.852051 424.056793,207.857574 
	C439.867188,207.960358 455.678436,207.932968 471.708099,207.932968 
	C471.397675,206.746780 471.210938,205.773163 470.890442,204.845795 
	C456.449890,163.064438 441.933990,121.308876 427.655060,79.472420 
	C426.368835,75.703857 424.119812,75.761360 420.311096,75.909653 
M258.154968,344.068909 
	C259.501587,339.615967 260.664215,335.093445 262.306396,330.752350 
	C262.802124,329.441864 264.615662,327.749603 265.847015,327.731995 
	C280.487305,327.522614 295.131683,327.597046 309.870789,327.597046 
	C311.485565,332.746307 313.065399,337.297180 314.310150,341.937958 
	C315.045227,344.678680 316.411774,345.471008 319.234375,345.424072 
	C333.058502,345.193970 346.886871,345.220703 360.713531,345.129517 
	C362.109528,345.120331 363.504333,344.929138 365.327209,344.789703 
	C349.963257,300.596191 334.770172,256.894165 319.589203,213.227020 
	C298.882477,213.227020 278.732361,213.339523 258.585693,213.127808 
	C254.763855,213.087677 253.156296,214.275864 251.930466,217.864044 
	C238.180161,258.113373 224.245468,298.299683 210.372604,338.507172 
	C209.754013,340.300049 209.252930,342.133453 208.438156,344.793365 
	C225.428467,344.793365 241.554367,344.793365 258.154968,344.068909 
z"/>
<path fill="#F9E21E" opacity="1.000000" stroke="none" 
	d="
M378.694946,218.442017 
	C378.247559,214.341888 380.873596,215.073532 382.913544,215.072495 
	C407.238220,215.060104 431.563171,215.007401 455.887451,215.105164 
	C461.864594,215.129196 467.930145,215.102921 473.798859,216.058899 
	C491.939117,219.013855 508.189606,234.805298 511.626251,252.843842 
	C513.855225,264.543488 510.246857,274.986969 502.589233,283.848206 
	C499.037842,287.957794 494.615479,291.314697 489.998199,295.554382 
	C491.464966,295.995605 492.730316,296.705353 493.997559,296.708740 
	C518.443115,296.774445 542.888916,296.757416 568.651306,296.757416 
	C565.537537,293.067566 563.049927,290.097168 560.537659,287.147888 
	C556.545166,282.460846 552.173706,278.046997 548.606384,273.057343 
	C540.009155,261.032440 539.206604,247.919830 545.410583,234.765076 
	C551.755005,221.312500 563.376587,214.473099 577.808960,214.153793 
	C606.117493,213.527542 634.448059,213.900497 662.769531,213.874832 
	C663.066467,213.874573 663.363464,214.075241 663.926208,214.277756 
	C663.926208,229.274445 663.926208,244.353561 663.926208,259.878967 
	C643.638123,259.878967 623.419556,259.878967 602.011963,259.878967 
	C603.811462,262.365204 604.958435,264.069061 606.224792,265.678986 
	C611.886902,272.877502 617.576660,280.054260 623.268372,287.229462 
	C631.669556,297.820282 632.683594,309.577179 627.371033,321.518677 
	C621.673401,334.325562 612.527588,344.366669 597.587219,344.902740 
	C570.133972,345.887726 542.641907,345.836487 515.164856,346.090790 
	C504.338104,346.191010 493.503571,345.720978 482.681122,345.937958 
	C473.129700,346.129395 465.125153,342.874084 458.178802,336.559509 
	C450.537872,329.613586 442.896820,322.667816 435.259674,315.717712 
	C434.080017,314.644165 432.920898,313.548035 431.005554,311.768585 
	C431.005554,323.645142 431.005554,334.539001 431.005554,345.811768 
	C413.497009,345.811768 396.464508,345.811768 378.694641,345.811768 
	C378.694641,303.415253 378.694641,261.154633 378.694946,218.442017 
M514.500000,305.136780 
	C507.836365,305.035400 501.172821,304.856903 494.509125,304.852020 
	C486.032074,304.845795 481.797180,299.022858 477.527008,293.539581 
	C483.771362,288.819641 490.158417,285.034973 495.216278,279.932648 
	C503.512482,271.563477 506.567566,261.270660 502.404510,249.683914 
	C496.742462,233.925201 481.560333,223.159134 464.869415,223.108231 
	C440.205811,223.033005 415.541809,223.084305 390.877960,223.101196 
	C389.596527,223.102081 388.315186,223.285065 387.206665,223.370026 
	C387.206665,261.762115 387.206665,299.817596 387.206665,337.861664 
	C399.253632,337.861664 410.844360,337.861664 423.035645,337.861664 
	C423.035645,323.214508 423.035645,308.855774 423.035645,293.445221 
	C426.925903,297.010223 429.959045,299.792816 432.995514,302.571686 
	C443.318512,312.018951 453.649323,321.457703 463.963654,330.914398 
	C469.387726,335.887451 475.695557,337.959106 483.103851,337.912903 
	C503.765167,337.784027 524.429260,338.153839 545.091309,338.074890 
	C561.580872,338.011902 578.070435,337.646423 594.557251,337.288452 
	C607.126587,337.015503 614.824341,329.426300 619.750061,318.960999 
	C624.160278,309.590668 623.557251,300.213898 616.702148,291.778290 
	C611.870178,285.832245 607.125488,279.814148 602.414612,273.771484 
	C599.857178,270.491089 596.875000,267.356415 595.178833,263.654572 
	C594.031189,261.149780 593.968018,257.438293 594.995483,254.905869 
	C595.638733,253.320328 599.196167,252.144394 601.463684,252.114197 
	C617.958374,251.894608 634.457520,252.013000 650.955261,252.024261 
	C652.564026,252.025360 654.172729,252.024414 655.892822,252.024414 
	C655.892822,241.729034 655.892822,231.985641 655.892822,222.140030 
	C629.181946,222.140030 602.698181,221.368698 576.286926,222.419769 
	C559.560547,223.085419 549.567749,236.053940 549.723450,252.795670 
	C549.802002,261.246674 553.979858,267.648895 559.132080,273.689606 
	C564.210693,279.644073 569.270874,285.618378 574.505615,291.434204 
	C579.287537,296.747009 576.411011,304.626312 568.484436,304.781616 
	C566.653137,304.817474 564.823853,305.009491 562.993164,305.015839 
	C547.162170,305.070953 531.331116,305.100006 514.500000,305.136780 
z"/>
<path fill="#F9E31E" opacity="1.000000" stroke="none" 
	d="
M278.073730,205.800400 
	C277.269409,206.523804 276.518707,206.972443 275.766846,206.974396 
	C260.108917,207.015030 244.450851,207.005020 228.162476,207.005020 
	C228.162476,177.875137 228.162476,148.847763 228.162476,119.806908 
	C207.942032,119.806908 188.353806,119.806908 167.770096,119.806908 
	C169.890610,122.876518 171.461639,125.327980 173.208817,127.646713 
	C178.518326,134.693100 184.036011,141.586472 189.218613,148.723892 
	C201.041275,165.005936 197.923538,186.196426 181.985870,198.794510 
	C176.499435,203.131332 170.390869,206.001221 163.273422,206.119568 
	C143.291962,206.451828 123.310226,206.844986 103.327049,206.975662 
	C80.837654,207.122742 58.346554,207.009506 35.856197,207.009506 
	C34.390717,207.009506 32.925232,207.009506 31.200481,207.009506 
	C31.200481,190.930237 31.200481,175.198242 31.200481,158.994446 
	C65.652405,158.994446 100.034225,158.994446 135.445312,158.994446 
	C134.115799,157.076141 133.422394,155.874619 132.539185,154.834259 
	C127.150589,148.486801 121.844093,142.063370 116.278900,135.873245 
	C96.910614,114.329971 115.095039,79.093376 139.706924,75.992462 
	C148.902695,74.833870 158.308914,75.152664 167.619873,75.133163 
	C222.262451,75.018730 276.905243,75.002296 331.547943,74.962776 
	C332.694122,74.961945 333.840332,75.080704 335.229889,75.157036 
	C335.229889,89.872841 335.229889,104.445915 335.229889,119.513306 
	C316.216492,119.513306 297.466919,119.513306 278.126862,119.513306 
	C278.126862,148.442062 278.126862,176.879837 278.073730,205.800400 
M65.500000,198.992050 
	C78.494789,198.992050 91.490715,199.101440 104.484100,198.966415 
	C123.967545,198.763931 143.457260,198.634781 162.928528,197.994492 
	C174.115051,197.626633 181.256592,190.679886 185.719574,181.063828 
	C189.966064,171.914261 190.314758,162.905273 183.517532,154.342682 
	C176.171432,145.088699 169.221375,135.518234 162.183685,126.022728 
	C159.969284,123.034988 159.239700,119.718040 161.066101,116.178764 
	C162.927795,112.571045 166.103775,111.724686 169.846771,111.720879 
	C185.839432,111.704613 201.832001,111.605133 217.824646,111.549843 
	C223.778870,111.529259 229.733231,111.546509 236.140030,111.546509 
	C236.140030,140.871277 236.140030,169.773300 236.140030,198.712646 
	C247.673782,198.712646 258.746521,198.712646 270.143311,198.712646 
	C270.143311,169.666306 270.143311,140.897095 270.143311,111.454819 
	C289.336029,111.454819 308.211060,111.454819 327.268433,111.454819 
	C327.268433,101.678711 327.268433,92.578064 327.268433,83.186493 
	C325.643585,83.110397 324.180969,82.981682 322.718414,82.982193 
	C286.565796,82.994827 250.413193,83.015648 214.260574,83.047058 
	C191.936157,83.066452 169.611755,83.093163 147.287399,83.140724 
	C134.023956,83.168976 124.879776,89.770546 119.322563,101.403923 
	C114.000603,112.544861 115.160728,122.953026 123.715813,132.338318 
	C129.322937,138.489578 134.574554,144.963623 140.049805,151.236908 
	C142.750458,154.331177 144.458939,157.622772 142.306625,161.642349 
	C140.239029,165.503693 136.992706,167.024887 132.478928,167.003479 
	C103.157478,166.864395 73.835045,166.932190 44.512939,166.932220 
	C42.749466,166.932236 40.985992,166.932236 39.267555,166.932236 
	C39.267555,177.947205 39.267555,188.344543 39.267555,198.992050 
	C47.884293,198.992050 56.192146,198.992050 65.500000,198.992050 
z"/>
<path fill="#F7E11E" opacity="1.000000" stroke="none" 
	d="
M82.714325,214.877533 
	C86.755547,226.009857 90.582489,236.780365 94.934425,249.028397 
	C99.358261,236.619110 103.324173,225.494339 107.382927,214.109131 
	C122.583107,214.109131 137.729446,214.022141 152.870514,214.264435 
	C154.164948,214.285141 156.068756,216.263718 156.596268,217.726898 
	C160.255875,227.877701 163.626007,238.132858 167.508118,249.591568 
	C170.615982,240.661835 173.350754,232.825012 176.070938,224.983139 
	C179.657349,214.643997 179.652420,214.642288 190.562241,214.642288 
	C203.217468,214.642288 215.872696,214.642288 229.276093,214.642288 
	C228.694839,216.645218 228.284027,218.319107 227.726883,219.942795 
	C213.816605,260.482544 199.845078,301.001434 186.047958,341.579590 
	C184.839828,345.132751 183.267685,346.449860 179.433212,346.302185 
	C170.950729,345.975433 162.443756,346.066132 153.953690,346.272247 
	C150.942810,346.345337 149.664062,345.374115 148.696701,342.494293 
	C143.143738,325.963379 137.345779,309.514801 131.285568,292.042542 
	C130.315125,294.428680 129.610062,296.021790 129.012253,297.654144 
	C123.699944,312.159821 118.283897,326.629700 113.201660,341.215759 
	C112.058983,344.495239 110.537880,345.456940 107.172958,345.356537 
	C98.519020,345.098389 89.851509,345.207275 81.191101,345.310547 
	C78.769020,345.339447 77.376625,344.899536 76.474968,342.224426 
	C62.309414,300.196869 48.004658,258.216217 33.738419,216.222549 
	C33.582664,215.764084 33.513294,215.276245 33.337337,214.515717 
	C49.815441,214.515717 66.157745,214.515717 82.714325,214.877533 
M145.902649,309.545807 
	C147.205460,313.312164 148.480591,317.088379 149.817581,320.842560 
	C151.817032,326.456940 152.314682,334.314026 156.305954,337.045258 
	C160.553299,339.951660 168.141937,337.790741 174.241531,338.246094 
	C177.731018,338.506561 179.056274,337.196014 180.129227,333.992218 
	C187.408951,312.255310 194.914581,290.594025 202.358032,268.912018 
	C207.579361,253.702805 212.817795,238.499451 218.251846,222.702652 
	C207.558975,222.702652 197.436584,222.608353 187.321838,222.843658 
	C186.271851,222.868103 184.793991,224.675369 184.320557,225.953857 
	C181.725571,232.961609 179.422058,240.076538 176.941742,247.127670 
	C174.033905,255.394165 171.047348,263.632965 167.760620,272.818146 
	C166.467972,269.628937 165.516525,267.529694 164.755600,265.363495 
	C160.131866,252.200684 155.540604,239.026398 150.968079,225.845688 
	C150.252655,223.783447 149.826080,221.996597 146.777756,222.055115 
	C135.632385,222.269043 124.480438,222.139755 113.053047,222.139755 
	C107.186150,238.727280 101.361282,255.195999 95.021774,273.119720 
	C88.602142,255.172150 82.705612,238.687012 76.839493,222.286896 
	C65.992149,222.286896 55.525539,222.286896 44.645607,222.286896 
	C44.996708,223.765869 45.193275,225.046799 45.603310,226.255264 
	C57.772060,262.119781 69.992905,297.966736 82.086739,333.856445 
	C83.001762,336.571899 84.324692,337.418518 87.083290,337.292664 
	C91.903374,337.072693 96.758629,336.977844 101.564842,337.316833 
	C105.021561,337.560669 106.486267,336.299774 107.621193,333.108551 
	C114.633690,313.390564 121.863449,293.749756 129.034775,274.088348 
	C129.713181,272.228424 130.486649,270.403198 131.521713,267.789978 
	C136.451599,282.109741 141.045898,295.454773 145.902649,309.545807 
z"/>
<path fill="#F8E11E" opacity="1.000000" stroke="none" 
	d="
M510.000000,207.012589 
	C501.025360,207.012589 492.550720,207.012589 483.859161,207.012589 
	C483.859161,163.236267 483.859161,119.802277 483.859161,76.439484 
	C484.326355,76.230965 484.619598,75.984482 484.911255,75.986351 
	C516.059814,76.185394 547.223572,75.890327 578.350708,76.821823 
	C595.607300,77.338226 611.453491,90.846031 615.629822,106.165421 
	C620.748352,124.940796 614.447449,142.506943 598.610535,153.622467 
	C597.420593,154.457642 596.243835,155.311508 593.654541,157.161514 
	C597.076355,157.782043 599.149719,158.455109 601.233643,158.489517 
	C620.056213,158.800400 638.880737,159.001587 657.704712,159.228073 
	C659.670715,159.251740 661.637268,159.231247 663.777222,159.231247 
	C663.921204,160.726776 664.092712,161.684937 664.093811,162.643280 
	C664.110901,177.263412 664.105713,191.883560 664.105713,207.012466 
	C663.383057,207.012466 662.105530,207.015274 660.828064,207.012039 
	C636.669983,206.950760 612.510620,206.717911 588.354492,206.907913 
	C578.167297,206.988037 569.501709,204.148544 562.040161,197.084595 
	C554.078613,189.547226 545.780945,182.364853 536.941101,174.407394 
	C536.941101,185.544464 536.941101,196.018112 536.941101,207.012589 
	C527.720703,207.012589 519.110352,207.012589 510.000000,207.012589 
M591.966370,164.734390 
	C588.596497,161.465027 585.226562,158.195663 581.502808,154.582947 
	C586.280884,151.700653 590.230164,149.572052 593.913330,147.054108 
	C613.248474,133.835968 614.688416,107.907158 597.075623,92.617882 
	C589.867981,86.361084 581.341492,84.282837 572.093811,84.245941 
	C546.095337,84.142204 520.096863,84.038994 494.098358,83.963440 
	C493.332123,83.961205 492.564941,84.269936 491.885681,84.415001 
	C491.885681,122.622025 491.885681,160.572952 491.885681,198.755753 
	C504.194275,198.755753 516.291748,198.755753 528.723389,198.755753 
	C528.723389,184.462585 528.723389,170.373337 528.723389,155.505219 
	C530.480164,157.075409 531.683960,158.133118 532.868042,159.212448 
	C545.426331,170.659714 557.789978,182.333481 570.674988,193.400162 
	C573.818237,196.099777 578.638000,198.120621 582.741150,198.220169 
	C607.056580,198.810135 631.387939,198.744110 655.714111,198.876831 
	C655.991821,198.878357 656.271057,198.590302 656.232483,198.611481 
	C656.232483,188.173660 656.232483,177.931793 656.232483,167.163223 
	C653.816833,167.163223 652.025635,167.183380 650.234985,167.160095 
	C632.738892,166.932678 615.242249,166.732407 597.747803,166.411530 
	C596.024109,166.379913 594.314148,165.596436 591.966370,164.734390 
z"/>
<path fill="#F8E21E" opacity="1.000000" stroke="none" 
	d="
M420.780640,75.909653 
	C424.119812,75.761360 426.368835,75.703857 427.655060,79.472420 
	C441.933990,121.308876 456.449890,163.064438 470.890442,204.845795 
	C471.210938,205.773163 471.397675,206.746780 471.708099,207.932968 
	C455.678436,207.932968 439.867188,207.960358 424.056793,207.857574 
	C423.205688,207.852051 422.204437,206.885178 421.565338,206.121307 
	C421.077454,205.538116 421.091400,204.553925 420.815125,203.771790 
	C419.280670,199.428055 418.922363,193.410965 415.845093,191.219833 
	C412.696014,188.977554 406.876007,190.397873 402.224304,190.372330 
	C391.733368,190.314728 381.241913,190.354248 370.185913,190.354248 
	C368.463501,195.656982 366.686707,201.127045 364.848389,206.786591 
	C348.224884,206.786591 331.642792,206.786591 314.507172,206.786591 
	C318.460785,195.205475 322.284576,183.905487 326.174774,172.628403 
	C336.797302,141.835358 347.516571,111.075333 357.992279,80.232513 
	C359.178589,76.739769 360.800568,75.794998 364.319916,75.827835 
	C382.982269,76.001961 401.647125,75.909660 420.780640,75.909653 
M348.373322,132.941620 
	C340.852936,154.821655 333.332581,176.701691 325.737122,198.800171 
	C337.247559,198.800171 348.028625,198.800171 358.943726,198.800171 
	C360.755157,193.183807 362.524475,187.698029 364.226898,182.419708 
	C382.964142,182.419708 401.271484,182.351730 419.575745,182.557373 
	C420.941681,182.572723 422.978241,184.279266 423.513245,185.660461 
	C425.300079,190.273483 426.545593,195.096146 427.960876,199.715729 
	C438.902893,199.715729 449.452393,199.715729 460.576324,199.715729 
	C456.629150,188.310349 452.830994,177.358612 449.048553,166.401459 
	C439.999878,140.188812 430.992096,113.961861 421.827972,87.789665 
	C421.300171,86.282310 419.538635,84.119209 418.326294,84.102745 
	C400.698578,83.863312 383.066620,83.938477 365.316986,83.938477 
	C359.719940,100.219307 354.218201,116.222900 348.373322,132.941620 
z"/>
<path fill="#F7E01E" opacity="1.000000" stroke="none" 
	d="
M257.917603,344.431152 
	C241.554367,344.793365 225.428467,344.793365 208.438156,344.793365 
	C209.252930,342.133453 209.754013,340.300049 210.372604,338.507172 
	C224.245468,298.299683 238.180161,258.113373 251.930466,217.864044 
	C253.156296,214.275864 254.763855,213.087677 258.585693,213.127808 
	C278.732361,213.339523 298.882477,213.227020 319.589203,213.227020 
	C334.770172,256.894165 349.963257,300.596191 365.327209,344.789703 
	C363.504333,344.929138 362.109528,345.120331 360.713531,345.129517 
	C346.886871,345.220703 333.058502,345.193970 319.234375,345.424072 
	C316.411774,345.471008 315.045227,344.678680 314.310150,341.937958 
	C313.065399,337.297180 311.485565,332.746307 309.870789,327.597046 
	C295.131683,327.597046 280.487305,327.522614 265.847015,327.731995 
	C264.615662,327.749603 262.802124,329.441864 262.306396,330.752350 
	C260.664215,335.093445 259.501587,339.615967 257.917603,344.431152 
M240.768997,275.258179 
	C233.748550,295.555267 226.728104,315.852386 219.444305,336.910889 
	C230.030304,336.910889 239.523544,337.037842 249.005478,336.768005 
	C250.359497,336.729462 252.334579,335.027710 252.860077,333.651825 
	C254.618210,329.048676 255.848984,324.244110 257.190918,319.816315 
	C277.031982,319.816315 296.341156,319.816315 315.851135,319.816315 
	C317.425537,324.839020 318.735474,329.649292 320.514526,334.279297 
	C320.999695,335.541931 322.876740,337.072571 324.147797,337.102844 
	C333.959473,337.336517 343.779205,337.231567 354.192841,337.231567 
	C340.606384,298.155762 327.215332,259.641907 313.871887,221.264954 
	C296.399780,221.264954 279.573486,221.359924 262.750214,221.178589 
	C259.672791,221.145416 258.834564,222.616837 258.020966,225.001007 
	C252.385788,241.514709 246.669540,258.000732 240.768997,275.258179 
z"/>
<path fill="none" opacity="1.000000" stroke="none" 
	d="
M515.000000,305.136780 
	C531.331116,305.100006 547.162170,305.070953 562.993164,305.015839 
	C564.823853,305.009491 566.653137,304.817474 568.484436,304.781616 
	C576.411011,304.626312 579.287537,296.747009 574.505615,291.434204 
	C569.270874,285.618378 564.210693,279.644073 559.132080,273.689606 
	C553.979858,267.648895 549.802002,261.246674 549.723450,252.795670 
	C549.567749,236.053940 559.560547,223.085419 576.286926,222.419769 
	C602.698181,221.368698 629.181946,222.140030 655.892822,222.140030 
	C655.892822,231.985641 655.892822,241.729034 655.892822,252.024414 
	C654.172729,252.024414 652.564026,252.025360 650.955261,252.024261 
	C634.457520,252.013000 617.958374,251.894608 601.463684,252.114197 
	C599.196167,252.144394 595.638733,253.320328 594.995483,254.905869 
	C593.968018,257.438293 594.031189,261.149780 595.178833,263.654572 
	C596.875000,267.356415 599.857178,270.491089 602.414612,273.771484 
	C607.125488,279.814148 611.870178,285.832245 616.702148,291.778290 
	C623.557251,300.213898 624.160278,309.590668 619.750061,318.960999 
	C614.824341,329.426300 607.126587,337.015503 594.557251,337.288452 
	C578.070435,337.646423 561.580872,338.011902 545.091309,338.074890 
	C524.429260,338.153839 503.765167,337.784027 483.103851,337.912903 
	C475.695557,337.959106 469.387726,335.887451 463.963654,330.914398 
	C453.649323,321.457703 443.318512,312.018951 432.995514,302.571686 
	C429.959045,299.792816 426.925903,297.010223 423.035645,293.445221 
	C423.035645,308.855774 423.035645,323.214508 423.035645,337.861664 
	C410.844360,337.861664 399.253632,337.861664 387.206665,337.861664 
	C387.206665,299.817596 387.206665,261.762115 387.206665,223.370026 
	C388.315186,223.285065 389.596527,223.102081 390.877960,223.101196 
	C415.541809,223.084305 440.205811,223.033005 464.869415,223.108231 
	C481.560333,223.159134 496.742462,233.925201 502.404510,249.683914 
	C506.567566,261.270660 503.512482,271.563477 495.216278,279.932648 
	C490.158417,285.034973 483.771362,288.819641 477.527008,293.539581 
	C481.797180,299.022858 486.032074,304.845795 494.509125,304.852020 
	C501.172821,304.856903 507.836365,305.035400 515.000000,305.136780 
M464.601471,272.317566 
	C469.934723,268.975861 472.440460,264.259369 471.205841,257.969696 
	C470.128937,252.483536 466.922791,247.593430 461.456329,247.271820 
	C448.758026,246.524734 435.985809,247.033875 423.105835,247.033875 
	C423.105835,255.646149 423.105835,264.700012 423.105835,274.865997 
	C432.883789,274.865997 442.342590,275.073029 451.785004,274.769470 
	C455.863159,274.638306 459.907379,273.451782 464.601471,272.317566 
z"/>
<path fill="none" opacity="1.000000" stroke="none" 
	d="
M65.000000,198.992050 
	C56.192146,198.992050 47.884293,198.992050 39.267555,198.992050 
	C39.267555,188.344543 39.267555,177.947205 39.267555,166.932236 
	C40.985992,166.932236 42.749466,166.932236 44.512939,166.932220 
	C73.835045,166.932190 103.157478,166.864395 132.478928,167.003479 
	C136.992706,167.024887 140.239029,165.503693 142.306625,161.642349 
	C144.458939,157.622772 142.750458,154.331177 140.049805,151.236908 
	C134.574554,144.963623 129.322937,138.489578 123.715813,132.338318 
	C115.160728,122.953026 114.000603,112.544861 119.322563,101.403923 
	C124.879776,89.770546 134.023956,83.168976 147.287399,83.140724 
	C169.611755,83.093163 191.936157,83.066452 214.260574,83.047058 
	C250.413193,83.015648 286.565796,82.994827 322.718414,82.982193 
	C324.180969,82.981682 325.643585,83.110397 327.268433,83.186493 
	C327.268433,92.578064 327.268433,101.678711 327.268433,111.454819 
	C308.211060,111.454819 289.336029,111.454819 270.143311,111.454819 
	C270.143311,140.897095 270.143311,169.666306 270.143311,198.712646 
	C258.746521,198.712646 247.673782,198.712646 236.140030,198.712646 
	C236.140030,169.773300 236.140030,140.871277 236.140030,111.546509 
	C229.733231,111.546509 223.778870,111.529259 217.824646,111.549843 
	C201.832001,111.605133 185.839432,111.704613 169.846771,111.720879 
	C166.103775,111.724686 162.927795,112.571045 161.066101,116.178764 
	C159.239700,119.718040 159.969284,123.034988 162.183685,126.022728 
	C169.221375,135.518234 176.171432,145.088699 183.517532,154.342682 
	C190.314758,162.905273 189.966064,171.914261 185.719574,181.063828 
	C181.256592,190.679886 174.115051,197.626633 162.928528,197.994492 
	C143.457260,198.634781 123.967545,198.763931 104.484100,198.966415 
	C91.490715,199.101440 78.494789,198.992050 65.000000,198.992050 
z"/>
<path fill="none" opacity="1.000000" stroke="none" 
	d="
M145.771423,309.172791 
	C141.045898,295.454773 136.451599,282.109741 131.521713,267.789978 
	C130.486649,270.403198 129.713181,272.228424 129.034775,274.088348 
	C121.863449,293.749756 114.633690,313.390564 107.621193,333.108551 
	C106.486267,336.299774 105.021561,337.560669 101.564842,337.316833 
	C96.758629,336.977844 91.903374,337.072693 87.083290,337.292664 
	C84.324692,337.418518 83.001762,336.571899 82.086739,333.856445 
	C69.992905,297.966736 57.772060,262.119781 45.603310,226.255264 
	C45.193275,225.046799 44.996708,223.765869 44.645607,222.286896 
	C55.525539,222.286896 65.992149,222.286896 76.839493,222.286896 
	C82.705612,238.687012 88.602142,255.172150 95.021774,273.119720 
	C101.361282,255.195999 107.186150,238.727280 113.053047,222.139755 
	C124.480438,222.139755 135.632385,222.269043 146.777756,222.055115 
	C149.826080,221.996597 150.252655,223.783447 150.968079,225.845688 
	C155.540604,239.026398 160.131866,252.200684 164.755600,265.363495 
	C165.516525,267.529694 166.467972,269.628937 167.760620,272.818146 
	C171.047348,263.632965 174.033905,255.394165 176.941742,247.127670 
	C179.422058,240.076538 181.725571,232.961609 184.320557,225.953857 
	C184.793991,224.675369 186.271851,222.868103 187.321838,222.843658 
	C197.436584,222.608353 207.558975,222.702652 218.251846,222.702652 
	C212.817795,238.499451 207.579361,253.702805 202.358032,268.912018 
	C194.914581,290.594025 187.408951,312.255310 180.129227,333.992218 
	C179.056274,337.196014 177.731018,338.506561 174.241531,338.246094 
	C168.141937,337.790741 160.553299,339.951660 156.305954,337.045258 
	C152.314682,334.314026 151.817032,326.456940 149.817581,320.842560 
	C148.480591,317.088379 147.205460,313.312164 145.771423,309.172791 
z"/>
<path fill="none" opacity="1.000000" stroke="none" 
	d="
M592.282104,164.948166 
	C594.314148,165.596436 596.024109,166.379913 597.747803,166.411530 
	C615.242249,166.732407 632.738892,166.932678 650.234985,167.160095 
	C652.025635,167.183380 653.816833,167.163223 656.232483,167.163223 
	C656.232483,177.931793 656.232483,188.173660 656.232483,198.611481 
	C656.271057,198.590302 655.991821,198.878357 655.714111,198.876831 
	C631.387939,198.744110 607.056580,198.810135 582.741150,198.220169 
	C578.638000,198.120621 573.818237,196.099777 570.674988,193.400162 
	C557.789978,182.333481 545.426331,170.659714 532.868042,159.212448 
	C531.683960,158.133118 530.480164,157.075409 528.723389,155.505219 
	C528.723389,170.373337 528.723389,184.462585 528.723389,198.755753 
	C516.291748,198.755753 504.194275,198.755753 491.885681,198.755753 
	C491.885681,160.572952 491.885681,122.622025 491.885681,84.415001 
	C492.564941,84.269936 493.332123,83.961205 494.098358,83.963440 
	C520.096863,84.038994 546.095337,84.142204 572.093811,84.245941 
	C581.341492,84.282837 589.867981,86.361084 597.075623,92.617882 
	C614.688416,107.907158 613.248474,133.835968 593.913330,147.054108 
	C590.230164,149.572052 586.280884,151.700653 581.502808,154.582947 
	C585.226562,158.195663 588.596497,161.465027 592.282104,164.948166 
M538.541626,135.684906 
	C546.697632,135.586212 554.860413,135.659836 563.007629,135.338104 
	C570.451294,135.044113 575.583740,130.232437 576.102844,123.612045 
	C576.756958,115.271103 573.148743,108.845093 565.347534,108.261200 
	C553.027161,107.339066 540.587158,108.015755 528.300781,108.015755 
	C528.300781,116.901596 528.300781,126.128395 528.300781,135.684875 
	C531.615356,135.684875 534.587646,135.684875 538.541626,135.684906 
z"/>
<path fill="none" opacity="1.000000" stroke="none" 
	d="
M348.544922,132.584045 
	C354.218201,116.222900 359.719940,100.219307 365.316986,83.938477 
	C383.066620,83.938477 400.698578,83.863312 418.326294,84.102745 
	C419.538635,84.119209 421.300171,86.282310 421.827972,87.789665 
	C430.992096,113.961861 439.999878,140.188812 449.048553,166.401459 
	C452.830994,177.358612 456.629150,188.310349 460.576324,199.715729 
	C449.452393,199.715729 438.902893,199.715729 427.960876,199.715729 
	C426.545593,195.096146 425.300079,190.273483 423.513245,185.660461 
	C422.978241,184.279266 420.941681,182.572723 419.575745,182.557373 
	C401.271484,182.351730 382.964142,182.419708 364.226898,182.419708 
	C362.524475,187.698029 360.755157,193.183807 358.943726,198.800171 
	C348.028625,198.800171 337.247559,198.800171 325.737122,198.800171 
	C333.332581,176.701691 340.852936,154.821655 348.544922,132.584045 
M401.536255,121.864288 
	C399.189056,115.101410 396.841888,108.338539 393.992493,100.128654 
	C386.875946,120.054947 380.291992,138.490067 373.678436,157.008026 
	C387.328430,157.008026 400.168304,157.008026 413.392548,157.008026 
	C409.421844,145.184601 405.627930,133.887665 401.536255,121.864288 
z"/>
<path fill="none" opacity="1.000000" stroke="none" 
	d="
M240.874161,274.876892 
	C246.669540,258.000732 252.385788,241.514709 258.020966,225.001007 
	C258.834564,222.616837 259.672791,221.145416 262.750214,221.178589 
	C279.573486,221.359924 296.399780,221.264954 313.871887,221.264954 
	C327.215332,259.641907 340.606384,298.155762 354.192841,337.231567 
	C343.779205,337.231567 333.959473,337.336517 324.147797,337.102844 
	C322.876740,337.072571 320.999695,335.541931 320.514526,334.279297 
	C318.735474,329.649292 317.425537,324.839020 315.851135,319.816315 
	C296.341156,319.816315 277.031982,319.816315 257.190918,319.816315 
	C255.848984,324.244110 254.618210,329.048676 252.860077,333.651825 
	C252.334579,335.027710 250.359497,336.729462 249.005478,336.768005 
	C239.523544,337.037842 230.030304,336.910889 219.444305,336.910889 
	C226.728104,315.852386 233.748550,295.555267 240.874161,274.876892 
M306.000031,293.291626 
	C299.945984,275.303436 293.891968,257.315216 287.508667,238.348755 
	C280.509552,257.494812 273.880157,275.629547 267.150024,294.039764 
	C280.335388,294.039764 293.041779,294.039764 306.000031,293.291626 
z"/>
<path fill="#F8E11E" opacity="1.000000" stroke="none" 
	d="
M464.284241,272.531128 
	C459.907379,273.451782 455.863159,274.638306 451.785004,274.769470 
	C442.342590,275.073029 432.883789,274.865997 423.105835,274.865997 
	C423.105835,264.700012 423.105835,255.646149 423.105835,247.033875 
	C435.985809,247.033875 448.758026,246.524734 461.456329,247.271820 
	C466.922791,247.593430 470.128937,252.483536 471.205841,257.969696 
	C472.440460,264.259369 469.934723,268.975861 464.284241,272.531128 
M430.845337,261.419922 
	C430.845337,263.028046 430.845337,264.636169 430.845337,266.234741 
	C440.287140,266.234741 449.193359,266.402344 458.087616,266.149017 
	C461.461060,266.052917 463.657288,263.741608 463.403076,260.191650 
	C463.160217,256.800842 461.115753,254.685165 457.544067,254.660507 
	C448.804504,254.600143 440.064270,254.640793 430.849976,254.640793 
	C430.849976,256.576111 430.849976,258.526459 430.845337,261.419922 
z"/>
<path fill="#F8E21E" opacity="1.000000" stroke="none" 
	d="
M538.050781,135.684891 
	C534.587646,135.684875 531.615356,135.684875 528.300781,135.684875 
	C528.300781,126.128395 528.300781,116.901596 528.300781,108.015755 
	C540.587158,108.015755 553.027161,107.339066 565.347534,108.261200 
	C573.148743,108.845093 576.756958,115.271103 576.102844,123.612045 
	C575.583740,130.232437 570.451294,135.044113 563.007629,135.338104 
	C554.860413,135.659836 546.697632,135.586212 538.050781,135.684891 
M568.074280,123.162819 
	C568.772949,118.664223 566.739319,115.823448 562.341309,115.671806 
	C553.636658,115.371681 544.914429,115.583183 536.299011,115.583183 
	C536.299011,119.563713 536.299011,123.451553 536.299011,127.457504 
	C545.237427,127.457504 553.847656,127.659309 562.434265,127.299210 
	C564.310730,127.220520 566.103088,125.136490 568.074280,123.162819 
z"/>
<path fill="#F7E01E" opacity="1.000000" stroke="none" 
	d="
M401.685120,122.227509 
	C405.627930,133.887665 409.421844,145.184601 413.392548,157.008026 
	C400.168304,157.008026 387.328430,157.008026 373.678436,157.008026 
	C380.291992,138.490067 386.875946,120.054947 393.992493,100.128654 
	C396.841888,108.338539 399.189056,115.101410 401.685120,122.227509 
M395.058105,127.768051 
	C394.618011,127.001640 394.177917,126.235229 393.511108,125.074013 
	C390.599426,133.353531 387.871887,141.109375 385.067413,149.083984 
	C391.041046,149.083984 396.422577,149.083984 402.318634,149.083984 
	C399.862946,141.905441 397.566010,135.190979 395.058105,127.768051 
z"/>
<path fill="#F8E21E" opacity="1.000000" stroke="none" 
	d="
M305.874084,293.665710 
	C293.041779,294.039764 280.335388,294.039764 267.150024,294.039764 
	C273.880157,275.629547 280.509552,257.494812 287.508667,238.348755 
	C293.891968,257.315216 299.945984,275.303436 305.874084,293.665710 
M287.878632,264.455658 
	C287.665131,264.307220 287.466736,264.118439 287.230743,264.030060 
	C287.134979,263.994202 286.874237,264.145508 286.828766,264.265015 
	C284.107971,271.413116 281.401794,278.566742 278.555298,286.086975 
	C284.532196,286.086975 289.611053,286.086975 295.141815,286.086975 
	C292.692688,278.854401 290.366364,271.984497 287.878632,264.455658 
z"/>
<path fill="none" opacity="1.000000" stroke="none" 
	d="
M430.847656,260.948364 
	C430.849976,258.526459 430.849976,256.576111 430.849976,254.640793 
	C440.064270,254.640793 448.804504,254.600143 457.544067,254.660507 
	C461.115753,254.685165 463.160217,256.800842 463.403076,260.191650 
	C463.657288,263.741608 461.461060,266.052917 458.087616,266.149017 
	C449.193359,266.402344 440.287140,266.234741 430.845337,266.234741 
	C430.845337,264.636169 430.845337,263.028046 430.847656,260.948364 
z"/>
<path fill="none" opacity="1.000000" stroke="none" 
	d="
M568.004272,123.569412 
	C566.103088,125.136490 564.310730,127.220520 562.434265,127.299210 
	C553.847656,127.659309 545.237427,127.457504 536.299011,127.457504 
	C536.299011,123.451553 536.299011,119.563713 536.299011,115.583183 
	C544.914429,115.583183 553.636658,115.371681 562.341309,115.671806 
	C566.739319,115.823448 568.772949,118.664223 568.004272,123.569412 
z"/>
<path fill="none" opacity="1.000000" stroke="none" 
	d="
M395.163574,128.122284 
	C397.566010,135.190979 399.862946,141.905441 402.318634,149.083984 
	C396.422577,149.083984 391.041046,149.083984 385.067413,149.083984 
	C387.871887,141.109375 390.599426,133.353531 393.511108,125.074013 
	C394.177917,126.235229 394.618011,127.001640 395.163574,128.122284 
z"/>
<path fill="none" opacity="1.000000" stroke="none" 
	d="
M287.959351,264.785156 
	C290.366364,271.984497 292.692688,278.854401 295.141815,286.086975 
	C289.611053,286.086975 284.532196,286.086975 278.555298,286.086975 
	C281.401794,278.566742 284.107971,271.413116 286.828766,264.265015 
	C286.874237,264.145508 287.134979,263.994202 287.230743,264.030060 
	C287.466736,264.118439 287.665131,264.307220 287.959351,264.785156 
z"/>
</svg>