<svg version="1.1" id="Layer_1" xmlns="http://www.w3.org/2000/svg" xmlns:xlink="http://www.w3.org/1999/xlink" x="0px" y="0px"
	 width="100%" viewBox="0 0 256 256" enable-background="new 0 0 256 256" xml:space="preserve">
<path fill="#F1C40F" opacity="1.000000" stroke="none" 
	d="
M118.000000,257.000000 
	C116.611107,257.000000 115.222221,257.000000 113.756760,256.698792 
	C107.291191,254.264236 100.775597,252.444717 94.540771,249.929276 
	C83.180305,245.345901 69.976814,242.936966 66.936272,228.329468 
	C61.997616,228.329468 57.572918,228.329468 52.999474,228.329468 
	C52.999474,229.652008 53.005398,230.644730 52.998539,231.637344 
	C52.941341,239.916458 49.890762,242.993256 41.736095,242.999054 
	C39.902992,243.000351 38.068836,243.039352 36.236984,242.991440 
	C30.816874,242.849701 27.080215,239.094742 27.016233,233.609909 
	C26.948206,227.778107 27.000479,221.944885 27.000826,216.112289 
	C27.001295,208.209549 28.553679,205.968765 35.652058,203.489594 
	C37.327206,196.053680 35.182598,190.784195 27.598598,188.099792 
	C22.787262,186.396790 20.862896,182.248978 19.974348,177.452805 
	C18.881342,171.552994 17.522772,165.702576 16.415499,159.805191 
	C15.582126,155.366623 14.437326,150.893829 14.385121,146.425125 
	C14.322206,141.039703 18.802074,137.990845 22.030468,134.311569 
	C23.763695,132.336273 25.824717,129.659134 25.814804,127.306786 
	C25.757006,113.591835 27.114243,100.080399 29.987230,86.685730 
	C33.898869,68.448586 41.328415,51.908226 54.291275,38.330093 
	C64.855141,27.264824 77.804405,19.725088 92.362854,15.030468 
	C98.989449,12.893611 105.891922,11.446869 112.254013,8.718740 
	C115.930031,7.142427 118.778877,3.637125 122.000000,1.000002 
	C126.689255,1.000000 131.378510,1.000000 136.199677,1.238946 
	C142.877441,8.157497 151.336441,10.741207 160.076172,13.098038 
	C182.775681,19.219383 201.765579,30.867586 214.656906,51.149746 
	C227.865967,71.931793 232.460114,95.123589 232.808746,119.239388 
	C232.921677,127.050400 234.385208,133.271530 240.657425,138.321747 
	C244.226822,141.195709 245.287308,145.351883 244.239532,150.150269 
	C242.576355,157.766922 241.299103,165.472260 240.017426,173.166550 
	C238.711334,181.007294 235.883057,187.377289 227.547714,190.379791 
	C225.501053,191.117035 224.064789,194.572968 223.142029,197.072205 
	C222.442215,198.967590 223.003296,201.328506 223.003296,203.487564 
	C227.821350,204.944473 231.809235,207.153946 231.951141,212.642624 
	C232.140472,219.966522 232.120941,227.301880 231.950333,234.626709 
	C231.849960,238.935822 228.964798,241.712448 225.216095,242.800949 
	C212.857132,246.389603 206.360291,241.645294 205.910324,229.144150 
	C205.900482,228.870224 205.618866,228.606064 205.269226,227.999283 
	C202.831238,227.999283 200.156509,228.285141 197.568939,227.932083 
	C193.715881,227.406326 191.641830,228.766983 190.342178,232.467850 
	C188.408524,237.973969 184.632736,241.989639 179.001862,243.991013 
	C168.623413,247.679840 158.223907,251.309906 147.865997,255.055206 
	C147.108612,255.329056 146.615814,256.334625 146.000000,257.000000 
	C144.611115,257.000000 143.222214,257.000000 141.502274,256.774170 
	C140.780807,256.698883 140.390411,256.849426 140.000000,257.000000 
	C133.312347,257.000000 126.624710,257.000000 119.288437,256.841125 
	C118.426544,256.788177 118.213272,256.894104 118.000000,257.000000 
M119.463654,113.973984 
	C123.397774,117.022942 127.331902,120.071892 131.017059,122.927895 
	C139.263306,109.639931 153.390778,103.911392 170.335800,106.203232 
	C184.684036,108.143845 193.797531,117.494759 198.536270,130.750397 
	C201.456512,130.750397 204.075409,130.750397 206.000732,130.750397 
	C206.000732,128.553986 206.179092,126.585670 205.971588,124.658913 
	C204.690491,112.763809 204.232193,100.686867 201.782578,89.031403 
	C197.480591,68.562378 185.923706,52.990627 166.498047,44.231445 
	C146.608658,35.263153 125.935875,34.564838 104.905396,39.546474 
	C88.409721,43.453934 75.180855,52.348629 66.214638,66.660706 
	C57.104763,81.202072 54.329048,97.795990 53.062164,114.614594 
	C52.659836,119.955757 52.999271,125.352783 52.999271,130.855682 
	C55.319088,130.855682 57.947765,130.855682 60.529575,130.855682 
	C68.743668,105.357277 98.210701,98.561005 119.463654,113.973984 
M108.279404,206.229843 
	C111.428055,202.026016 115.533897,200.563492 120.813095,200.902451 
	C127.286041,201.318069 133.806015,200.993942 140.305634,201.003586 
	C147.743820,201.014618 151.971619,205.180603 151.997086,212.511307 
	C152.005493,214.935196 151.998413,217.359146 151.998413,219.863068 
	C163.963684,219.863068 175.264404,219.863068 187.177353,219.863068 
	C191.433075,206.822083 196.313446,193.886780 199.810013,180.587646 
	C203.349182,167.126450 206.539520,153.438324 205.918350,138.994614 
	C200.746201,138.994614 196.114243,138.994614 191.557388,138.994614 
	C186.821701,121.273132 175.647141,114.545357 162.415833,114.825859 
	C145.244843,115.189880 129.191086,132.306030 134.786377,153.291550 
	C137.432053,163.214233 144.600128,168.852615 153.884567,171.824783 
	C157.433228,172.960785 158.686813,174.951294 157.840469,177.945602 
	C156.884918,181.326218 154.031876,181.601974 150.984818,180.514893 
	C142.184250,177.375107 134.415558,172.873093 129.509384,164.171341 
	C124.630005,172.930405 116.692184,177.419937 107.817444,180.622009 
	C104.981743,181.645126 102.190987,181.228821 101.213081,178.200668 
	C100.271744,175.285736 101.246758,172.982895 104.863029,171.893829 
	C117.171616,168.186981 125.971649,157.786758 125.291214,143.209808 
	C124.805710,132.808914 117.045128,120.670891 105.936798,116.571449 
	C96.351181,113.033951 83.309349,113.671028 75.586075,123.148804 
	C71.894028,127.679596 69.623535,133.368774 66.358200,139.155243 
	C62.623356,139.155243 58.008041,139.155243 53.446957,139.155243 
	C51.585400,154.650192 58.584957,183.779144 72.700401,219.782257 
	C83.999718,219.782257 95.279655,219.782257 106.449509,219.782257 
	C106.985413,215.365616 107.493401,211.179108 108.279404,206.229843 
M140.053421,15.556063 
	C138.013107,14.189686 135.992142,12.793228 133.927734,11.464288 
	C131.132904,9.665158 128.203461,8.798909 125.350746,11.210862 
	C118.264359,17.202391 109.653992,19.643711 100.965744,22.017141 
	C80.125053,27.710344 62.819862,38.559483 51.302399,57.282200 
	C39.400414,76.629982 35.251034,98.173645 35.164375,120.494888 
	C35.128433,129.753372 33.859440,137.772385 25.961056,143.625214 
	C23.800661,145.226089 23.061911,147.231339 23.833281,150.346176 
	C25.676725,157.790115 26.669344,165.440369 28.244051,172.957352 
	C28.895412,176.066666 29.405069,179.291641 32.963184,181.034897 
	C43.509716,186.202011 46.469093,192.161636 44.645435,203.753372 
	C53.347458,205.807388 53.425510,212.680130 53.001835,219.793655 
	C56.534187,219.793655 59.625904,219.793655 62.900448,219.793655 
	C59.639587,210.263077 55.775654,201.098648 53.409676,191.562561 
	C49.737740,176.762772 45.536175,161.824158 44.422825,146.733139 
	C43.225864,130.508881 44.399151,113.935448 46.230530,97.705330 
	C48.624321,76.490944 56.900082,57.659233 74.425529,44.131180 
	C86.726318,34.636086 100.868599,29.227421 116.238731,28.197630 
	C126.593170,27.503891 137.116821,28.173559 147.485046,29.113022 
	C164.147797,30.622826 178.682678,37.727070 190.554031,49.266586 
	C205.684097,63.973713 211.725586,83.162827 213.838989,103.526711 
	C215.051468,115.209579 214.806854,127.056488 214.962891,138.832932 
	C215.161469,153.820251 212.287415,168.382492 208.033859,182.670273 
	C204.340027,195.077927 200.343582,207.395493 196.475632,219.769608 
	C199.403244,219.769608 202.506500,219.769608 206.034271,219.769608 
	C205.447601,212.380249 205.686493,205.439972 214.629425,203.594376 
	C212.852753,194.156082 215.616440,183.804428 225.501816,180.841644 
	C227.395615,180.274033 229.299866,177.378922 229.876541,175.206482 
	C231.888565,167.626892 233.404694,159.910049 234.931885,152.210175 
	C235.553162,149.077835 236.306229,145.740402 232.914978,143.413696 
	C224.999405,137.982956 223.903122,129.799194 224.003494,121.153023 
	C224.179825,105.964958 221.567780,91.176323 216.886093,76.818390 
	C208.391663,50.767475 190.864777,33.310417 165.149658,24.080969 
	C157.069183,21.180796 148.856079,18.650196 140.053421,15.556063 
M117.500000,227.999283 
	C104.092270,227.999283 90.684532,227.999283 77.276802,227.999283 
	C77.037743,228.387405 76.798683,228.775513 76.559624,229.163635 
	C78.273071,230.868851 79.706902,233.114319 81.754425,234.174088 
	C87.075546,236.928238 92.560425,239.444992 98.172516,241.540878 
	C108.456406,245.381485 118.945641,248.637421 130.113266,248.335327 
	C146.921051,247.880630 162.109802,241.744949 176.888474,234.457611 
	C179.084473,233.374771 180.642471,230.998093 182.495636,229.219986 
	C182.232208,228.813080 181.968781,228.406189 181.705353,227.999283 
	C160.636902,227.999283 139.568451,227.999283 117.500000,227.999283 
M115.016983,218.484741 
	C115.522461,218.979446 116.023827,219.900574 116.534027,219.905487 
	C125.596664,219.992844 134.660370,219.968842 143.675034,219.968842 
	C144.461731,210.817169 142.820465,209.001083 134.223892,208.999390 
	C130.747223,208.998703 127.270538,208.994095 123.793877,209.000381 
	C116.835358,209.012970 115.116005,210.694778 115.016983,218.484741 
M45.000740,222.553650 
	C44.995152,220.559601 45.608509,218.263535 44.821537,216.650787 
	C43.913033,214.789017 41.972897,212.638580 40.115635,212.215271 
	C37.243229,211.560593 35.210926,213.764252 35.066982,216.747345 
	C34.850986,221.223633 34.872162,225.723694 35.057564,230.202667 
	C35.182430,233.219299 37.081299,235.005890 40.110771,234.938141 
	C43.140621,234.870377 44.831459,233.023438 44.977001,229.979904 
	C45.080074,227.824493 44.999397,225.660278 45.000740,222.553650 
M219.419800,234.991714 
	C220.943863,233.380249 223.523315,231.921539 223.783051,230.127075 
	C224.420395,225.723862 224.226395,221.149475 223.917343,216.674988 
	C223.631104,212.530762 218.812500,210.224792 216.128052,213.118149 
	C211.707291,217.882858 214.717255,224.120819 214.070770,229.672791 
	C213.719437,232.690018 215.596817,234.475082 219.419800,234.991714 
z"/>
<path fill="none" opacity="1.000000" stroke="none" 
	d="
M121.531342,1.000002 
	C118.778877,3.637125 115.930031,7.142427 112.254013,8.718740 
	C105.891922,11.446869 98.989449,12.893611 92.362854,15.030468 
	C77.804405,19.725088 64.855141,27.264824 54.291275,38.330093 
	C41.328415,51.908226 33.898869,68.448586 29.987230,86.685730 
	C27.114243,100.080399 25.757006,113.591835 25.814804,127.306786 
	C25.824717,129.659134 23.763695,132.336273 22.030468,134.311569 
	C18.802074,137.990845 14.322206,141.039703 14.385121,146.425125 
	C14.437326,150.893829 15.582126,155.366623 16.415499,159.805191 
	C17.522772,165.702576 18.881342,171.552994 19.974348,177.452805 
	C20.862896,182.248978 22.787262,186.396790 27.598598,188.099792 
	C35.182598,190.784195 37.327206,196.053680 35.652058,203.489594 
	C28.553679,205.968765 27.001295,208.209549 27.000826,216.112289 
	C27.000479,221.944885 26.948206,227.778107 27.016233,233.609909 
	C27.080215,239.094742 30.816874,242.849701 36.236984,242.991440 
	C38.068836,243.039352 39.902992,243.000351 41.736095,242.999054 
	C49.890762,242.993256 52.941341,239.916458 52.998539,231.637344 
	C53.005398,230.644730 52.999474,229.652008 52.999474,228.329468 
	C57.572918,228.329468 61.997616,228.329468 66.936272,228.329468 
	C69.976814,242.936966 83.180305,245.345901 94.540771,249.929276 
	C100.775597,252.444717 107.291191,254.264236 113.340096,256.698792 
	C75.700081,257.000000 38.400166,257.000000 1.050125,257.000000 
	C1.050125,171.776489 1.050125,86.552940 1.050125,1.000000 
	C41.020290,1.000000 81.041489,1.000000 121.531342,1.000002 
z"/>
<path fill="none" opacity="1.000000" stroke="none" 
	d="
M146.468658,257.000000 
	C146.615814,256.334625 147.108612,255.329056 147.865997,255.055206 
	C158.223907,251.309906 168.623413,247.679840 179.001862,243.991013 
	C184.632736,241.989639 188.408524,237.973969 190.342178,232.467850 
	C191.641830,228.766983 193.715881,227.406326 197.568939,227.932083 
	C200.156509,228.285141 202.831238,227.999283 205.269226,227.999283 
	C205.618866,228.606064 205.900482,228.870224 205.910324,229.144150 
	C206.360291,241.645294 212.857132,246.389603 225.216095,242.800949 
	C228.964798,241.712448 231.849960,238.935822 231.950333,234.626709 
	C232.120941,227.301880 232.140472,219.966522 231.951141,212.642624 
	C231.809235,207.153946 227.821350,204.944473 223.003296,203.487564 
	C223.003296,201.328506 222.442215,198.967590 223.142029,197.072205 
	C224.064789,194.572968 225.501053,191.117035 227.547714,190.379791 
	C235.883057,187.377289 238.711334,181.007294 240.017426,173.166550 
	C241.299103,165.472260 242.576355,157.766922 244.239532,150.150269 
	C245.287308,145.351883 244.226822,141.195709 240.657425,138.321747 
	C234.385208,133.271530 232.921677,127.050400 232.808746,119.239388 
	C232.460114,95.123589 227.865967,71.931793 214.656906,51.149746 
	C201.765579,30.867586 182.775681,19.219383 160.076172,13.098038 
	C151.336441,10.741207 142.877441,8.157497 136.665802,1.238946 
	C176.964035,1.000000 216.928085,1.000000 256.946045,1.000000 
	C256.946045,86.220619 256.946045,171.441284 256.946045,257.000000 
	C220.313126,257.000000 183.625229,257.000000 146.468658,257.000000 
z"/>
<path fill="none" opacity="1.000000" stroke="none" 
	d="
M118.250000,257.000000 
	C118.213272,256.894104 118.426544,256.788177 118.819908,256.841125 
	C119.000000,257.000000 118.500000,257.000000 118.250000,257.000000 
z"/>
<path fill="none" opacity="1.000000" stroke="none" 
	d="
M140.250000,257.000000 
	C140.390411,256.849426 140.780807,256.698883 141.085602,256.774170 
	C141.000000,257.000000 140.500000,257.000000 140.250000,257.000000 
z"/>
<path fill="none" opacity="1.000000" stroke="none" 
	d="
M119.213028,113.710541 
	C98.210701,98.561005 68.743668,105.357277 60.529575,130.855682 
	C57.947765,130.855682 55.319088,130.855682 52.999271,130.855682 
	C52.999271,125.352783 52.659836,119.955757 53.062164,114.614594 
	C54.329048,97.795990 57.104763,81.202072 66.214638,66.660706 
	C75.180855,52.348629 88.409721,43.453934 104.905396,39.546474 
	C125.935875,34.564838 146.608658,35.263153 166.498047,44.231445 
	C185.923706,52.990627 197.480591,68.562378 201.782578,89.031403 
	C204.232193,100.686867 204.690491,112.763809 205.971588,124.658913 
	C206.179092,126.585670 206.000732,128.553986 206.000732,130.750397 
	C204.075409,130.750397 201.456512,130.750397 198.536270,130.750397 
	C193.797531,117.494759 184.684036,108.143845 170.335800,106.203232 
	C153.390778,103.911392 139.263306,109.639931 131.017059,122.927895 
	C127.331902,120.071892 123.397774,117.022942 119.213028,113.710541 
z"/>
<path fill="none" opacity="1.000000" stroke="none" 
	d="
M108.140396,206.611221 
	C107.493401,211.179108 106.985413,215.365616 106.449509,219.782257 
	C95.279655,219.782257 83.999718,219.782257 72.700401,219.782257 
	C58.584957,183.779144 51.585400,154.650192 53.446957,139.155243 
	C58.008041,139.155243 62.623356,139.155243 66.358200,139.155243 
	C69.623535,133.368774 71.894028,127.679596 75.586075,123.148804 
	C83.309349,113.671028 96.351181,113.033951 105.936798,116.571449 
	C117.045128,120.670891 124.805710,132.808914 125.291214,143.209808 
	C125.971649,157.786758 117.171616,168.186981 104.863029,171.893829 
	C101.246758,172.982895 100.271744,175.285736 101.213081,178.200668 
	C102.190987,181.228821 104.981743,181.645126 107.817444,180.622009 
	C116.692184,177.419937 124.630005,172.930405 129.509384,164.171341 
	C134.415558,172.873093 142.184250,177.375107 150.984818,180.514893 
	C154.031876,181.601974 156.884918,181.326218 157.840469,177.945602 
	C158.686813,174.951294 157.433228,172.960785 153.884567,171.824783 
	C144.600128,168.852615 137.432053,163.214233 134.786377,153.291550 
	C129.191086,132.306030 145.244843,115.189880 162.415833,114.825859 
	C175.647141,114.545357 186.821701,121.273132 191.557388,138.994614 
	C196.114243,138.994614 200.746201,138.994614 205.918350,138.994614 
	C206.539520,153.438324 203.349182,167.126450 199.810013,180.587646 
	C196.313446,193.886780 191.433075,206.822083 187.177353,219.863068 
	C175.264404,219.863068 163.963684,219.863068 151.998413,219.863068 
	C151.998413,217.359146 152.005493,214.935196 151.997086,212.511307 
	C151.971619,205.180603 147.743820,201.014618 140.305634,201.003586 
	C133.806015,200.993942 127.286041,201.318069 120.813095,200.902451 
	C115.533897,200.563492 111.428055,202.026016 108.140396,206.611221 
M103.046844,164.973877 
	C104.180344,164.339905 105.298271,163.676010 106.449799,163.076675 
	C115.873337,158.172028 118.459770,144.747742 114.280067,135.749741 
	C109.239319,124.898071 98.646538,121.702896 88.115326,124.889648 
	C75.512413,128.703293 71.497292,140.291122 74.858055,151.810883 
	C78.283623,163.552780 90.122375,168.933777 103.046844,164.973877 
M147.975418,159.459167 
	C153.928085,166.175079 161.977753,167.753235 169.770645,165.561035 
	C183.398483,161.727402 187.492584,150.776398 184.355301,138.842163 
	C180.882706,125.632416 169.364578,121.739258 157.416183,124.705856 
	C143.950500,128.049164 137.679901,145.784286 147.975418,159.459167 
M119.097015,195.994904 
	C121.743568,194.143753 124.255913,192.034485 127.096939,190.557388 
	C128.392563,189.883759 130.644119,189.895004 131.919586,190.590530 
	C134.172028,191.818787 135.793777,194.287750 138.091599,195.320740 
	C139.772980,196.076614 142.435730,195.954590 144.039261,195.081680 
	C144.978561,194.570358 145.178650,191.727615 144.868240,190.093826 
	C144.192459,186.536896 131.562241,178.506073 127.931435,179.014694 
	C127.301048,179.102997 126.546143,179.139435 126.090027,179.502747 
	C122.351677,182.480606 118.453575,185.313995 115.096161,188.681900 
	C114.003983,189.777496 113.863609,192.448593 114.277306,194.159897 
	C114.490822,195.043167 116.873680,195.402008 119.097015,195.994904 
z"/>
<path fill="none" opacity="1.000000" stroke="none" 
	d="
M140.378540,15.753253 
	C148.856079,18.650196 157.069183,21.180796 165.149658,24.080969 
	C190.864777,33.310417 208.391663,50.767475 216.886093,76.818390 
	C221.567780,91.176323 224.179825,105.964958 224.003494,121.153023 
	C223.903122,129.799194 224.999405,137.982956 232.914978,143.413696 
	C236.306229,145.740402 235.553162,149.077835 234.931885,152.210175 
	C233.404694,159.910049 231.888565,167.626892 229.876541,175.206482 
	C229.299866,177.378922 227.395615,180.274033 225.501816,180.841644 
	C215.616440,183.804428 212.852753,194.156082 214.629425,203.594376 
	C205.686493,205.439972 205.447601,212.380249 206.034271,219.769608 
	C202.506500,219.769608 199.403244,219.769608 196.475632,219.769608 
	C200.343582,207.395493 204.340027,195.077927 208.033859,182.670273 
	C212.287415,168.382492 215.161469,153.820251 214.962891,138.832932 
	C214.806854,127.056488 215.051468,115.209579 213.838989,103.526711 
	C211.725586,83.162827 205.684097,63.973713 190.554031,49.266586 
	C178.682678,37.727070 164.147797,30.622826 147.485046,29.113022 
	C137.116821,28.173559 126.593170,27.503891 116.238731,28.197630 
	C100.868599,29.227421 86.726318,34.636086 74.425529,44.131180 
	C56.900082,57.659233 48.624321,76.490944 46.230530,97.705330 
	C44.399151,113.935448 43.225864,130.508881 44.422825,146.733139 
	C45.536175,161.824158 49.737740,176.762772 53.409676,191.562561 
	C55.775654,201.098648 59.639587,210.263077 62.900448,219.793655 
	C59.625904,219.793655 56.534187,219.793655 53.001835,219.793655 
	C53.425510,212.680130 53.347458,205.807388 44.645435,203.753372 
	C46.469093,192.161636 43.509716,186.202011 32.963184,181.034897 
	C29.405069,179.291641 28.895412,176.066666 28.244051,172.957352 
	C26.669344,165.440369 25.676725,157.790115 23.833281,150.346176 
	C23.061911,147.231339 23.800661,145.226089 25.961056,143.625214 
	C33.859440,137.772385 35.128433,129.753372 35.164375,120.494888 
	C35.251034,98.173645 39.400414,76.629982 51.302399,57.282200 
	C62.819862,38.559483 80.125053,27.710344 100.965744,22.017141 
	C109.653992,19.643711 118.264359,17.202391 125.350746,11.210862 
	C128.203461,8.798909 131.132904,9.665158 133.927734,11.464288 
	C135.992142,12.793228 138.013107,14.189686 140.378540,15.753253 
z"/>
<path fill="none" opacity="1.000000" stroke="none" 
	d="
M118.000000,227.999283 
	C139.568451,227.999283 160.636902,227.999283 181.705353,227.999283 
	C181.968781,228.406189 182.232208,228.813080 182.495636,229.219986 
	C180.642471,230.998093 179.084473,233.374771 176.888474,234.457611 
	C162.109802,241.744949 146.921051,247.880630 130.113266,248.335327 
	C118.945641,248.637421 108.456406,245.381485 98.172516,241.540878 
	C92.560425,239.444992 87.075546,236.928238 81.754425,234.174088 
	C79.706902,233.114319 78.273071,230.868851 76.559624,229.163635 
	C76.798683,228.775513 77.037743,228.387405 77.276802,227.999283 
	C90.684532,227.999283 104.092270,227.999283 118.000000,227.999283 
z"/>
<path fill="none" opacity="1.000000" stroke="none" 
	d="
M115.009338,218.035446 
	C115.116005,210.694778 116.835358,209.012970 123.793877,209.000381 
	C127.270538,208.994095 130.747223,208.998703 134.223892,208.999390 
	C142.820465,209.001083 144.461731,210.817169 143.675034,219.968842 
	C134.660370,219.968842 125.596664,219.992844 116.534027,219.905487 
	C116.023827,219.900574 115.522461,218.979446 115.009338,218.035446 
z"/>
<path fill="none" opacity="1.000000" stroke="none" 
	d="
M45.000740,223.026825 
	C44.999397,225.660278 45.080074,227.824493 44.977001,229.979904 
	C44.831459,233.023438 43.140621,234.870377 40.110771,234.938141 
	C37.081299,235.005890 35.182430,233.219299 35.057564,230.202667 
	C34.872162,225.723694 34.850986,221.223633 35.066982,216.747345 
	C35.210926,213.764252 37.243229,211.560593 40.115635,212.215271 
	C41.972897,212.638580 43.913033,214.789017 44.821537,216.650787 
	C45.608509,218.263535 44.995152,220.559601 45.000740,223.026825 
z"/>
<path fill="none" opacity="1.000000" stroke="none" 
	d="
M219.003784,234.991837 
	C215.596817,234.475082 213.719437,232.690018 214.070770,229.672791 
	C214.717255,224.120819 211.707291,217.882858 216.128052,213.118149 
	C218.812500,210.224792 223.631104,212.530762 223.917343,216.674988 
	C224.226395,221.149475 224.420395,225.723862 223.783051,230.127075 
	C223.523315,231.921539 220.943863,233.380249 219.003784,234.991837 
z"/>
<path fill="#F1C40F" opacity="1.000000" stroke="none" 
	d="
M102.639221,165.037048 
	C90.122375,168.933777 78.283623,163.552780 74.858055,151.810883 
	C71.497292,140.291122 75.512413,128.703293 88.115326,124.889648 
	C98.646538,121.702896 109.239319,124.898071 114.280067,135.749741 
	C118.459770,144.747742 115.873337,158.172028 106.449799,163.076675 
	C105.298271,163.676010 104.180344,164.339905 102.639221,165.037048 
M87.767578,135.039749 
	C84.479607,137.650589 83.106766,140.923859 82.853340,145.243118 
	C82.542969,150.532730 87.224472,155.784149 91.695938,156.900742 
	C97.762711,158.415710 103.204185,155.752914 106.123856,150.182053 
	C108.223167,146.176483 106.937241,139.191528 103.518829,136.031906 
	C99.523201,132.338760 93.244110,131.861588 87.767578,135.039749 
z"/>
<path fill="#F1C40F" opacity="1.000000" stroke="none" 
	d="
M147.708633,159.202148 
	C137.679901,145.784286 143.950500,128.049164 157.416183,124.705856 
	C169.364578,121.739258 180.882706,125.632416 184.355301,138.842163 
	C187.492584,150.776398 183.398483,161.727402 169.770645,165.561035 
	C161.977753,167.753235 153.928085,166.175079 147.708633,159.202148 
M175.987762,147.938873 
	C175.992340,146.774185 175.818542,145.575562 176.032532,144.450714 
	C176.938461,139.688354 171.492157,133.906158 167.015900,133.043564 
	C160.452621,131.778763 154.228119,135.169861 152.240128,140.931870 
	C150.491776,145.999329 152.756882,152.214783 157.395126,155.077026 
	C164.670593,159.566742 170.609314,157.538910 175.987762,147.938873 
z"/>
<path fill="#F1C40F" opacity="1.000000" stroke="none" 
	d="
M118.686684,195.996368 
	C116.873680,195.402008 114.490822,195.043167 114.277306,194.159897 
	C113.863609,192.448593 114.003983,189.777496 115.096161,188.681900 
	C118.453575,185.313995 122.351677,182.480606 126.090027,179.502747 
	C126.546143,179.139435 127.301048,179.102997 127.931435,179.014694 
	C131.562241,178.506073 144.192459,186.536896 144.868240,190.093826 
	C145.178650,191.727615 144.978561,194.570358 144.039261,195.081680 
	C142.435730,195.954590 139.772980,196.076614 138.091599,195.320740 
	C135.793777,194.287750 134.172028,191.818787 131.919586,190.590530 
	C130.644119,189.895004 128.392563,189.883759 127.096939,190.557388 
	C124.255913,192.034485 121.743568,194.143753 118.686684,195.996368 
z"/>
<path fill="none" opacity="1.000000" stroke="none" 
	d="
M88.157684,134.966980 
	C93.244110,131.861588 99.523201,132.338760 103.518829,136.031906 
	C106.937241,139.191528 108.223167,146.176483 106.123856,150.182053 
	C103.204185,155.752914 97.762711,158.415710 91.695938,156.900742 
	C87.224472,155.784149 82.542969,150.532730 82.853340,145.243118 
	C83.106766,140.923859 84.479607,137.650589 88.157684,134.966980 
M91.503975,150.075226 
	C92.243782,150.380585 93.140160,151.118088 93.696327,150.916595 
	C96.116165,150.039841 99.653870,149.450760 100.466499,147.688065 
	C101.357262,145.755905 100.520180,141.663498 98.921341,140.333954 
	C97.348312,139.025864 92.997528,138.963913 91.474792,140.254227 
	C89.814491,141.661087 89.903885,145.233841 89.463600,147.900909 
	C89.366402,148.489670 90.248268,149.240051 91.503975,150.075226 
z"/>
<path fill="none" opacity="1.000000" stroke="none" 
	d="
M175.940613,148.349747 
	C170.609314,157.538910 164.670593,159.566742 157.395126,155.077026 
	C152.756882,152.214783 150.491776,145.999329 152.240128,140.931870 
	C154.228119,135.169861 160.452621,131.778763 167.015900,133.043564 
	C171.492157,133.906158 176.938461,139.688354 176.032532,144.450714 
	C175.818542,145.575562 175.992340,146.774185 175.940613,148.349747 
M168.331146,140.086121 
	C165.269775,140.260803 161.797043,139.655350 159.329620,140.956421 
	C158.185120,141.559921 158.112869,146.356308 159.202637,148.351868 
	C160.068985,149.938263 163.464600,150.897659 165.694290,150.824524 
	C170.020050,150.682648 171.190704,146.513092 168.331146,140.086121 
z"/>
<path fill="#F1C40F" opacity="1.000000" stroke="none" 
	d="
M91.091637,149.995621 
	C90.248268,149.240051 89.366402,148.489670 89.463600,147.900909 
	C89.903885,145.233841 89.814491,141.661087 91.474792,140.254227 
	C92.997528,138.963913 97.348312,139.025864 98.921341,140.333954 
	C100.520180,141.663498 101.357262,145.755905 100.466499,147.688065 
	C99.653870,149.450760 96.116165,150.039841 93.696327,150.916595 
	C93.140160,151.118088 92.243782,150.380585 91.091637,149.995621 
z"/>
<path fill="#F1C40F" opacity="1.000000" stroke="none" 
	d="
M168.623962,140.384674 
	C171.190704,146.513092 170.020050,150.682648 165.694290,150.824524 
	C163.464600,150.897659 160.068985,149.938263 159.202637,148.351868 
	C158.112869,146.356308 158.185120,141.559921 159.329620,140.956421 
	C161.797043,139.655350 165.269775,140.260803 168.623962,140.384674 
z"/>
</svg>