<svg version="1.1" id="Layer_1" xmlns="http://www.w3.org/2000/svg" xmlns:xlink="http://www.w3.org/1999/xlink" x="0px" y="0px"
	 width="100%" viewBox="0 0 256 256" enable-background="new 0 0 256 256" xml:space="preserve">
<path fill="#F1C40F" opacity="1.000000" stroke="none" 
	d="
M86.000000,257.000000 
	C78.979050,257.000000 71.958107,257.000000 64.805984,256.726257 
	C62.842731,255.513809 60.956089,254.667496 59.186867,253.622406 
	C36.971848,240.500198 20.452158,222.299973 11.660151,197.931168 
	C8.283256,188.571411 8.339281,178.583771 13.291178,169.225754 
	C15.119346,165.770920 16.727833,162.158966 18.034472,158.476028 
	C23.996834,141.670364 25.410728,124.289330 25.141163,106.548737 
	C24.943832,93.562256 23.951658,80.523827 26.921001,67.562134 
	C34.008106,36.625694 59.765472,10.209177 90.642929,2.945591 
	C91.531982,2.736451 92.218857,1.667855 93.000000,1.000000 
	C117.020897,1.000000 141.041794,1.000000 165.191406,1.300063 
	C167.083893,2.278006 168.801361,3.133837 170.618515,3.606501 
	C190.863831,8.872571 206.673126,20.829462 218.569061,37.470139 
	C228.772720,51.743580 234.355255,68.025909 234.033081,85.970863 
	C233.847870,96.286789 233.489670,106.641174 234.143082,116.918884 
	C234.794540,127.166153 235.897873,137.499664 238.141968,147.494766 
	C239.976242,155.664459 243.661224,163.438797 246.740921,171.304138 
	C251.716827,184.012299 249.588791,196.296555 243.458481,207.679367 
	C239.236725,215.518326 233.450043,222.581879 227.886536,229.615265 
	C219.227325,240.562241 209.400452,250.217377 195.853378,255.137589 
	C195.402863,255.301224 195.277115,256.359009 195.000000,257.000000 
	C187.979050,257.000000 180.958099,257.000000 173.288818,256.840515 
	C172.426987,256.787354 172.213486,256.893677 172.000000,257.000000 
	C171.250000,257.000000 170.500000,257.000000 169.712891,256.723053 
	C163.767288,253.540649 157.805649,250.737701 151.961838,247.707504 
	C141.156540,242.104614 129.710678,239.345215 118.017754,243.239807 
	C108.384041,246.448517 99.326752,251.390335 90.041199,255.623749 
	C89.856674,255.707870 90.006279,256.524902 90.000000,257.000000 
	C89.250000,257.000000 88.500000,257.000000 87.460754,256.773987 
	C86.781006,256.698608 86.390503,256.849304 86.000000,257.000000 
M142.035049,77.468315 
	C139.577927,73.038322 136.738876,68.763206 134.848969,64.103180 
	C134.077728,62.201473 134.594269,58.166168 135.886353,57.401264 
	C138.044525,56.123627 140.935287,56.558517 142.662888,59.999584 
	C145.958450,66.563751 149.932098,72.787369 153.621613,79.153893 
	C157.478210,85.808723 157.476868,85.809509 165.924744,84.408195 
	C164.303909,81.497650 162.735748,78.659691 161.146683,75.833511 
	C158.909439,71.854507 156.259323,68.041367 154.596466,63.836689 
	C153.881897,62.029861 154.498550,58.149799 155.754333,57.452747 
	C157.943771,56.237473 160.773773,56.392231 162.576935,59.900928 
	C166.903793,68.320396 171.846207,76.423508 176.594696,84.749786 
	C192.449051,84.749786 208.545990,84.749786 225.483444,84.749786 
	C224.789429,79.919571 224.413696,75.385773 223.456360,70.978302 
	C219.592163,53.187954 210.199249,38.628864 196.402069,27.024916 
	C185.081238,17.503672 171.842636,11.408846 157.100861,10.179882 
	C143.084671,9.011407 128.942596,9.043826 114.859146,9.123973 
	C108.028534,9.162845 101.014160,9.756644 94.412743,11.413265 
	C68.842804,17.830021 50.510223,33.228424 39.982967,57.492641 
	C36.247688,66.102074 33.446304,75.047729 34.107319,84.721497 
	C64.938759,84.721497 95.289764,84.721497 126.096893,84.721497 
	C124.296829,81.487518 122.730560,78.650208 121.142105,75.825386 
	C118.904747,71.846550 116.252686,68.034393 114.590637,63.829720 
	C113.877220,62.024906 114.502899,58.147148 115.762283,57.447689 
	C117.958031,56.228191 120.822479,56.376965 122.584526,59.908894 
	C125.862511,66.479439 130.608017,72.388748 133.339233,79.140968 
	C135.997818,85.713577 140.271347,85.625580 145.903778,84.583832 
	C144.739136,82.321960 143.635178,80.177979 142.035049,77.468315 
M147.499191,191.997986 
	C135.168030,181.219086 126.169250,180.561996 113.594170,190.047363 
	C110.298927,192.532974 107.295921,195.423096 104.273445,198.250122 
	C93.697540,208.142181 80.029289,209.990784 69.108269,203.529984 
	C58.569256,197.295197 49.994923,188.749893 43.050037,178.754059 
	C37.810295,171.212448 33.279049,163.178574 28.773108,155.913086 
	C26.650782,161.235535 24.862465,167.321625 21.899265,172.768570 
	C17.671520,180.540024 17.594391,188.284821 20.638092,196.112228 
	C28.336248,215.909424 41.811932,231.139786 59.183910,242.970947 
	C68.881828,249.575729 79.598640,249.879379 90.286667,245.779984 
	C96.029900,243.577164 101.358086,240.302246 106.904243,237.573486 
	C117.790085,232.217545 129.424713,231.160629 140.849457,234.184052 
	C149.511398,236.476334 157.677658,240.773453 165.912781,244.512558 
	C175.517639,248.873566 185.412262,250.414520 194.880447,245.437363 
	C215.172546,234.770432 229.148941,218.033783 237.871643,197.036179 
	C239.701050,192.632385 240.998245,187.004913 239.903290,182.596390 
	C237.581558,173.248627 233.522583,164.332352 230.089249,155.003601 
	C229.648376,155.610245 229.294052,155.951889 229.112381,156.368790 
	C221.678741,173.427261 210.692963,187.748398 196.147491,199.361832 
	C184.630325,208.557404 172.235275,209.868484 161.170700,202.922607 
	C156.459122,199.964890 152.374573,196.008347 147.499191,191.997986 
M42.933907,161.574783 
	C50.611286,175.246872 60.113686,187.208649 73.815620,195.436249 
	C80.544006,199.476440 87.102348,199.011902 93.299408,194.939194 
	C97.693352,192.051514 101.675758,188.466278 105.557556,184.884308 
	C116.222984,175.042633 128.568390,171.329865 141.928802,177.315964 
	C148.919327,180.448059 154.786057,186.313187 160.776031,191.396790 
	C168.275833,197.761765 177.355255,201.537979 187.135315,194.222183 
	C193.211899,189.676727 199.092392,184.660721 204.171188,179.050476 
	C208.905640,173.820618 212.463470,167.525574 216.539246,161.699417 
	C216.493790,161.289139 216.448334,160.878860 216.402863,160.468582 
	C208.881912,163.063156 208.539597,156.384735 205.408569,153.024307 
	C203.220901,154.472076 201.066345,155.897934 198.902405,157.329987 
	C200.612564,160.411301 202.578598,162.989517 203.443283,165.895462 
	C203.915466,167.482376 203.065369,170.509003 201.821564,171.271561 
	C200.529373,172.063766 197.688324,171.446655 196.179718,170.452118 
	C194.694427,169.472977 193.725983,167.359512 193.061966,165.548950 
	C190.843170,159.498917 186.597824,157.718460 180.442123,159.377899 
	C180.994095,160.684357 181.510834,162.195236 182.248245,163.589401 
	C183.547806,166.046371 185.560883,168.294083 186.179947,170.890549 
	C186.691132,173.034500 186.382034,176.854431 185.079651,177.618210 
	C182.892151,178.901062 179.673538,178.580383 178.352768,174.933578 
	C177.584747,172.813004 176.158997,170.925323 174.989624,168.956360 
	C170.870560,162.020828 167.609467,154.548447 159.250229,151.041382 
	C156.099319,149.719452 153.341446,146.575684 151.313293,143.635468 
	C146.103470,136.082825 139.672470,131.220673 130.087952,131.594437 
	C123.774025,131.840652 117.492920,131.891434 112.901031,137.440186 
	C109.536957,141.505264 106.184219,145.690536 102.228165,149.135132 
	C87.515869,161.945358 61.080910,164.559464 45.893353,145.977020 
	C39.732990,138.439621 35.545284,130.230179 33.270519,119.696457 
	C32.630890,133.231216 34.737171,146.914246 42.933907,161.574783 
M93.500000,111.999458 
	C76.395103,111.999458 59.290215,111.999458 41.616344,111.999458 
	C42.145336,115.543350 42.361370,118.473900 43.041656,121.292389 
	C46.055763,133.780106 52.975433,144.206680 64.879089,148.539124 
	C78.355675,153.444077 91.754326,149.485474 101.895790,136.248596 
	C105.822571,131.123291 109.685089,125.826767 116.244629,124.489998 
	C121.984222,123.320335 127.981934,123.212410 133.876526,123.061348 
	C140.851852,122.882591 147.008774,125.242897 151.876984,130.400177 
	C155.272751,133.997589 158.232300,138.069473 161.934067,141.302765 
	C170.548172,148.826706 180.351883,153.669037 192.045822,149.832748 
	C199.591705,147.357254 205.338974,141.824753 209.789032,135.379028 
	C214.518738,128.528275 217.267319,120.854904 216.878220,111.999458 
	C175.758255,111.999458 135.129135,111.999458 93.500000,111.999458 
M49.502098,104.000542 
	C78.538445,104.000542 107.574791,104.000542 137.243668,104.000542 
	C135.962769,101.712326 134.641495,100.136620 134.158356,98.336037 
	C132.905457,93.666534 129.967468,92.860245 125.486977,92.892563 
	C96.539459,93.101364 67.589706,92.999458 38.640682,92.999458 
	C36.867977,92.999458 35.095272,92.999458 33.302971,92.999458 
	C33.302971,96.944794 33.302971,100.334961 33.302971,104.000542 
	C38.570419,104.000542 43.537086,104.000542 49.502098,104.000542 
M186.004089,99.641319 
	C187.334442,101.092415 188.630630,103.764755 190.000504,103.803093 
	C201.880692,104.135452 213.774094,103.994621 225.714264,103.994621 
	C225.714264,100.075195 225.714264,96.691696 225.714264,93.281067 
	C211.142303,93.281067 196.858414,93.281067 182.121521,93.281067 
	C183.422546,95.468185 184.480713,97.247047 186.004089,99.641319 
M213.529816,148.025375 
	C215.108337,150.986359 216.686859,153.947357 218.338226,157.044998 
	C223.739578,147.952499 227.165482,128.852982 225.625900,121.912415 
	C224.058868,126.037621 222.599609,130.855164 220.424026,135.323959 
	C218.366730,139.549759 215.557098,143.409256 213.529816,148.025375 
M152.003586,94.065575 
	C148.887146,93.591415 145.770721,93.117256 142.118866,92.561630 
	C147.381393,104.189926 148.515884,104.980606 156.821686,103.347168 
	C155.307800,100.481880 153.812073,97.650940 152.003586,94.065575 
M174.051712,98.300957 
	C172.630508,91.252998 167.274887,92.996185 162.605804,93.154366 
	C166.264389,103.546059 168.777664,105.337715 176.847321,103.190262 
	C176.040359,101.760674 175.250641,100.361618 174.051712,98.300957 
z"/>
<path fill="none" opacity="1.000000" stroke="none" 
	d="
M92.531342,1.000000 
	C92.218857,1.667855 91.531982,2.736451 90.642929,2.945591 
	C59.765472,10.209177 34.008106,36.625694 26.921001,67.562134 
	C23.951658,80.523827 24.943832,93.562256 25.141163,106.548737 
	C25.410728,124.289330 23.996834,141.670364 18.034472,158.476028 
	C16.727833,162.158966 15.119346,165.770920 13.291178,169.225754 
	C8.339281,178.583771 8.283256,188.571411 11.660151,197.931168 
	C20.452158,222.299973 36.971848,240.500198 59.186867,253.622406 
	C60.956089,254.667496 62.842731,255.513809 64.337402,256.726257 
	C43.022369,257.000000 22.044739,257.000000 1.033554,257.000000 
	C1.033554,171.779938 1.033554,86.559868 1.033554,1.000000 
	C31.353382,1.000000 61.708035,1.000000 92.531342,1.000000 
z"/>
<path fill="none" opacity="1.000000" stroke="none" 
	d="
M195.468658,257.000000 
	C195.277115,256.359009 195.402863,255.301224 195.853378,255.137589 
	C209.400452,250.217377 219.227325,240.562241 227.886536,229.615265 
	C233.450043,222.581879 239.236725,215.518326 243.458481,207.679367 
	C249.588791,196.296555 251.716827,184.012299 246.740921,171.304138 
	C243.661224,163.438797 239.976242,155.664459 238.141968,147.494766 
	C235.897873,137.499664 234.794540,127.166153 234.143082,116.918884 
	C233.489670,106.641174 233.847870,96.286789 234.033081,85.970863 
	C234.355255,68.025909 228.772720,51.743580 218.569061,37.470139 
	C206.673126,20.829462 190.863831,8.872571 170.618515,3.606501 
	C168.801361,3.133837 167.083893,2.278006 165.660065,1.300063 
	C196.300858,1.000000 226.601730,1.000000 256.951294,1.000000 
	C256.951294,86.209480 256.951294,171.418991 256.951294,257.000000 
	C236.647278,257.000000 216.292297,257.000000 195.468658,257.000000 
z"/>
<path fill="none" opacity="1.000000" stroke="none" 
	d="
M90.468658,257.000000 
	C90.006279,256.524902 89.856674,255.707870 90.041199,255.623749 
	C99.326752,251.390335 108.384041,246.448517 118.017754,243.239807 
	C129.710678,239.345215 141.156540,242.104614 151.961838,247.707504 
	C157.805649,250.737701 163.767288,253.540649 169.337891,256.723053 
	C142.979111,257.000000 116.958214,257.000000 90.468658,257.000000 
z"/>
<path fill="none" opacity="1.000000" stroke="none" 
	d="
M86.250000,257.000000 
	C86.390503,256.849304 86.781006,256.698608 87.085754,256.773987 
	C87.000000,257.000000 86.500000,257.000000 86.250000,257.000000 
z"/>
<path fill="none" opacity="1.000000" stroke="none" 
	d="
M172.250000,257.000000 
	C172.213486,256.893677 172.426987,256.787354 172.820236,256.840515 
	C173.000000,257.000000 172.500000,257.000000 172.250000,257.000000 
z"/>
<path fill="none" opacity="1.000000" stroke="none" 
	d="
M142.283142,77.751160 
	C143.635178,80.177979 144.739136,82.321960 145.903778,84.583832 
	C140.271347,85.625580 135.997818,85.713577 133.339233,79.140968 
	C130.608017,72.388748 125.862511,66.479439 122.584526,59.908894 
	C120.822479,56.376965 117.958031,56.228191 115.762283,57.447689 
	C114.502899,58.147148 113.877220,62.024906 114.590637,63.829720 
	C116.252686,68.034393 118.904747,71.846550 121.142105,75.825386 
	C122.730560,78.650208 124.296829,81.487518 126.096893,84.721497 
	C95.289764,84.721497 64.938759,84.721497 34.107319,84.721497 
	C33.446304,75.047729 36.247688,66.102074 39.982967,57.492641 
	C50.510223,33.228424 68.842804,17.830021 94.412743,11.413265 
	C101.014160,9.756644 108.028534,9.162845 114.859146,9.123973 
	C128.942596,9.043826 143.084671,9.011407 157.100861,10.179882 
	C171.842636,11.408846 185.081238,17.503672 196.402069,27.024916 
	C210.199249,38.628864 219.592163,53.187954 223.456360,70.978302 
	C224.413696,75.385773 224.789429,79.919571 225.483444,84.749786 
	C208.545990,84.749786 192.449051,84.749786 176.594696,84.749786 
	C171.846207,76.423508 166.903793,68.320396 162.576935,59.900928 
	C160.773773,56.392231 157.943771,56.237473 155.754333,57.452747 
	C154.498550,58.149799 153.881897,62.029861 154.596466,63.836689 
	C156.259323,68.041367 158.909439,71.854507 161.146683,75.833511 
	C162.735748,78.659691 164.303909,81.497650 165.924744,84.408195 
	C157.476868,85.809509 157.478210,85.808723 153.621613,79.153893 
	C149.932098,72.787369 145.958450,66.563751 142.662888,59.999584 
	C140.935287,56.558517 138.044525,56.123627 135.886353,57.401264 
	C134.594269,58.166168 134.077728,62.201473 134.848969,64.103180 
	C136.738876,68.763206 139.577927,73.038322 142.283142,77.751160 
z"/>
<path fill="none" opacity="1.000000" stroke="none" 
	d="
M147.752136,192.251846 
	C152.374573,196.008347 156.459122,199.964890 161.170700,202.922607 
	C172.235275,209.868484 184.630325,208.557404 196.147491,199.361832 
	C210.692963,187.748398 221.678741,173.427261 229.112381,156.368790 
	C229.294052,155.951889 229.648376,155.610245 230.089249,155.003601 
	C233.522583,164.332352 237.581558,173.248627 239.903290,182.596390 
	C240.998245,187.004913 239.701050,192.632385 237.871643,197.036179 
	C229.148941,218.033783 215.172546,234.770432 194.880447,245.437363 
	C185.412262,250.414520 175.517639,248.873566 165.912781,244.512558 
	C157.677658,240.773453 149.511398,236.476334 140.849457,234.184052 
	C129.424713,231.160629 117.790085,232.217545 106.904243,237.573486 
	C101.358086,240.302246 96.029900,243.577164 90.286667,245.779984 
	C79.598640,249.879379 68.881828,249.575729 59.183910,242.970947 
	C41.811932,231.139786 28.336248,215.909424 20.638092,196.112228 
	C17.594391,188.284821 17.671520,180.540024 21.899265,172.768570 
	C24.862465,167.321625 26.650782,161.235535 28.773108,155.913086 
	C33.279049,163.178574 37.810295,171.212448 43.050037,178.754059 
	C49.994923,188.749893 58.569256,197.295197 69.108269,203.529984 
	C80.029289,209.990784 93.697540,208.142181 104.273445,198.250122 
	C107.295921,195.423096 110.298927,192.532974 113.594170,190.047363 
	C126.169250,180.561996 135.168030,181.219086 147.752136,192.251846 
M173.001343,225.708832 
	C171.741135,238.860886 183.168869,241.910126 191.350464,239.208527 
	C199.189774,236.619965 200.028519,229.235962 198.754822,223.031250 
	C197.708267,217.933029 194.403107,213.458694 184.572357,213.961365 
	C177.957489,214.299591 174.258392,217.586670 173.001343,225.708832 
M28.558336,175.961105 
	C26.680643,177.844376 24.268305,179.444901 23.079556,181.692551 
	C21.949995,183.828308 22.100052,186.640808 21.687454,189.155746 
	C24.203716,188.848679 27.058239,189.177673 29.147058,188.066833 
	C31.534248,186.797333 33.258198,184.264557 35.237350,182.248322 
	C37.270920,180.176651 39.124775,178.046875 36.575695,175.095718 
	C33.921356,172.022675 31.466097,173.153564 28.558336,175.961105 
M36.564194,187.956543 
	C34.443501,190.071625 32.335537,192.199677 30.198395,194.298019 
	C28.228125,196.232513 26.790194,198.908966 29.432613,200.540146 
	C31.246805,201.660065 34.711933,201.456299 36.777367,200.465195 
	C39.178528,199.312958 40.765900,196.552368 42.872017,194.675613 
	C45.510239,192.324707 46.052788,189.409058 44.090805,186.830399 
	C41.918320,183.975082 39.256008,185.246384 36.564194,187.956543 
M37.445255,213.240417 
	C43.364727,214.790543 52.913383,207.754959 52.996712,201.781891 
	C53.048794,198.048889 49.746887,195.781921 46.843491,198.034576 
	C43.077755,200.956299 39.758793,204.519302 36.617062,208.127975 
	C35.939232,208.906555 36.835739,211.055771 37.445255,213.240417 
z"/>
<path fill="none" opacity="1.000000" stroke="none" 
	d="
M42.703056,161.275909 
	C34.737171,146.914246 32.630890,133.231216 33.270519,119.696457 
	C35.545284,130.230179 39.732990,138.439621 45.893353,145.977020 
	C61.080910,164.559464 87.515869,161.945358 102.228165,149.135132 
	C106.184219,145.690536 109.536957,141.505264 112.901031,137.440186 
	C117.492920,131.891434 123.774025,131.840652 130.087952,131.594437 
	C139.672470,131.220673 146.103470,136.082825 151.313293,143.635468 
	C153.341446,146.575684 156.099319,149.719452 159.250229,151.041382 
	C167.609467,154.548447 170.870560,162.020828 174.989624,168.956360 
	C176.158997,170.925323 177.584747,172.813004 178.352768,174.933578 
	C179.673538,178.580383 182.892151,178.901062 185.079651,177.618210 
	C186.382034,176.854431 186.691132,173.034500 186.179947,170.890549 
	C185.560883,168.294083 183.547806,166.046371 182.248245,163.589401 
	C181.510834,162.195236 180.994095,160.684357 180.442123,159.377899 
	C186.597824,157.718460 190.843170,159.498917 193.061966,165.548950 
	C193.725983,167.359512 194.694427,169.472977 196.179718,170.452118 
	C197.688324,171.446655 200.529373,172.063766 201.821564,171.271561 
	C203.065369,170.509003 203.915466,167.482376 203.443283,165.895462 
	C202.578598,162.989517 200.612564,160.411301 198.902405,157.329987 
	C201.066345,155.897934 203.220901,154.472076 205.408569,153.024307 
	C208.539597,156.384735 208.881912,163.063156 216.402863,160.468582 
	C216.448334,160.878860 216.493790,161.289139 216.539246,161.699417 
	C212.463470,167.525574 208.905640,173.820618 204.171188,179.050476 
	C199.092392,184.660721 193.211899,189.676727 187.135315,194.222183 
	C177.355255,201.537979 168.275833,197.761765 160.776031,191.396790 
	C154.786057,186.313187 148.919327,180.448059 141.928802,177.315964 
	C128.568390,171.329865 116.222984,175.042633 105.557556,184.884308 
	C101.675758,188.466278 97.693352,192.051514 93.299408,194.939194 
	C87.102348,199.011902 80.544006,199.476440 73.815620,195.436249 
	C60.113686,187.208649 50.611286,175.246872 42.703056,161.275909 
z"/>
<path fill="none" opacity="1.000000" stroke="none" 
	d="
M94.000000,111.999458 
	C135.129135,111.999458 175.758255,111.999458 216.878220,111.999458 
	C217.267319,120.854904 214.518738,128.528275 209.789032,135.379028 
	C205.338974,141.824753 199.591705,147.357254 192.045822,149.832748 
	C180.351883,153.669037 170.548172,148.826706 161.934067,141.302765 
	C158.232300,138.069473 155.272751,133.997589 151.876984,130.400177 
	C147.008774,125.242897 140.851852,122.882591 133.876526,123.061348 
	C127.981934,123.212410 121.984222,123.320335 116.244629,124.489998 
	C109.685089,125.826767 105.822571,131.123291 101.895790,136.248596 
	C91.754326,149.485474 78.355675,153.444077 64.879089,148.539124 
	C52.975433,144.206680 46.055763,133.780106 43.041656,121.292389 
	C42.361370,118.473900 42.145336,115.543350 41.616344,111.999458 
	C59.290215,111.999458 76.395103,111.999458 94.000000,111.999458 
z"/>
<path fill="none" opacity="1.000000" stroke="none" 
	d="
M49.002926,104.000542 
	C43.537086,104.000542 38.570419,104.000542 33.302971,104.000542 
	C33.302971,100.334961 33.302971,96.944794 33.302971,92.999458 
	C35.095272,92.999458 36.867977,92.999458 38.640682,92.999458 
	C67.589706,92.999458 96.539459,93.101364 125.486977,92.892563 
	C129.967468,92.860245 132.905457,93.666534 134.158356,98.336037 
	C134.641495,100.136620 135.962769,101.712326 137.243668,104.000542 
	C107.574791,104.000542 78.538445,104.000542 49.002926,104.000542 
z"/>
<path fill="none" opacity="1.000000" stroke="none" 
	d="
M185.771484,99.333618 
	C184.480713,97.247047 183.422546,95.468185 182.121521,93.281067 
	C196.858414,93.281067 211.142303,93.281067 225.714264,93.281067 
	C225.714264,96.691696 225.714264,100.075195 225.714264,103.994621 
	C213.774094,103.994621 201.880692,104.135452 190.000504,103.803093 
	C188.630630,103.764755 187.334442,101.092415 185.771484,99.333618 
z"/>
<path fill="none" opacity="1.000000" stroke="none" 
	d="
M213.304077,147.727615 
	C215.557098,143.409256 218.366730,139.549759 220.424026,135.323959 
	C222.599609,130.855164 224.058868,126.037621 225.625900,121.912415 
	C227.165482,128.852982 223.739578,147.952499 218.338226,157.044998 
	C216.686859,153.947357 215.108337,150.986359 213.304077,147.727615 
z"/>
<path fill="none" opacity="1.000000" stroke="none" 
	d="
M152.159958,94.442780 
	C153.812073,97.650940 155.307800,100.481880 156.821686,103.347168 
	C148.515884,104.980606 147.381393,104.189926 142.118866,92.561630 
	C145.770721,93.117256 148.887146,93.591415 152.159958,94.442780 
z"/>
<path fill="none" opacity="1.000000" stroke="none" 
	d="
M174.256317,98.631760 
	C175.250641,100.361618 176.040359,101.760674 176.847321,103.190262 
	C168.777664,105.337715 166.264389,103.546059 162.605804,93.154366 
	C167.274887,92.996185 172.630508,91.252998 174.256317,98.631760 
z"/>
<path fill="#F1C40F" opacity="1.000000" stroke="none" 
	d="
M173.001541,225.275955 
	C174.258392,217.586670 177.957489,214.299591 184.572357,213.961365 
	C194.403107,213.458694 197.708267,217.933029 198.754822,223.031250 
	C200.028519,229.235962 199.189774,236.619965 191.350464,239.208527 
	C183.168869,241.910126 171.741135,238.860886 173.001541,225.275955 
M187.286423,223.006897 
	C183.692886,222.531784 181.620987,223.432709 181.923035,227.735992 
	C182.205765,231.764130 184.924850,231.156647 187.252182,230.930038 
	C190.781570,230.586380 191.175583,226.773148 187.286423,223.006897 
z"/>
<path fill="#F1C40F" opacity="1.000000" stroke="none" 
	d="
M28.806221,175.693634 
	C31.466097,173.153564 33.921356,172.022675 36.575695,175.095718 
	C39.124775,178.046875 37.270920,180.176651 35.237350,182.248322 
	C33.258198,184.264557 31.534248,186.797333 29.147058,188.066833 
	C27.058239,189.177673 24.203716,188.848679 21.687452,189.155746 
	C22.100052,186.640808 21.949995,183.828308 23.079556,181.692551 
	C24.268305,179.444901 26.680643,177.844376 28.806221,175.693634 
z"/>
<path fill="#F1C40F" opacity="1.000000" stroke="none" 
	d="
M36.812035,187.687714 
	C39.256008,185.246384 41.918320,183.975082 44.090805,186.830399 
	C46.052788,189.409058 45.510239,192.324707 42.872017,194.675613 
	C40.765900,196.552368 39.178528,199.312958 36.777367,200.465195 
	C34.711933,201.456299 31.246805,201.660065 29.432613,200.540146 
	C26.790194,198.908966 28.228125,196.232513 30.198395,194.298019 
	C32.335537,192.199677 34.443501,190.071625 36.812035,187.687714 
z"/>
<path fill="#F1C40F" opacity="1.000000" stroke="none" 
	d="
M37.226158,212.907013 
	C36.835739,211.055771 35.939232,208.906555 36.617062,208.127975 
	C39.758793,204.519302 43.077755,200.956299 46.843491,198.034576 
	C49.746887,195.781921 53.048794,198.048889 52.996712,201.781891 
	C52.913383,207.754959 43.364727,214.790543 37.226158,212.907013 
z"/>
<path fill="none" opacity="1.000000" stroke="none" 
	d="
M187.721527,223.033173 
	C191.175583,226.773148 190.781570,230.586380 187.252182,230.930038 
	C184.924850,231.156647 182.205765,231.764130 181.923035,227.735992 
	C181.620987,223.432709 183.692886,222.531784 187.721527,223.033173 
z"/>
</svg>