<svg version="1.1" id="Layer_1" xmlns="http://www.w3.org/2000/svg" xmlns:xlink="http://www.w3.org/1999/xlink" x="0px" y="0px"
	 width="100%" viewBox="0 0 256 256" enable-background="new 0 0 256 256" xml:space="preserve">
<path fill="none" opacity="1.000000" stroke="none" 
	d="
M257.000000,78.000000 
	C257.000000,137.614532 257.000000,197.229065 257.000000,256.921814 
	C171.666687,256.921814 86.333351,256.921814 1.000000,256.921814 
	C1.000000,235.232788 1.000000,213.585052 1.293789,191.129272 
	C2.030715,190.795197 2.785367,191.218872 2.871204,191.750534 
	C4.776985,203.554733 12.757711,209.511505 23.257730,213.060806 
	C34.904339,216.997650 46.777901,216.591675 58.775452,215.195099 
	C61.166283,214.916794 63.997116,215.700287 66.179153,216.844513 
	C73.371574,220.616089 80.115936,225.307358 87.471893,228.689499 
	C108.823196,238.506516 131.223206,239.407593 153.840408,234.496017 
	C170.006836,230.985291 184.311447,223.259201 197.093567,212.724716 
	C211.822601,200.585693 222.770615,185.777893 230.117691,168.090317 
	C236.877502,151.816528 237.526978,134.899567 237.073395,117.716782 
	C237.031570,116.132248 237.755936,114.332230 238.627960,112.949821 
	C245.407852,102.201668 253.122543,91.928970 255.146973,78.862198 
	C255.204926,78.488075 256.357697,78.283577 257.000000,78.000000 
z"/>
<path fill="none" opacity="1.000000" stroke="none" 
	d="
M1.000003,180.000000 
	C1.000000,120.385559 1.000000,60.771118 1.000000,1.078339 
	C86.333313,1.078339 171.666641,1.078339 257.000000,1.078339 
	C257.000000,22.433434 257.000000,43.748058 256.706207,65.870728 
	C255.940475,65.706894 255.291290,64.780945 255.025589,63.755627 
	C253.410324,57.522614 250.050507,52.681976 244.718842,48.896027 
	C231.164581,39.271259 215.751572,40.602829 200.581421,41.443737 
	C196.720490,41.657753 193.871353,41.546009 190.642303,39.341099 
	C164.142593,21.246136 134.631653,16.561377 103.959549,23.333868 
	C71.492332,30.502726 47.558853,50.249054 32.124233,79.725372 
	C22.611790,97.891785 19.804523,117.540276 20.849609,137.910294 
	C20.991413,140.674210 19.638666,143.904297 18.046757,146.299713 
	C11.431005,156.254715 4.731037,166.093704 2.894562,178.307190 
	C2.797626,178.951859 1.655535,179.439346 1.000003,180.000000 
z"/>
<path fill="#F1C40F" opacity="1.000000" stroke="none" 
	d="
M1.000003,180.458069 
	C1.655535,179.439346 2.797626,178.951859 2.894562,178.307190 
	C4.731037,166.093704 11.431005,156.254715 18.046757,146.299713 
	C19.638666,143.904297 20.991413,140.674210 20.849609,137.910294 
	C19.804523,117.540276 22.611790,97.891785 32.124233,79.725372 
	C47.558853,50.249054 71.492332,30.502726 103.959549,23.333868 
	C134.631653,16.561377 164.142593,21.246136 190.642303,39.341099 
	C193.871353,41.546009 196.720490,41.657753 200.581421,41.443737 
	C215.751572,40.602829 231.164581,39.271259 244.718842,48.896027 
	C250.050507,52.681976 253.410324,57.522614 255.025589,63.755627 
	C255.291290,64.780945 255.940475,65.706894 256.706207,66.339386 
	C257.000000,69.692909 257.000000,73.385818 257.000000,77.539360 
	C256.357697,78.283577 255.204926,78.488075 255.146973,78.862198 
	C253.122543,91.928970 245.407852,102.201668 238.627960,112.949821 
	C237.755936,114.332230 237.031570,116.132248 237.073395,117.716782 
	C237.526978,134.899567 236.877502,151.816528 230.117691,168.090317 
	C222.770615,185.777893 211.822601,200.585693 197.093567,212.724716 
	C184.311447,223.259201 170.006836,230.985291 153.840408,234.496017 
	C131.223206,239.407593 108.823196,238.506516 87.471893,228.689499 
	C80.115936,225.307358 73.371574,220.616089 66.179153,216.844513 
	C63.997116,215.700287 61.166283,214.916794 58.775452,215.195099 
	C46.777901,216.591675 34.904339,216.997650 23.257730,213.060806 
	C12.757711,209.511505 4.776985,203.554733 2.871204,191.750534 
	C2.785367,191.218872 2.030715,190.795197 1.293789,190.660614 
	C1.000000,187.638718 1.000000,184.277420 1.000003,180.458069 
M66.957619,204.984756 
	C84.041542,202.249695 100.264870,196.611130 116.113022,189.928635 
	C141.208252,179.347046 164.778458,165.932343 186.592331,149.653000 
	C200.766708,139.074875 214.317459,127.655106 225.599106,113.860176 
	C226.330444,112.965912 227.033508,111.387978 226.747101,110.426865 
	C224.534836,103.003128 222.736954,95.354675 219.571198,88.334824 
	C209.082748,65.077431 191.950882,48.370121 168.593735,37.866344 
	C149.484818,29.273014 129.527557,27.471684 109.420517,31.496988 
	C86.846863,36.016094 67.825310,47.353016 52.967415,65.427528 
	C36.662792,85.261971 28.695410,107.624702 29.868093,133.421219 
	C30.343071,143.869690 32.294395,153.806198 36.002022,163.486359 
	C42.326405,179.998520 52.339546,193.828568 66.957619,204.984756 
M91.161003,220.340836 
	C121.752396,233.335236 151.063629,230.365585 179.571991,213.771896 
	C173.645660,201.832932 175.121368,191.254272 183.999054,182.249359 
	C192.919693,173.200851 203.689941,173.273605 214.835190,177.559387 
	C225.596939,160.476624 230.147049,137.461197 227.285934,126.561317 
	C184.692383,168.178650 134.923370,197.364075 76.351631,212.782288 
	C81.501930,215.433670 85.973450,217.735626 91.161003,220.340836 
M32.455654,177.958862 
	C29.430344,170.445862 26.405031,162.932846 22.772532,153.911957 
	C19.033447,161.995041 15.272216,168.686081 12.778783,175.820221 
	C7.803944,190.054108 12.699622,200.741318 26.814968,204.654190 
	C35.290623,207.003723 44.457233,206.860687 52.945911,207.797318 
	C45.964020,197.593414 39.448570,188.071213 32.455654,177.958862 
M219.293533,49.999348 
	C214.384766,49.999348 209.475998,49.999348 203.474304,49.999348 
	C219.293228,64.737541 228.744766,82.109291 234.978333,101.889137 
	C239.002274,94.953735 242.845657,88.158005 245.427429,80.912712 
	C249.521927,69.422195 246.448196,59.645393 236.928360,54.727947 
	C231.893051,52.126976 225.832214,51.511360 219.293533,49.999348 
M195.480835,202.013397 
	C200.361771,196.748169 205.242722,191.482956 210.441269,185.875137 
	C200.764114,182.086609 193.724304,183.930679 188.050888,191.594711 
	C184.219254,196.770737 183.618683,203.178177 187.792313,208.381836 
	C190.186295,206.432175 192.584793,204.478821 195.480835,202.013397 
z"/>
<path fill="none" opacity="1.000000" stroke="none" 
	d="
M66.563240,204.929245 
	C52.339546,193.828568 42.326405,179.998520 36.002022,163.486359 
	C32.294395,153.806198 30.343071,143.869690 29.868093,133.421219 
	C28.695410,107.624702 36.662792,85.261971 52.967415,65.427528 
	C67.825310,47.353016 86.846863,36.016094 109.420517,31.496988 
	C129.527557,27.471684 149.484818,29.273014 168.593735,37.866344 
	C191.950882,48.370121 209.082748,65.077431 219.571198,88.334824 
	C222.736954,95.354675 224.534836,103.003128 226.747101,110.426865 
	C227.033508,111.387978 226.330444,112.965912 225.599106,113.860176 
	C214.317459,127.655106 200.766708,139.074875 186.592331,149.653000 
	C164.778458,165.932343 141.208252,179.347046 116.113022,189.928635 
	C100.264870,196.611130 84.041542,202.249695 66.563240,204.929245 
M116.565018,135.938751 
	C120.292313,129.838943 121.314819,123.226799 121.066277,116.126587 
	C120.297081,94.152374 102.195244,79.888031 80.692574,84.437889 
	C59.753986,88.868401 49.849239,107.647240 55.134579,128.184723 
	C58.680111,141.961761 73.764725,151.032944 85.771912,151.178391 
	C98.646736,151.334366 108.804413,147.254211 116.565018,135.938751 
M176.445648,86.000656 
	C169.906952,85.342796 164.240799,87.544968 160.281738,92.542976 
	C154.722382,99.561211 154.195816,107.653343 157.998703,115.663086 
	C161.807602,123.685463 168.688614,126.359169 177.350113,126.077553 
	C188.042648,125.729881 195.971054,118.121719 195.999329,107.496452 
	C196.035370,93.951599 189.236099,86.115402 176.445648,86.000656 
z"/>
<path fill="none" opacity="1.000000" stroke="none" 
	d="
M90.802986,220.189209 
	C85.973450,217.735626 81.501930,215.433670 76.351631,212.782288 
	C134.923370,197.364075 184.692383,168.178650 227.285934,126.561317 
	C230.147049,137.461197 225.596939,160.476624 214.835190,177.559387 
	C203.689941,173.273605 192.919693,173.200851 183.999054,182.249359 
	C175.121368,191.254272 173.645660,201.832932 179.571991,213.771896 
	C151.063629,230.365585 121.752396,233.335236 90.802986,220.189209 
z"/>
<path fill="none" opacity="1.000000" stroke="none" 
	d="
M32.694389,178.253937 
	C39.448570,188.071213 45.964020,197.593414 52.945911,207.797318 
	C44.457233,206.860687 35.290623,207.003723 26.814968,204.654190 
	C12.699622,200.741318 7.803944,190.054108 12.778783,175.820221 
	C15.272216,168.686081 19.033447,161.995041 22.772532,153.911957 
	C26.405031,162.932846 29.430344,170.445862 32.694389,178.253937 
z"/>
<path fill="none" opacity="1.000000" stroke="none" 
	d="
M219.763947,49.999390 
	C225.832214,51.511360 231.893051,52.126976 236.928360,54.727947 
	C246.448196,59.645393 249.521927,69.422195 245.427429,80.912712 
	C242.845657,88.158005 239.002274,94.953735 234.978333,101.889137 
	C228.744766,82.109291 219.293228,64.737541 203.474304,49.999348 
	C209.475998,49.999348 214.384766,49.999348 219.763947,49.999390 
z"/>
<path fill="none" opacity="1.000000" stroke="none" 
	d="
M195.232071,202.269440 
	C192.584793,204.478821 190.186295,206.432175 187.792313,208.381836 
	C183.618683,203.178177 184.219254,196.770737 188.050888,191.594711 
	C193.724304,183.930679 200.764114,182.086609 210.441269,185.875137 
	C205.242722,191.482956 200.361771,196.748169 195.232071,202.269440 
z"/>
<path fill="#F1C40F" opacity="1.000000" stroke="none" 
	d="
M116.318893,136.221619 
	C108.804413,147.254211 98.646736,151.334366 85.771912,151.178391 
	C73.764725,151.032944 58.680111,141.961761 55.134579,128.184723 
	C49.849239,107.647240 59.753986,88.868401 80.692574,84.437889 
	C102.195244,79.888031 120.297081,94.152374 121.066277,116.126587 
	C121.314819,123.226799 120.292313,129.838943 116.318893,136.221619 
M78.297295,94.569984 
	C68.359116,99.166145 62.113743,107.318588 62.405495,117.828278 
	C62.855289,134.031143 76.960358,146.069214 95.194237,141.232178 
	C108.728806,137.641739 115.179413,123.981499 111.070564,109.910980 
	C107.316040,97.053848 92.791664,88.991150 78.297295,94.569984 
z"/>
<path fill="#F1C40F" opacity="1.000000" stroke="none" 
	d="
M176.896790,86.000656 
	C189.236099,86.115402 196.035370,93.951599 195.999329,107.496452 
	C195.971054,118.121719 188.042648,125.729881 177.350113,126.077553 
	C168.688614,126.359169 161.807602,123.685463 157.998703,115.663086 
	C154.195816,107.653343 154.722382,99.561211 160.281738,92.542976 
	C164.240799,87.544968 169.906952,85.342796 176.896790,86.000656 
M178.947266,95.013664 
	C177.619919,95.008949 176.291946,94.975594 174.965332,95.004677 
	C170.235947,95.108360 165.880219,98.559601 165.037750,102.846863 
	C163.832214,108.981834 166.576828,114.671013 171.698120,116.652710 
	C176.369019,118.460114 182.525650,116.543755 185.090561,112.484085 
	C189.439026,105.601379 187.690811,99.891167 178.947266,95.013664 
z"/>
<path fill="none" opacity="1.000000" stroke="none" 
	d="
M78.644714,94.377266 
	C92.791664,88.991150 107.316040,97.053848 111.070564,109.910980 
	C115.179413,123.981499 108.728806,137.641739 95.194237,141.232178 
	C76.960358,146.069214 62.855289,134.031143 62.405495,117.828278 
	C62.113743,107.318588 68.359116,99.166145 78.644714,94.377266 
z"/>
<path fill="none" opacity="1.000000" stroke="none" 
	d="
M179.359512,95.062531 
	C187.690811,99.891167 189.439026,105.601379 185.090561,112.484085 
	C182.525650,116.543755 176.369019,118.460114 171.698120,116.652710 
	C166.576828,114.671013 163.832214,108.981834 165.037750,102.846863 
	C165.880219,98.559601 170.235947,95.108360 174.965332,95.004677 
	C176.291946,94.975594 177.619919,95.008949 179.359512,95.062531 
z"/>
</svg>