<svg version="1.1" id="Layer_1" xmlns="http://www.w3.org/2000/svg" xmlns:xlink="http://www.w3.org/1999/xlink" x="0px" y="0px"
	 width="100%" viewBox="0 0 512 512" enable-background="new 0 0 512 512" xml:space="preserve">
<path fill="none" opacity="1.000000" stroke="none" 
	d="
M1.000002,441.000000 
	C1.000000,294.379242 1.000000,147.758514 1.000000,1.068883 
	C171.567276,1.068883 342.134583,1.068883 513.000000,1.068883 
	C513.000000,145.355209 513.000000,289.710632 512.743225,434.868164 
	C511.981781,435.059052 511.318329,434.521454 510.995911,433.825745 
	C504.686646,420.210815 493.867035,414.376068 479.101135,414.898468 
	C476.860229,414.977722 474.580261,413.668549 472.302826,413.059753 
	C467.168610,411.687378 461.978149,409.063141 456.893524,409.246582 
	C442.637756,409.760773 431.786438,416.609802 427.029327,432.088287 
	C425.520691,436.996826 424.713043,442.173859 424.098633,447.289764 
	C423.433411,452.828918 422.018585,458.777832 423.312775,463.952301 
	C426.347931,476.088196 434.112396,484.604950 446.867676,487.343719 
	C457.279510,489.579285 466.457123,486.710327 474.645813,479.994965 
	C476.387329,478.566742 478.803955,477.163879 480.930054,477.132355 
	C494.389191,476.932709 504.317566,471.318207 510.437988,459.173004 
	C510.902039,458.252167 512.128113,457.715332 513.000000,457.000000 
	C513.000000,475.653564 513.000000,494.307129 513.000000,512.955078 
	C342.333313,512.949463 171.666656,512.949463 1.000000,512.949463 
	C1.000000,496.243896 1.000000,479.588928 1.270503,462.130066 
	C1.993800,461.784027 2.644968,462.160767 2.870164,462.711639 
	C7.611364,474.309753 16.093502,480.588654 28.629845,482.187988 
	C33.016060,482.747559 37.245060,481.315277 42.031414,484.079163 
	C58.592178,493.642242 80.229599,485.823151 86.064812,467.435089 
	C88.150925,460.861237 89.596062,454.043701 90.816574,447.244598 
	C92.782730,436.291748 90.758369,425.823364 82.449486,418.240906 
	C71.016548,407.807526 56.347534,405.218750 42.542332,415.302063 
	C37.595428,418.915314 32.593468,420.330963 26.950001,420.994324 
	C15.398949,422.352173 7.900803,429.035431 3.015388,439.172302 
	C2.613685,440.005798 2.107816,440.789093 1.650349,441.595734 
	C1.433568,441.397156 1.216786,441.198578 1.000002,441.000000 
M135.069397,484.573517 
	C140.086853,485.715668 145.080093,487.697205 150.126282,487.842651 
	C165.280167,488.279480 180.454712,488.000000 195.621185,488.000000 
	C210.787659,488.000000 225.954147,488.000000 241.120621,488.000000 
	C256.120422,488.000000 271.120239,488.000000 286.120056,488.000000 
	C301.286530,488.000000 316.476562,487.473358 331.612823,488.149506 
	C346.471100,488.813293 361.200806,486.425354 376.124329,487.753510 
	C389.576630,488.950745 399.180267,481.361053 405.564758,469.870941 
	C411.264557,459.613098 407.179962,440.200836 397.906097,433.488739 
	C391.634827,428.949829 390.106201,421.855103 389.338928,415.331390 
	C388.514954,408.325745 390.246002,400.998291 391.039825,393.830963 
	C391.586609,388.893890 392.435822,383.990326 393.160309,379.000000 
	C402.758789,379.000000 411.750244,378.991150 420.741669,379.001892 
	C437.698853,379.022186 446.735840,369.313721 446.912628,353.071472 
	C447.224609,324.408539 447.136841,295.738495 446.864441,267.074768 
	C446.819336,262.329803 446.046539,257.007904 443.788116,252.972153 
	C435.472443,238.112045 426.242462,223.767075 417.661926,209.050201 
	C413.626251,202.128418 408.924896,195.608398 407.664337,187.119171 
	C407.000702,182.650024 403.643494,178.353745 400.789795,174.508377 
	C398.484070,171.401413 395.110962,169.086548 392.201019,166.410812 
	C398.140900,156.345016 401.056641,145.612549 397.883453,134.104294 
	C394.304962,121.126068 385.335083,112.878113 372.879456,108.491257 
	C379.783234,87.894806 373.371521,75.655426 365.049927,67.961197 
	C352.552856,56.406288 337.761627,54.587151 322.405670,62.719147 
	C310.268311,49.800278 298.937012,48.761230 287.742981,49.185799 
	C276.380493,21.316132 239.110703,16.209223 221.613800,45.657787 
	C214.078033,44.665901 206.699615,44.286942 199.386856,47.086430 
	C197.847214,47.675827 195.118073,47.236362 193.876770,46.173477 
	C187.928238,41.079967 180.878494,38.468822 173.413162,38.142296 
	C154.193222,37.301628 138.250031,50.043369 135.893478,70.325722 
	C135.740784,71.639862 134.310669,73.446495 133.067764,73.894295 
	C120.068024,78.577904 112.237122,87.485168 108.796463,100.950989 
	C107.584435,105.694481 110.246307,111.797058 103.620308,115.249817 
	C100.009857,117.131203 97.202957,121.133743 94.828064,124.707542 
	C84.150612,140.775238 89.284546,162.105270 103.598206,171.647675 
	C100.691345,178.151154 97.829338,184.394485 95.136726,190.710052 
	C94.582466,192.010071 95.069984,193.819565 94.385078,194.988693 
	C85.202408,210.663361 76.158707,226.429810 66.528534,241.828262 
	C60.224316,251.908554 56.397469,262.058655 56.764885,274.397278 
	C57.538403,300.373932 57.040443,326.389740 56.985710,352.389282 
	C56.949516,369.583618 66.435600,379.072113 83.539146,379.005188 
	C91.372261,378.974548 99.213364,379.207672 107.035652,378.915100 
	C111.132858,378.761841 111.982132,380.304047 112.118408,384.127014 
	C112.410721,392.327423 113.261116,400.513916 114.056290,408.689209 
	C115.642548,424.997772 117.269737,441.303101 119.026611,457.593964 
	C120.221558,468.674225 123.463287,478.676147 135.069397,484.573517 
z"/>
<path fill="#F1C40F" opacity="1.000000" stroke="none" 
	d="
M513.000000,456.531433 
	C512.128113,457.715332 510.902039,458.252167 510.437988,459.173004 
	C504.317566,471.318207 494.389191,476.932709 480.930054,477.132355 
	C478.803955,477.163879 476.387329,478.566742 474.645813,479.994965 
	C466.457123,486.710327 457.279510,489.579285 446.867676,487.343719 
	C434.112396,484.604950 426.347931,476.088196 423.312775,463.952301 
	C422.018585,458.777832 423.433411,452.828918 424.098633,447.289764 
	C424.713043,442.173859 425.520691,436.996826 427.029327,432.088287 
	C431.786438,416.609802 442.637756,409.760773 456.893524,409.246582 
	C461.978149,409.063141 467.168610,411.687378 472.302826,413.059753 
	C474.580261,413.668549 476.860229,414.977722 479.101135,414.898468 
	C493.867035,414.376068 504.686646,420.210815 510.995911,433.825745 
	C511.318329,434.521454 511.981781,435.059052 512.743225,435.335144 
	C513.000000,442.020966 513.000000,449.041901 513.000000,456.531433 
M464.175629,427.031311 
	C454.701660,422.146881 446.511169,426.783813 443.905121,433.108124 
	C440.737915,440.794159 439.070282,449.479401 438.695068,457.819702 
	C438.367004,465.111298 444.060913,470.431030 450.752289,471.846466 
	C457.588470,473.292572 463.021790,470.171875 466.392273,464.815948 
	C469.649048,459.640717 473.844482,459.390320 478.648895,460.374603 
	C485.024109,461.680695 491.516663,459.783783 494.635895,454.736877 
	C498.081848,449.161438 498.192139,443.276947 494.816376,437.586548 
	C491.851624,432.588959 484.672577,429.326569 478.936890,431.199432 
	C473.065796,433.116516 468.777527,431.546234 464.175629,427.031311 
z"/>
<path fill="#F1C40F" opacity="1.000000" stroke="none" 
	d="
M1.000002,441.468536 
	C1.216786,441.198578 1.433568,441.397156 1.650349,441.595734 
	C2.107816,440.789093 2.613685,440.005798 3.015388,439.172302 
	C7.900803,429.035431 15.398949,422.352173 26.950001,420.994324 
	C32.593468,420.330963 37.595428,418.915314 42.542332,415.302063 
	C56.347534,405.218750 71.016548,407.807526 82.449486,418.240906 
	C90.758369,425.823364 92.782730,436.291748 90.816574,447.244598 
	C89.596062,454.043701 88.150925,460.861237 86.064812,467.435089 
	C80.229599,485.823151 58.592178,493.642242 42.031414,484.079163 
	C37.245060,481.315277 33.016060,482.747559 28.629845,482.187988 
	C16.093502,480.588654 7.611364,474.309753 2.870164,462.711639 
	C2.644968,462.160767 1.993800,461.784027 1.270503,461.663086 
	C1.000000,455.312347 1.000000,448.624725 1.000002,441.468536 
M65.856346,426.353973 
	C57.711086,424.119720 52.967411,425.936890 47.486904,432.925964 
	C44.945999,436.166260 42.013702,438.558563 37.153538,437.086884 
	C29.273985,434.700928 22.065727,436.844971 18.681253,444.306091 
	C16.837683,448.370300 16.840302,454.724274 18.779341,458.692413 
	C21.327971,463.908081 26.725143,468.072693 33.588913,466.057465 
	C39.492905,464.323975 44.191505,465.326447 48.919674,469.250610 
	C53.827244,473.323700 59.587379,472.944733 64.944267,469.954102 
	C69.937302,467.166595 71.775970,462.482147 72.096153,456.842804 
	C72.294495,453.349457 72.982895,449.735474 74.239624,446.479950 
	C77.354103,438.412048 74.402748,430.536957 65.856346,426.353973 
z"/>
<path fill="#F1C40F" opacity="1.000000" stroke="none" 
	d="
M134.777863,484.323639 
	C123.463287,478.676147 120.221558,468.674225 119.026611,457.593964 
	C117.269737,441.303101 115.642548,424.997772 114.056290,408.689209 
	C113.261116,400.513916 112.410721,392.327423 112.118408,384.127014 
	C111.982132,380.304047 111.132858,378.761841 107.035652,378.915100 
	C99.213364,379.207672 91.372261,378.974548 83.539146,379.005188 
	C66.435600,379.072113 56.949516,369.583618 56.985710,352.389282 
	C57.040443,326.389740 57.538403,300.373932 56.764885,274.397278 
	C56.397469,262.058655 60.224316,251.908554 66.528534,241.828262 
	C76.158707,226.429810 85.202408,210.663361 94.385078,194.988693 
	C95.069984,193.819565 94.582466,192.010071 95.136726,190.710052 
	C97.829338,184.394485 100.691345,178.151154 103.598206,171.647675 
	C89.284546,162.105270 84.150612,140.775238 94.828064,124.707542 
	C97.202957,121.133743 100.009857,117.131203 103.620308,115.249817 
	C110.246307,111.797058 107.584435,105.694481 108.796463,100.950989 
	C112.237122,87.485168 120.068024,78.577904 133.067764,73.894295 
	C134.310669,73.446495 135.740784,71.639862 135.893478,70.325722 
	C138.250031,50.043369 154.193222,37.301628 173.413162,38.142296 
	C180.878494,38.468822 187.928238,41.079967 193.876770,46.173477 
	C195.118073,47.236362 197.847214,47.675827 199.386856,47.086430 
	C206.699615,44.286942 214.078033,44.665901 221.613800,45.657787 
	C239.110703,16.209223 276.380493,21.316132 287.742981,49.185799 
	C298.937012,48.761230 310.268311,49.800278 322.405670,62.719147 
	C337.761627,54.587151 352.552856,56.406288 365.049927,67.961197 
	C373.371521,75.655426 379.783234,87.894806 372.879456,108.491257 
	C385.335083,112.878113 394.304962,121.126068 397.883453,134.104294 
	C401.056641,145.612549 398.140900,156.345016 392.201019,166.410812 
	C395.110962,169.086548 398.484070,171.401413 400.789795,174.508377 
	C403.643494,178.353745 407.000702,182.650024 407.664337,187.119171 
	C408.924896,195.608398 413.626251,202.128418 417.661926,209.050201 
	C426.242462,223.767075 435.472443,238.112045 443.788116,252.972153 
	C446.046539,257.007904 446.819336,262.329803 446.864441,267.074768 
	C447.136841,295.738495 447.224609,324.408539 446.912628,353.071472 
	C446.735840,369.313721 437.698853,379.022186 420.741669,379.001892 
	C411.750244,378.991150 402.758789,379.000000 393.160309,379.000000 
	C392.435822,383.990326 391.586609,388.893890 391.039825,393.830963 
	C390.246002,400.998291 388.514954,408.325745 389.338928,415.331390 
	C390.106201,421.855103 391.634827,428.949829 397.906097,433.488739 
	C407.179962,440.200836 411.264557,459.613098 405.564758,469.870941 
	C399.180267,481.361053 389.576630,488.950745 376.124329,487.753510 
	C361.200806,486.425354 346.471100,488.813293 331.612823,488.149506 
	C316.476562,487.473358 301.286530,488.000000 286.120056,488.000000 
	C271.120239,488.000000 256.120422,488.000000 241.120621,488.000000 
	C225.954147,488.000000 210.787659,488.000000 195.621185,488.000000 
	C180.454712,488.000000 165.280167,488.279480 150.126282,487.842651 
	C145.080093,487.697205 140.086853,485.715668 134.777863,484.323639 
M222.004044,163.042603 
	C233.719589,162.127975 243.978470,165.260345 252.040909,174.473068 
	C258.958954,166.809799 267.102448,163.008804 276.990448,162.977509 
	C286.826508,162.946396 294.714172,167.238800 301.583954,173.813232 
	C308.605042,166.888535 316.804718,163.091980 326.570770,163.008423 
	C336.486633,162.923569 344.445312,167.601532 351.639954,173.862228 
	C356.698242,168.432083 362.410797,165.191589 369.445221,163.699966 
	C378.434357,161.793869 385.411621,148.943344 382.764740,139.585754 
	C379.472198,127.945633 370.018250,121.461586 357.689148,124.678665 
	C353.028412,125.894814 348.466553,123.825745 347.317383,119.668182 
	C346.005371,114.921600 348.229828,111.766106 352.105774,108.890175 
	C362.099213,101.475113 363.089935,85.820786 351.935638,78.034958 
	C342.980804,71.784393 335.271271,72.490150 326.675964,79.814552 
	C320.788788,84.831245 316.374664,84.397423 312.318085,77.699646 
	C308.620758,71.594940 304.411255,66.212700 296.895538,65.553726 
	C293.000854,65.212242 288.925018,66.260315 285.003876,67.044739 
	C277.948547,68.456169 276.100891,66.968140 273.814667,60.235443 
	C272.143005,55.312634 270.129791,49.554470 266.377777,46.465820 
	C254.600845,36.771049 239.805969,42.981724 235.148071,56.529797 
	C232.239120,64.990860 228.376114,66.682182 220.457199,62.825569 
	C213.846268,59.605949 207.501205,60.187672 201.425751,64.103622 
	C194.518097,68.555969 191.036041,67.798798 186.009979,61.347996 
	C179.696945,53.245365 167.953033,51.092289 158.905930,58.579563 
	C152.341278,64.012390 151.540848,71.279411 151.930145,79.153717 
	C152.255875,85.742393 150.246780,87.506744 143.847168,88.026184 
	C129.830200,89.163895 122.828476,100.645844 124.102707,110.596169 
	C125.455872,121.162865 125.714134,121.129784 116.803772,125.642914 
	C109.163193,129.512894 103.627434,138.799866 105.128288,145.296799 
	C107.830368,156.993683 115.489151,162.735062 124.565788,162.782410 
	C135.619034,162.840073 144.944427,165.896042 152.498596,173.904785 
	C159.647247,166.821899 167.868790,162.996063 177.633560,163.031006 
	C187.410767,163.065994 195.580551,166.989578 202.136993,174.542694 
	C207.384323,168.174774 213.847107,164.995483 222.004044,163.042603 
M82.836060,257.000031 
	C75.054398,257.476837 73.001511,259.609070 73.000893,267.241547 
	C72.998619,295.406342 72.998001,323.571167 73.001160,351.735962 
	C73.002174,360.810883 75.204887,362.998596 84.339218,362.999023 
	C128.669617,363.001190 173.000031,363.011353 217.330414,362.983673 
	C222.134384,362.980682 227.996689,364.373749 231.422302,362.137939 
	C234.405426,360.190948 234.547073,353.996124 236.105469,349.737274 
	C238.946045,341.974487 245.529190,336.845001 252.241257,337.000885 
	C259.093658,337.160034 265.255585,342.269989 267.947784,350.213287 
	C268.827698,352.809570 269.423218,355.508179 270.047394,358.183685 
	C270.852325,361.634186 272.510590,363.121948 276.484375,363.108124 
	C324.480621,362.941162 372.477661,363.004486 420.474487,362.995514 
	C428.296295,362.994049 430.994446,360.246582 430.996765,352.318817 
	C431.005005,324.154022 431.004272,295.989197 430.997314,267.824402 
	C430.995300,259.725922 428.256439,257.002960 420.117706,257.002197 
	C371.120941,256.997772 322.124115,257.026917 273.127533,256.938293 
	C269.925446,256.932495 267.337585,257.430267 265.360107,260.125977 
	C259.221619,268.493958 244.857941,268.295685 238.395401,260.172852 
	C236.957687,258.365784 233.687515,257.138519 231.255798,257.129944 
	C182.092987,256.956451 132.929413,257.000000 82.836060,257.000031 
M251.575897,400.008057 
	C258.183014,401.614471 259.990356,403.814301 259.995270,410.402863 
	C260.008881,428.559357 260.000000,446.715851 260.000000,464.872345 
	C260.000000,467.143555 260.000000,469.414764 260.000000,471.687500 
	C268.298615,471.687500 276.027161,471.687500 284.054810,471.687500 
	C285.138763,440.707336 286.212158,410.029633 287.297852,378.999969 
	C280.640259,378.999969 274.839569,379.024994 269.039154,378.993317 
	C262.533325,378.957794 260.065674,377.098511 257.942108,370.907745 
	C256.105286,365.552826 254.183060,360.227234 251.979050,353.983551 
	C249.763229,360.238800 247.906403,365.380127 246.120880,370.546051 
	C243.743576,377.424072 241.615494,378.984283 234.335785,378.997864 
	C228.587494,379.008575 222.839188,379.000000 216.496552,379.000000 
	C217.022217,390.203400 217.661972,400.611023 217.964203,411.028442 
	C218.430786,427.110809 218.597488,443.201813 219.046921,459.284790 
	C219.164047,463.476501 219.857025,467.652161 220.263977,471.624817 
	C228.421432,471.624817 236.148666,471.624817 244.000000,471.624817 
	C244.000000,450.933441 244.121277,430.615784 243.917648,410.301392 
	C243.864441,404.992706 245.298569,401.345581 251.575897,400.008057 
M289.284424,240.998352 
	C290.189117,240.039139 291.837891,239.114532 291.884399,238.115387 
	C292.399475,227.043030 292.667633,215.959167 292.998047,204.878265 
	C293.037659,203.549133 293.147217,202.212738 293.058258,200.890884 
	C292.805695,197.137054 293.231445,193.116089 292.009338,189.693329 
	C289.125061,181.615707 281.059875,177.403198 273.182190,179.026886 
	C265.916260,180.524460 260.025757,188.202072 260.006592,196.288559 
	C259.980194,207.441055 260.013611,218.593674 259.994629,229.746185 
	C259.983978,236.007599 257.300934,239.027725 251.853622,238.999924 
	C246.753723,238.973892 244.021103,235.866577 244.007553,229.952805 
	C243.981628,218.633865 243.971176,207.314697 244.012482,195.995850 
	C244.032196,190.597107 241.696075,186.334290 237.700836,182.981995 
	C232.335861,178.480377 226.202942,177.494324 219.955353,180.646530 
	C213.695709,183.804825 209.978882,189.115860 210.056915,196.318161 
	C210.151749,205.071167 210.622345,213.821625 211.015289,222.569366 
	C211.286377,228.604523 211.701523,234.633179 212.071793,241.000000 
	C218.796570,241.000000 225.095093,241.139572 231.384674,240.962021 
	C238.117584,240.771957 244.087082,242.168304 248.361908,247.861252 
	C250.526825,250.744370 252.236588,250.117386 254.805237,247.911514 
	C257.663269,245.457123 261.141388,242.730331 264.649872,242.230682 
	C272.439575,241.121307 280.416870,241.329025 289.284424,240.998352 
M136.840042,464.284546 
	C142.958557,475.543945 153.383911,471.165314 161.972809,471.904907 
	C161.972809,466.741486 162.248367,462.086670 161.923569,457.474121 
	C160.723099,440.425507 159.238541,423.396881 158.038040,406.348267 
	C157.481079,398.438782 157.432938,390.493713 156.892181,382.582672 
	C156.807800,381.348267 155.350021,379.207275 154.477936,379.181915 
	C145.722565,378.927032 136.956848,379.026917 127.286339,379.026917 
	C130.325577,407.734467 133.289993,435.735413 136.840042,464.284546 
M173.008270,393.209900 
	C173.330200,394.304810 173.870682,395.385864 173.941299,396.496735 
	C174.997345,413.107147 176.026016,429.719482 176.984207,446.335785 
	C177.412140,453.756531 177.533371,461.198273 178.139725,468.602173 
	C178.238556,469.808807 180.102249,471.801361 181.211945,471.844513 
	C188.660294,472.134369 196.125366,471.995300 204.305099,471.995300 
	C203.824036,468.467010 203.169434,465.463531 203.046051,462.438385 
	C202.600662,451.517487 202.278839,440.590668 202.012970,429.663605 
	C201.613388,413.241608 201.304550,396.817474 200.927094,380.394928 
	C200.917160,379.962677 200.560181,379.538391 200.408051,379.204712 
	C190.966080,379.204712 181.668640,379.204712 173.001038,379.204712 
	C173.001038,383.688904 173.001038,387.975464 173.008270,393.209900 
M301.000000,443.511505 
	C301.000000,452.877930 301.000000,462.244324 301.000000,471.790497 
	C308.599640,471.790497 316.693359,471.790497 324.310547,471.790497 
	C327.342438,467.617706 325.101471,464.722351 323.011444,461.381653 
	C316.469391,450.924927 315.319183,439.899200 322.093719,429.193878 
	C326.030731,422.972595 331.070740,417.463165 329.058350,409.283478 
	C328.991211,409.010712 329.285400,408.668488 329.308258,408.351227 
	C330.002930,398.715820 330.684662,389.079498 331.379822,379.282104 
	C321.442688,379.282104 312.382996,379.282104 303.509857,379.282104 
	C302.995331,387.965942 302.348633,396.351227 302.036041,404.748901 
	C301.567596,417.334900 301.333679,429.929657 301.000000,443.511505 
M391.000031,231.439789 
	C391.666687,220.270111 392.298676,209.098206 393.013916,197.931641 
	C393.398224,191.931015 391.220612,187.226974 386.769714,183.162628 
	C381.842010,178.662827 376.441498,177.840332 370.458618,180.040115 
	C364.661194,182.171707 360.870514,186.373596 360.081970,192.535370 
	C359.332825,198.389206 359.320923,204.334335 358.883270,210.231781 
	C358.133362,220.336914 357.304199,230.436172 356.490753,240.760590 
	C368.225922,240.760590 378.959534,240.760590 389.719360,240.760590 
	C390.169373,237.808472 390.584625,235.084274 391.000031,231.439789 
M112.008293,226.244049 
	C112.724442,231.144974 113.440590,236.045883 114.132660,240.782074 
	C125.381851,240.782074 135.967545,240.782074 147.000000,240.782074 
	C147.000000,238.956100 147.100571,237.333466 146.984146,235.726532 
	C146.012497,222.313919 144.996536,208.904526 144.002731,195.493500 
	C143.187042,184.486176 136.998627,178.646515 126.321404,179.021851 
	C118.812820,179.285812 110.436897,186.944016 110.966782,197.109497 
	C111.456451,206.503464 111.667358,215.911926 112.008293,226.244049 
M319.519592,241.000000 
	C326.603882,241.000000 333.688171,241.000000 340.780548,241.000000 
	C341.540924,225.216660 342.420288,210.079147 342.937561,194.929276 
	C343.201508,187.200043 336.648560,179.953674 329.227570,179.009018 
	C320.721832,177.926300 313.148865,182.312103 311.022186,190.269516 
	C309.775085,194.935669 309.294189,199.883133 309.080933,204.730988 
	C308.766937,211.870499 309.157654,219.038773 308.943878,226.185699 
	C308.799316,231.019699 308.131470,235.838043 307.667419,241.000000 
	C311.916351,241.000000 315.221619,241.000000 319.519592,241.000000 
M170.983246,180.032959 
	C165.280899,182.983597 160.959320,187.096283 161.049683,193.981522 
	C161.192917,204.895309 161.589798,215.809036 162.085648,226.713394 
	C162.299149,231.408249 163.028610,236.079620 163.515533,240.684662 
	C174.373398,240.684662 185.103897,240.684662 196.313309,240.684662 
	C195.841080,237.248978 195.161728,234.202225 195.046707,231.134308 
	C194.600403,219.232010 194.164810,207.324615 194.048584,195.415970 
	C193.937698,184.051620 182.071091,175.842361 170.983246,180.032959 
M358.798248,459.021362 
	C360.852386,461.265656 362.618256,463.906860 365.030090,465.658661 
	C368.416992,468.118683 372.084076,471.067902 375.989563,471.746704 
	C382.917450,472.950836 389.781616,467.500977 391.699738,460.795593 
	C393.579865,454.223206 390.355621,446.941528 383.847229,443.419189 
	C380.458252,441.585052 377.996918,439.212830 378.010895,435.098297 
	C378.033905,428.317413 374.691528,423.556976 368.666168,421.107758 
	C362.400665,418.560944 356.676483,419.968658 351.610779,424.746338 
	C349.203979,427.016296 346.215820,428.844482 343.203552,430.261810 
	C336.717712,433.313629 332.902283,440.065430 334.013733,447.387634 
	C334.886017,453.134216 340.722137,458.365326 347.356567,458.952942 
	C350.863129,459.263550 354.420105,459.004517 358.798248,459.021362 
M346.999969,383.598633 
	C346.592346,391.621185 346.184753,399.643738 345.740936,408.378510 
	C355.211456,403.844696 364.258698,402.470306 374.019501,405.801910 
	C374.913605,396.836151 375.782501,388.122833 376.691772,379.004852 
	C367.658569,379.004852 358.546082,378.908997 349.443359,379.163330 
	C348.597198,379.186951 347.813080,381.431519 346.999969,383.598633 
M97.416695,237.924423 
	C97.010849,233.792084 96.605003,229.659760 96.062325,224.134171 
	C92.308762,230.422531 89.287346,235.484299 85.998436,240.994217 
	C89.878189,240.994217 92.865929,241.148453 95.817139,240.888321 
	C96.577408,240.821320 97.222801,239.450943 97.416695,237.924423 
M416.489471,240.986603 
	C416.634064,240.471832 417.067017,239.789825 416.880005,239.467392 
	C414.145813,234.753113 411.328827,230.086823 407.854523,224.276840 
	C407.171814,230.475998 406.618927,235.496536 406.013000,240.998550 
	C409.448944,240.998550 412.561554,240.998550 416.489471,240.986603 
z"/>
<path fill="none" opacity="1.000000" stroke="none" 
	d="
M464.527161,427.205566 
	C468.777527,431.546234 473.065796,433.116516 478.936890,431.199432 
	C484.672577,429.326569 491.851624,432.588959 494.816376,437.586548 
	C498.192139,443.276947 498.081848,449.161438 494.635895,454.736877 
	C491.516663,459.783783 485.024109,461.680695 478.648895,460.374603 
	C473.844482,459.390320 469.649048,459.640717 466.392273,464.815948 
	C463.021790,470.171875 457.588470,473.292572 450.752289,471.846466 
	C444.060913,470.431030 438.367004,465.111298 438.695068,457.819702 
	C439.070282,449.479401 440.737915,440.794159 443.905121,433.108124 
	C446.511169,426.783813 454.701660,422.146881 464.527161,427.205566 
z"/>
<path fill="none" opacity="1.000000" stroke="none" 
	d="
M66.147797,426.622620 
	C74.402748,430.536957 77.354103,438.412048 74.239624,446.479950 
	C72.982895,449.735474 72.294495,453.349457 72.096153,456.842804 
	C71.775970,462.482147 69.937302,467.166595 64.944267,469.954102 
	C59.587379,472.944733 53.827244,473.323700 48.919674,469.250610 
	C44.191505,465.326447 39.492905,464.323975 33.588913,466.057465 
	C26.725143,468.072693 21.327971,463.908081 18.779341,458.692413 
	C16.840302,454.724274 16.837683,448.370300 18.681253,444.306091 
	C22.065727,436.844971 29.273985,434.700928 37.153538,437.086884 
	C42.013702,438.558563 44.945999,436.166260 47.486904,432.925964 
	C52.967411,425.936890 57.711086,424.119720 66.147797,426.622620 
z"/>
<path fill="none" opacity="1.000000" stroke="none" 
	d="
M221.585266,163.189514 
	C213.847107,164.995483 207.384323,168.174774 202.136993,174.542694 
	C195.580551,166.989578 187.410767,163.065994 177.633560,163.031006 
	C167.868790,162.996063 159.647247,166.821899 152.498596,173.904785 
	C144.944427,165.896042 135.619034,162.840073 124.565788,162.782410 
	C115.489151,162.735062 107.830368,156.993683 105.128288,145.296799 
	C103.627434,138.799866 109.163193,129.512894 116.803772,125.642914 
	C125.714134,121.129784 125.455872,121.162865 124.102707,110.596169 
	C122.828476,100.645844 129.830200,89.163895 143.847168,88.026184 
	C150.246780,87.506744 152.255875,85.742393 151.930145,79.153717 
	C151.540848,71.279411 152.341278,64.012390 158.905930,58.579563 
	C167.953033,51.092289 179.696945,53.245365 186.009979,61.347996 
	C191.036041,67.798798 194.518097,68.555969 201.425751,64.103622 
	C207.501205,60.187672 213.846268,59.605949 220.457199,62.825569 
	C228.376114,66.682182 232.239120,64.990860 235.148071,56.529797 
	C239.805969,42.981724 254.600845,36.771049 266.377777,46.465820 
	C270.129791,49.554470 272.143005,55.312634 273.814667,60.235443 
	C276.100891,66.968140 277.948547,68.456169 285.003876,67.044739 
	C288.925018,66.260315 293.000854,65.212242 296.895538,65.553726 
	C304.411255,66.212700 308.620758,71.594940 312.318085,77.699646 
	C316.374664,84.397423 320.788788,84.831245 326.675964,79.814552 
	C335.271271,72.490150 342.980804,71.784393 351.935638,78.034958 
	C363.089935,85.820786 362.099213,101.475113 352.105774,108.890175 
	C348.229828,111.766106 346.005371,114.921600 347.317383,119.668182 
	C348.466553,123.825745 353.028412,125.894814 357.689148,124.678665 
	C370.018250,121.461586 379.472198,127.945633 382.764740,139.585754 
	C385.411621,148.943344 378.434357,161.793869 369.445221,163.699966 
	C362.410797,165.191589 356.698242,168.432083 351.639954,173.862228 
	C344.445312,167.601532 336.486633,162.923569 326.570770,163.008423 
	C316.804718,163.091980 308.605042,166.888535 301.583954,173.813232 
	C294.714172,167.238800 286.826508,162.946396 276.990448,162.977509 
	C267.102448,163.008804 258.958954,166.809799 252.040909,174.473068 
	C243.978470,165.260345 233.719589,162.127975 221.585266,163.189514 
M293.126923,125.005547 
	C303.252899,128.100555 305.666534,126.711411 308.019714,116.477203 
	C308.272003,115.379845 308.820923,114.335670 308.968170,113.231613 
	C309.906494,106.196907 306.067078,103.194382 298.950745,103.758614 
	C294.237152,104.132332 289.064484,103.386749 284.640015,101.710144 
	C276.789642,98.735321 274.060577,99.693748 270.285187,106.990311 
	C268.143494,111.129463 264.468567,114.480263 261.451599,118.159393 
	C260.013916,119.912605 257.883087,121.377861 257.154327,123.371338 
	C255.798340,127.080597 259.026855,134.132370 262.465027,135.743439 
	C266.870667,137.807831 270.536835,136.531448 273.628357,132.892075 
	C278.488159,127.171051 284.511658,124.047905 293.126923,125.005547 
M173.344788,92.999321 
	C165.298553,93.225159 163.109314,95.481552 162.956131,103.176437 
	C162.881653,106.918510 162.294022,110.647835 162.028732,114.389320 
	C161.739883,118.463112 163.568039,121.684029 167.316711,122.848289 
	C171.294159,124.083603 175.559296,124.566681 179.737854,124.933327 
	C184.272720,125.331238 187.882996,122.222382 187.926819,117.752472 
	C187.990173,111.288490 191.003052,106.254707 194.932724,101.598198 
	C197.935898,98.039551 197.842972,94.055313 194.440689,89.898781 
	C191.477234,86.278351 188.030167,86.417793 184.199921,88.323845 
	C180.905548,89.963219 177.532166,91.443794 173.344788,92.999321 
z"/>
<path fill="none" opacity="1.000000" stroke="none" 
	d="
M83.301025,257.000000 
	C132.929413,257.000000 182.092987,256.956451 231.255798,257.129944 
	C233.687515,257.138519 236.957687,258.365784 238.395401,260.172852 
	C244.857941,268.295685 259.221619,268.493958 265.360107,260.125977 
	C267.337585,257.430267 269.925446,256.932495 273.127533,256.938293 
	C322.124115,257.026917 371.120941,256.997772 420.117706,257.002197 
	C428.256439,257.002960 430.995300,259.725922 430.997314,267.824402 
	C431.004272,295.989197 431.005005,324.154022 430.996765,352.318817 
	C430.994446,360.246582 428.296295,362.994049 420.474487,362.995514 
	C372.477661,363.004486 324.480621,362.941162 276.484375,363.108124 
	C272.510590,363.121948 270.852325,361.634186 270.047394,358.183685 
	C269.423218,355.508179 268.827698,352.809570 267.947784,350.213287 
	C265.255585,342.269989 259.093658,337.160034 252.241257,337.000885 
	C245.529190,336.845001 238.946045,341.974487 236.105469,349.737274 
	C234.547073,353.996124 234.405426,360.190948 231.422302,362.137939 
	C227.996689,364.373749 222.134384,362.980682 217.330414,362.983673 
	C173.000031,363.011353 128.669617,363.001190 84.339218,362.999023 
	C75.204887,362.998596 73.002174,360.810883 73.001160,351.735962 
	C72.998001,323.571167 72.998619,295.406342 73.000893,267.241547 
	C73.001511,259.609070 75.054398,257.476837 83.301025,257.000000 
M92.642593,348.943329 
	C97.013428,352.237244 101.865494,353.135254 107.361221,353.103546 
	C142.504440,352.900452 177.650681,352.834747 212.792999,353.105530 
	C222.718018,353.182007 230.107880,344.473267 230.039490,335.738403 
	C229.905182,318.583649 229.807983,301.424103 230.077698,284.272552 
	C230.221283,275.142670 221.361404,266.769043 212.786514,266.852753 
	C176.979279,267.202332 141.160187,267.372589 105.360367,266.750153 
	C95.860023,266.584961 86.382034,275.946960 86.817719,285.661621 
	C87.503571,300.954468 87.190918,316.304199 86.908226,331.622620 
	C86.791321,337.957336 87.887787,343.610168 92.642593,348.943329 
M340.991394,267.000305 
	C324.331909,267.000214 307.660126,267.382629 291.017761,266.848541 
	C281.851105,266.554352 273.754547,275.440369 273.905884,283.825439 
	C274.218445,301.145630 274.401459,318.488586 273.835022,335.795868 
	C273.540466,344.797211 282.333984,353.251770 291.039215,353.160034 
	C327.186279,352.779114 363.343262,352.726776 399.488037,353.202881 
	C407.932190,353.314117 416.745056,345.108154 416.909973,336.084106 
	C417.220428,319.097107 417.280640,302.094055 416.894745,285.110138 
	C416.660889,274.817566 409.548370,266.297577 398.155273,266.926605 
	C391.013489,267.320892 383.824493,267.200653 376.671417,266.926727 
	C372.194458,266.755249 369.210602,268.651703 368.117615,272.635254 
	C366.747925,277.627380 368.748566,281.026276 374.591797,281.957062 
	C381.375854,283.037659 388.395691,283.091949 395.290039,282.870483 
	C400.088745,282.716370 401.185425,284.374695 401.098511,288.886169 
	C400.829041,302.874939 400.820801,316.875793 401.100311,330.864166 
	C401.194092,335.556458 400.018951,337.147095 395.043182,337.114227 
	C361.725708,336.894440 328.406036,337.002991 295.087097,336.990875 
	C293.482147,336.990295 291.877228,336.856750 290.327026,336.787567 
	C290.327026,318.678711 290.327026,300.955597 290.327026,283.000000 
	C291.967255,283.000000 293.281464,283.000031 294.595673,283.000031 
	C308.922821,282.999969 323.250092,283.034332 337.577057,282.981750 
	C342.838898,282.962433 347.504730,279.869720 347.888062,275.769836 
	C348.292145,271.448364 346.420868,268.180511 340.991394,267.000305 
z"/>
<path fill="none" opacity="1.000000" stroke="none" 
	d="
M251.173889,400.032654 
	C245.298569,401.345581 243.864441,404.992706 243.917648,410.301392 
	C244.121277,430.615784 244.000000,450.933441 244.000000,471.624817 
	C236.148666,471.624817 228.421432,471.624817 220.263977,471.624817 
	C219.857025,467.652161 219.164047,463.476501 219.046921,459.284790 
	C218.597488,443.201813 218.430786,427.110809 217.964203,411.028442 
	C217.661972,400.611023 217.022217,390.203400 216.496552,379.000000 
	C222.839188,379.000000 228.587494,379.008575 234.335785,378.997864 
	C241.615494,378.984283 243.743576,377.424072 246.120880,370.546051 
	C247.906403,365.380127 249.763229,360.238800 251.979050,353.983551 
	C254.183060,360.227234 256.105286,365.552826 257.942108,370.907745 
	C260.065674,377.098511 262.533325,378.957794 269.039154,378.993317 
	C274.839569,379.024994 280.640259,378.999969 287.297852,378.999969 
	C286.212158,410.029633 285.138763,440.707336 284.054810,471.687500 
	C276.027161,471.687500 268.298615,471.687500 260.000000,471.687500 
	C260.000000,469.414764 260.000000,467.143555 260.000000,464.872345 
	C260.000000,446.715851 260.008881,428.559357 259.995270,410.402863 
	C259.990356,403.814301 258.183014,401.614471 251.173889,400.032654 
z"/>
<path fill="none" opacity="1.000000" stroke="none" 
	d="
M288.801056,240.999084 
	C280.416870,241.329025 272.439575,241.121307 264.649872,242.230682 
	C261.141388,242.730331 257.663269,245.457123 254.805237,247.911514 
	C252.236588,250.117386 250.526825,250.744370 248.361908,247.861252 
	C244.087082,242.168304 238.117584,240.771957 231.384674,240.962021 
	C225.095093,241.139572 218.796570,241.000000 212.071793,241.000000 
	C211.701523,234.633179 211.286377,228.604523 211.015289,222.569366 
	C210.622345,213.821625 210.151749,205.071167 210.056915,196.318161 
	C209.978882,189.115860 213.695709,183.804825 219.955353,180.646530 
	C226.202942,177.494324 232.335861,178.480377 237.700836,182.981995 
	C241.696075,186.334290 244.032196,190.597107 244.012482,195.995850 
	C243.971176,207.314697 243.981628,218.633865 244.007553,229.952805 
	C244.021103,235.866577 246.753723,238.973892 251.853622,238.999924 
	C257.300934,239.027725 259.983978,236.007599 259.994629,229.746185 
	C260.013611,218.593674 259.980194,207.441055 260.006592,196.288559 
	C260.025757,188.202072 265.916260,180.524460 273.182190,179.026886 
	C281.059875,177.403198 289.125061,181.615707 292.009338,189.693329 
	C293.231445,193.116089 292.805695,197.137054 293.058258,200.890884 
	C293.147217,202.212738 293.037659,203.549133 292.998047,204.878265 
	C292.667633,215.959167 292.399475,227.043030 291.884399,238.115387 
	C291.837891,239.114532 290.189117,240.039139 288.801056,240.999084 
z"/>
<path fill="none" opacity="1.000000" stroke="none" 
	d="
M136.547226,464.010437 
	C133.289993,435.735413 130.325577,407.734467 127.286339,379.026917 
	C136.956848,379.026917 145.722565,378.927032 154.477936,379.181915 
	C155.350021,379.207275 156.807800,381.348267 156.892181,382.582672 
	C157.432938,390.493713 157.481079,398.438782 158.038040,406.348267 
	C159.238541,423.396881 160.723099,440.425507 161.923569,457.474121 
	C162.248367,462.086670 161.972809,466.741486 161.972809,471.904907 
	C153.383911,471.165314 142.958557,475.543945 136.547226,464.010437 
z"/>
<path fill="none" opacity="1.000000" stroke="none" 
	d="
M173.004654,392.735962 
	C173.001038,387.975464 173.001038,383.688904 173.001038,379.204712 
	C181.668640,379.204712 190.966080,379.204712 200.408051,379.204712 
	C200.560181,379.538391 200.917160,379.962677 200.927094,380.394928 
	C201.304550,396.817474 201.613388,413.241608 202.012970,429.663605 
	C202.278839,440.590668 202.600662,451.517487 203.046051,462.438385 
	C203.169434,465.463531 203.824036,468.467010 204.305099,471.995300 
	C196.125366,471.995300 188.660294,472.134369 181.211945,471.844513 
	C180.102249,471.801361 178.238556,469.808807 178.139725,468.602173 
	C177.533371,461.198273 177.412140,453.756531 176.984207,446.335785 
	C176.026016,429.719482 174.997345,413.107147 173.941299,396.496735 
	C173.870682,395.385864 173.330200,394.304810 173.004654,392.735962 
z"/>
<path fill="none" opacity="1.000000" stroke="none" 
	d="
M301.000000,443.016113 
	C301.333679,429.929657 301.567596,417.334900 302.036041,404.748901 
	C302.348633,396.351227 302.995331,387.965942 303.509857,379.282104 
	C312.382996,379.282104 321.442688,379.282104 331.379822,379.282104 
	C330.684662,389.079498 330.002930,398.715820 329.308258,408.351227 
	C329.285400,408.668488 328.991211,409.010712 329.058350,409.283478 
	C331.070740,417.463165 326.030731,422.972595 322.093719,429.193878 
	C315.319183,439.899200 316.469391,450.924927 323.011444,461.381653 
	C325.101471,464.722351 327.342438,467.617706 324.310547,471.790497 
	C316.693359,471.790497 308.599640,471.790497 301.000000,471.790497 
	C301.000000,462.244324 301.000000,452.877930 301.000000,443.016113 
z"/>
<path fill="none" opacity="1.000000" stroke="none" 
	d="
M390.999969,231.899933 
	C390.584625,235.084274 390.169373,237.808472 389.719360,240.760590 
	C378.959534,240.760590 368.225922,240.760590 356.490753,240.760590 
	C357.304199,230.436172 358.133362,220.336914 358.883270,210.231781 
	C359.320923,204.334335 359.332825,198.389206 360.081970,192.535370 
	C360.870514,186.373596 364.661194,182.171707 370.458618,180.040115 
	C376.441498,177.840332 381.842010,178.662827 386.769714,183.162628 
	C391.220612,187.226974 393.398224,191.931015 393.013916,197.931641 
	C392.298676,209.098206 391.666687,220.270111 390.999969,231.899933 
z"/>
<path fill="none" opacity="1.000000" stroke="none" 
	d="
M112.004669,225.779022 
	C111.667358,215.911926 111.456451,206.503464 110.966782,197.109497 
	C110.436897,186.944016 118.812820,179.285812 126.321404,179.021851 
	C136.998627,178.646515 143.187042,184.486176 144.002731,195.493500 
	C144.996536,208.904526 146.012497,222.313919 146.984146,235.726532 
	C147.100571,237.333466 147.000000,238.956100 147.000000,240.782074 
	C135.967545,240.782074 125.381851,240.782074 114.132660,240.782074 
	C113.440590,236.045883 112.724442,231.144974 112.004669,225.779022 
z"/>
<path fill="none" opacity="1.000000" stroke="none" 
	d="
M319.023224,241.000000 
	C315.221619,241.000000 311.916351,241.000000 307.667419,241.000000 
	C308.131470,235.838043 308.799316,231.019699 308.943878,226.185699 
	C309.157654,219.038773 308.766937,211.870499 309.080933,204.730988 
	C309.294189,199.883133 309.775085,194.935669 311.022186,190.269516 
	C313.148865,182.312103 320.721832,177.926300 329.227570,179.009018 
	C336.648560,179.953674 343.201508,187.200043 342.937561,194.929276 
	C342.420288,210.079147 341.540924,225.216660 340.780548,241.000000 
	C333.688171,241.000000 326.603882,241.000000 319.023224,241.000000 
z"/>
<path fill="none" opacity="1.000000" stroke="none" 
	d="
M171.390747,180.008759 
	C182.071091,175.842361 193.937698,184.051620 194.048584,195.415970 
	C194.164810,207.324615 194.600403,219.232010 195.046707,231.134308 
	C195.161728,234.202225 195.841080,237.248978 196.313309,240.684662 
	C185.103897,240.684662 174.373398,240.684662 163.515533,240.684662 
	C163.028610,236.079620 162.299149,231.408249 162.085648,226.713394 
	C161.589798,215.809036 161.192917,204.895309 161.049683,193.981522 
	C160.959320,187.096283 165.280899,182.983597 171.390747,180.008759 
z"/>
<path fill="none" opacity="1.000000" stroke="none" 
	d="
M358.376282,459.012024 
	C354.420105,459.004517 350.863129,459.263550 347.356567,458.952942 
	C340.722137,458.365326 334.886017,453.134216 334.013733,447.387634 
	C332.902283,440.065430 336.717712,433.313629 343.203552,430.261810 
	C346.215820,428.844482 349.203979,427.016296 351.610779,424.746338 
	C356.676483,419.968658 362.400665,418.560944 368.666168,421.107758 
	C374.691528,423.556976 378.033905,428.317413 378.010895,435.098297 
	C377.996918,439.212830 380.458252,441.585052 383.847229,443.419189 
	C390.355621,446.941528 393.579865,454.223206 391.699738,460.795593 
	C389.781616,467.500977 382.917450,472.950836 375.989563,471.746704 
	C372.084076,471.067902 368.416992,468.118683 365.030090,465.658661 
	C362.618256,463.906860 360.852386,461.265656 358.376282,459.012024 
z"/>
<path fill="none" opacity="1.000000" stroke="none" 
	d="
M347.000061,383.121765 
	C347.813080,381.431519 348.597198,379.186951 349.443359,379.163330 
	C358.546082,378.908997 367.658569,379.004852 376.691772,379.004852 
	C375.782501,388.122833 374.913605,396.836151 374.019501,405.801910 
	C364.258698,402.470306 355.211456,403.844696 345.740936,408.378510 
	C346.184753,399.643738 346.592346,391.621185 347.000061,383.121765 
z"/>
<path fill="none" opacity="1.000000" stroke="none" 
	d="
M97.668823,238.301865 
	C97.222801,239.450943 96.577408,240.821320 95.817139,240.888321 
	C92.865929,241.148453 89.878189,240.994217 85.998436,240.994217 
	C89.287346,235.484299 92.308762,230.422531 96.062325,224.134171 
	C96.605003,229.659760 97.010849,233.792084 97.668823,238.301865 
z"/>
<path fill="none" opacity="1.000000" stroke="none" 
	d="
M416.081818,240.992584 
	C412.561554,240.998550 409.448944,240.998550 406.013000,240.998550 
	C406.618927,235.496536 407.171814,230.475998 407.854523,224.276840 
	C411.328827,230.086823 414.145813,234.753113 416.880005,239.467392 
	C417.067017,239.789825 416.634064,240.471832 416.081818,240.992584 
z"/>
<path fill="#F1C40F" opacity="1.000000" stroke="none" 
	d="
M292.679688,125.003128 
	C284.511658,124.047905 278.488159,127.171051 273.628357,132.892075 
	C270.536835,136.531448 266.870667,137.807831 262.465027,135.743439 
	C259.026855,134.132370 255.798340,127.080597 257.154327,123.371338 
	C257.883087,121.377861 260.013916,119.912605 261.451599,118.159393 
	C264.468567,114.480263 268.143494,111.129463 270.285187,106.990311 
	C274.060577,99.693748 276.789642,98.735321 284.640015,101.710144 
	C289.064484,103.386749 294.237152,104.132332 298.950745,103.758614 
	C306.067078,103.194382 309.906494,106.196907 308.968170,113.231613 
	C308.820923,114.335670 308.272003,115.379845 308.019714,116.477203 
	C305.666534,126.711411 303.252899,128.100555 292.679688,125.003128 
z"/>
<path fill="#F1C40F" opacity="1.000000" stroke="none" 
	d="
M173.769257,92.996948 
	C177.532166,91.443794 180.905548,89.963219 184.199921,88.323845 
	C188.030167,86.417793 191.477234,86.278351 194.440689,89.898781 
	C197.842972,94.055313 197.935898,98.039551 194.932724,101.598198 
	C191.003052,106.254707 187.990173,111.288490 187.926819,117.752472 
	C187.882996,122.222382 184.272720,125.331238 179.737854,124.933327 
	C175.559296,124.566681 171.294159,124.083603 167.316711,122.848289 
	C163.568039,121.684029 161.739883,118.463112 162.028732,114.389320 
	C162.294022,110.647835 162.881653,106.918510 162.956131,103.176437 
	C163.109314,95.481552 165.298553,93.225159 173.769257,92.996948 
z"/>
<path fill="#F1C40F" opacity="1.000000" stroke="none" 
	d="
M92.333008,348.723877 
	C87.887787,343.610168 86.791321,337.957336 86.908226,331.622620 
	C87.190918,316.304199 87.503571,300.954468 86.817719,285.661621 
	C86.382034,275.946960 95.860023,266.584961 105.360367,266.750153 
	C141.160187,267.372589 176.979279,267.202332 212.786514,266.852753 
	C221.361404,266.769043 230.221283,275.142670 230.077698,284.272552 
	C229.807983,301.424103 229.905182,318.583649 230.039490,335.738403 
	C230.107880,344.473267 222.718018,353.182007 212.792999,353.105530 
	C177.650681,352.834747 142.504440,352.900452 107.361221,353.103546 
	C101.865494,353.135254 97.013428,352.237244 92.333008,348.723877 
M178.500000,337.000000 
	C190.249084,337.000000 201.998169,337.000000 213.673630,337.000000 
	C213.673630,318.658508 213.673630,300.945984 213.673630,283.313354 
	C176.651657,283.313354 139.956879,283.313354 103.326157,283.313354 
	C103.326157,301.341064 103.326157,319.053558 103.326157,337.000000 
	C128.267715,337.000000 152.883865,337.000000 178.500000,337.000000 
z"/>
<path fill="#F1C40F" opacity="1.000000" stroke="none" 
	d="
M341.432800,267.001373 
	C346.420868,268.180511 348.292145,271.448364 347.888062,275.769836 
	C347.504730,279.869720 342.838898,282.962433 337.577057,282.981750 
	C323.250092,283.034332 308.922821,282.999969 294.595673,283.000031 
	C293.281464,283.000031 291.967255,283.000000 290.327026,283.000000 
	C290.327026,300.955597 290.327026,318.678711 290.327026,336.787567 
	C291.877228,336.856750 293.482147,336.990295 295.087097,336.990875 
	C328.406036,337.002991 361.725708,336.894440 395.043182,337.114227 
	C400.018951,337.147095 401.194092,335.556458 401.100311,330.864166 
	C400.820801,316.875793 400.829041,302.874939 401.098511,288.886169 
	C401.185425,284.374695 400.088745,282.716370 395.290039,282.870483 
	C388.395691,283.091949 381.375854,283.037659 374.591797,281.957062 
	C368.748566,281.026276 366.747925,277.627380 368.117615,272.635254 
	C369.210602,268.651703 372.194458,266.755249 376.671417,266.926727 
	C383.824493,267.200653 391.013489,267.320892 398.155273,266.926605 
	C409.548370,266.297577 416.660889,274.817566 416.894745,285.110138 
	C417.280640,302.094055 417.220428,319.097107 416.909973,336.084106 
	C416.745056,345.108154 407.932190,353.314117 399.488037,353.202881 
	C363.343262,352.726776 327.186279,352.779114 291.039215,353.160034 
	C282.333984,353.251770 273.540466,344.797211 273.835022,335.795868 
	C274.401459,318.488586 274.218445,301.145630 273.905884,283.825439 
	C273.754547,275.440369 281.851105,266.554352 291.017761,266.848541 
	C307.660126,267.382629 324.331909,267.000214 341.432800,267.001373 
z"/>
<path fill="none" opacity="1.000000" stroke="none" 
	d="
M178.000000,337.000000 
	C152.883865,337.000000 128.267715,337.000000 103.326157,337.000000 
	C103.326157,319.053558 103.326157,301.341064 103.326157,283.313354 
	C139.956879,283.313354 176.651657,283.313354 213.673630,283.313354 
	C213.673630,300.945984 213.673630,318.658508 213.673630,337.000000 
	C201.998169,337.000000 190.249084,337.000000 178.000000,337.000000 
z"/>
</svg>