<svg version="1.1" id="Layer_1" xmlns="http://www.w3.org/2000/svg" xmlns:xlink="http://www.w3.org/1999/xlink" x="0px" y="0px"
	 width="100%" viewBox="0 0 256 256" enable-background="new 0 0 256 256" xml:space="preserve">
<path fill="none" opacity="1.000000" stroke="none" 
	d="
M141.000000,257.000000 
	C94.000000,257.000000 47.500004,257.000000 1.000006,257.000000 
	C1.000004,171.666672 1.000004,86.333351 1.000002,1.000018 
	C86.333321,1.000012 171.666641,1.000012 257.000000,1.000006 
	C257.000000,86.333313 257.000000,171.666626 257.000000,256.999969 
	C218.500000,257.000000 180.000000,257.000000 141.000000,257.000000 
M73.647942,230.999634 
	C110.642204,230.999634 147.636459,231.000732 184.630722,230.995682 
	C186.127548,230.995483 187.701950,231.232101 189.109528,230.861755 
	C208.827744,225.673645 220.746033,211.423996 220.790665,190.907349 
	C220.803772,184.876801 218.731354,178.708893 216.885162,172.833176 
	C212.219086,157.982727 209.206909,142.301941 199.382080,129.683334 
	C193.045944,121.545479 185.558624,114.303940 179.029938,107.146065 
	C179.994919,99.102089 181.153793,90.754822 181.949921,82.373093 
	C182.543259,76.126373 182.610962,69.831192 183.044235,63.566681 
	C183.140549,62.174187 183.788727,60.819862 183.967697,60.196854 
	C187.112915,62.389626 189.746475,65.083855 192.942688,66.302925 
	C205.629028,71.141663 218.462372,75.602829 231.299225,80.035980 
	C238.713409,82.596436 245.194992,79.482956 247.870071,72.321320 
	C249.629578,67.610863 251.340546,62.879219 252.934845,58.110786 
	C255.823685,49.470516 252.558746,43.147175 243.832047,40.013870 
	C233.134171,36.172813 222.493073,32.172508 211.776749,28.384438 
	C206.415466,26.489309 201.078491,24.403458 195.284546,27.592133 
	C192.858856,28.927107 189.816788,30.029263 187.136536,29.869436 
	C170.735748,28.891455 157.493332,40.651546 154.266739,55.239853 
	C152.233932,64.430702 152.807617,74.180473 151.932495,83.653694 
	C151.587357,87.389839 150.482361,91.055794 149.772217,94.515717 
	C135.211487,92.516029 121.744682,91.987732 106.949348,94.961693 
	C106.282364,88.611786 105.534012,82.538910 105.036034,76.445572 
	C104.554962,70.558891 105.081703,64.489449 103.851364,58.783710 
	C100.508415,43.280628 89.058052,29.467712 70.467369,29.901554 
	C68.178207,29.954975 65.892632,28.496380 63.544941,28.076141 
	C59.461147,27.345137 54.877037,25.433323 51.299515,26.555925 
	C37.685951,30.827763 24.345518,35.995529 10.997933,41.077770 
	C5.097250,43.324524 2.303458,49.103825 4.039140,55.264721 
	C5.660344,61.019272 7.557575,66.729164 9.809371,72.265083 
	C13.057779,80.251106 18.744070,82.710953 26.856970,79.991608 
	C33.790913,77.667427 40.905228,75.688805 47.514633,72.636711 
	C56.182850,68.633881 66.692024,68.369286 73.573280,59.355881 
	C76.706886,75.797630 72.390129,92.390129 79.956841,107.469803 
	C62.058872,119.808525 50.855171,136.633011 45.295525,157.168533 
	C41.911667,169.667389 36.390862,181.548050 36.803196,195.132858 
	C37.329502,212.472717 54.723282,231.131897 73.647942,230.999634 
z"/>
<path fill="#F1C40F" opacity="1.000000" stroke="none" 
	d="
M73.171555,230.999634 
	C54.723282,231.131897 37.329502,212.472717 36.803196,195.132858 
	C36.390862,181.548050 41.911667,169.667389 45.295525,157.168533 
	C50.855171,136.633011 62.058872,119.808525 79.956841,107.469803 
	C72.390129,92.390129 76.706886,75.797630 73.573280,59.355881 
	C66.692024,68.369286 56.182850,68.633881 47.514633,72.636711 
	C40.905228,75.688805 33.790913,77.667427 26.856970,79.991608 
	C18.744070,82.710953 13.057779,80.251106 9.809371,72.265083 
	C7.557575,66.729164 5.660344,61.019272 4.039140,55.264721 
	C2.303458,49.103825 5.097250,43.324524 10.997933,41.077770 
	C24.345518,35.995529 37.685951,30.827763 51.299515,26.555925 
	C54.877037,25.433323 59.461147,27.345137 63.544941,28.076141 
	C65.892632,28.496380 68.178207,29.954975 70.467369,29.901554 
	C89.058052,29.467712 100.508415,43.280628 103.851364,58.783710 
	C105.081703,64.489449 104.554962,70.558891 105.036034,76.445572 
	C105.534012,82.538910 106.282364,88.611786 106.949348,94.961693 
	C121.744682,91.987732 135.211487,92.516029 149.772217,94.515717 
	C150.482361,91.055794 151.587357,87.389839 151.932495,83.653694 
	C152.807617,74.180473 152.233932,64.430702 154.266739,55.239853 
	C157.493332,40.651546 170.735748,28.891455 187.136536,29.869436 
	C189.816788,30.029263 192.858856,28.927107 195.284546,27.592133 
	C201.078491,24.403458 206.415466,26.489309 211.776749,28.384438 
	C222.493073,32.172508 233.134171,36.172813 243.832047,40.013870 
	C252.558746,43.147175 255.823685,49.470516 252.934845,58.110786 
	C251.340546,62.879219 249.629578,67.610863 247.870071,72.321320 
	C245.194992,79.482956 238.713409,82.596436 231.299225,80.035980 
	C218.462372,75.602829 205.629028,71.141663 192.942688,66.302925 
	C189.746475,65.083855 187.112915,62.389626 183.967697,60.196854 
	C183.788727,60.819862 183.140549,62.174187 183.044235,63.566681 
	C182.610962,69.831192 182.543259,76.126373 181.949921,82.373093 
	C181.153793,90.754822 179.994919,99.102089 179.029938,107.146065 
	C185.558624,114.303940 193.045944,121.545479 199.382080,129.683334 
	C209.206909,142.301941 212.219086,157.982727 216.885162,172.833176 
	C218.731354,178.708893 220.803772,184.876801 220.790665,190.907349 
	C220.746033,211.423996 208.827744,225.673645 189.109528,230.861755 
	C187.701950,231.232101 186.127548,230.995483 184.630722,230.995682 
	C147.636459,231.000732 110.642204,230.999634 73.171555,230.999634 
M50.001686,172.534378 
	C46.785004,182.752319 43.506424,192.849792 47.936275,203.708969 
	C51.509075,212.467194 65.284065,224.256134 74.716263,221.635101 
	C76.938507,212.005875 86.879189,202.319977 99.563156,202.795090 
	C120.022781,203.561478 140.532150,202.982437 161.020370,203.034180 
	C162.777405,203.038620 164.579132,203.338593 166.282059,203.793411 
	C175.620712,206.287552 180.122635,213.253738 182.451569,221.853119 
	C199.591629,223.118515 215.429199,202.666351 211.327209,187.153122 
	C209.011902,178.396957 206.477585,169.697189 203.942780,161.000916 
	C199.862701,147.003082 193.524536,134.168411 182.934158,123.951538 
	C163.771469,105.464668 140.848907,98.267311 114.626083,103.065247 
	C90.466850,107.485603 72.189583,120.715973 61.030704,142.614487 
	C56.353111,151.793930 53.658756,161.983963 50.001686,172.534378 
M47.426319,62.976761 
	C52.005413,61.305927 56.710571,59.900894 61.095707,57.821114 
	C62.645443,57.086105 64.648338,54.383774 64.323219,53.129398 
	C62.985226,47.967060 60.938541,42.972958 58.933949,38.005161 
	C57.886147,35.408508 55.998188,34.337879 52.988457,35.452652 
	C40.536339,40.064785 28.036188,44.547726 15.539272,49.038029 
	C12.966831,49.962337 11.993733,51.465218 12.957449,54.183094 
	C14.739660,59.209301 16.089659,64.421394 18.307055,69.239731 
	C18.929457,70.592194 22.289019,71.902138 23.815435,71.416405 
	C31.525188,68.963020 39.044258,65.910393 47.426319,62.976761 
M243.999252,55.529240 
	C245.390732,52.804016 245.363846,50.266788 242.152344,49.093796 
	C229.417831,44.442577 216.614838,39.979214 203.860016,35.382965 
	C201.092789,34.385777 199.501312,35.260326 198.526169,37.931580 
	C196.798859,42.663193 194.842331,47.314518 193.230011,52.083382 
	C192.314392,54.791515 193.296432,56.946709 196.171082,57.973400 
	C208.331375,62.316509 220.566864,66.465691 232.606140,71.122017 
	C236.804245,72.745682 238.367905,70.810112 239.651764,67.714348 
	C241.204636,63.969967 242.517792,60.126171 243.999252,55.529240 
M118.500298,210.998962 
	C113.001976,210.999039 107.489891,210.751434 102.008507,211.056198 
	C93.408646,211.534363 85.392273,214.987869 84.346550,222.629883 
	C113.839249,222.629883 143.334579,222.629883 172.929047,222.629883 
	C170.471741,213.733002 164.649887,211.467560 154.985321,211.104645 
	C143.172287,210.661041 131.329880,210.998978 118.500298,210.998962 
M81.091156,41.200031 
	C77.165680,40.176975 73.240204,39.153919 68.381119,37.887547 
	C70.959480,43.365486 71.283211,48.217831 76.869469,50.906490 
	C79.837540,52.335011 82.221252,57.316822 82.747864,60.998081 
	C83.888680,68.973083 83.397125,77.166313 84.089981,85.225868 
	C84.578751,90.911339 85.917381,96.523758 86.968376,102.709015 
	C91.798187,100.607796 95.431046,99.027306 99.119041,97.422829 
	C98.651031,96.319847 98.118385,95.601562 98.060661,94.846939 
	C97.334282,85.350975 96.678787,75.849602 96.000542,66.349945 
	C95.247131,55.797428 91.151054,47.168873 81.091156,41.200031 
M160.998962,83.333588 
	C160.288437,88.090889 159.577896,92.848190 158.863861,97.628998 
	C162.124695,99.161659 165.886719,100.929871 169.725479,102.734154 
	C170.170807,101.382370 170.837143,100.159714 170.951752,98.887360 
	C172.022171,87.004959 173.207184,75.126305 173.905991,63.219978 
	C174.219147,57.884499 175.817673,52.468418 180.249878,50.728226 
	C186.250046,48.372398 186.322495,43.819660 187.902771,39.355137 
	C177.176453,36.942646 164.274551,48.023926 162.188461,59.735806 
	C160.873703,67.117279 161.334595,74.815025 160.998962,83.333588 
z"/>
<path fill="none" opacity="1.000000" stroke="none" 
	d="
M50.032219,172.124466 
	C53.658756,161.983963 56.353111,151.793930 61.030704,142.614487 
	C72.189583,120.715973 90.466850,107.485603 114.626083,103.065247 
	C140.848907,98.267311 163.771469,105.464668 182.934158,123.951538 
	C193.524536,134.168411 199.862701,147.003082 203.942780,161.000916 
	C206.477585,169.697189 209.011902,178.396957 211.327209,187.153122 
	C215.429199,202.666351 199.591629,223.118515 182.451569,221.853119 
	C180.122635,213.253738 175.620712,206.287552 166.282059,203.793411 
	C164.579132,203.338593 162.777405,203.038620 161.020370,203.034180 
	C140.532150,202.982437 120.022781,203.561478 99.563156,202.795090 
	C86.879189,202.319977 76.938507,212.005875 74.716263,221.635101 
	C65.284065,224.256134 51.509075,212.467194 47.936275,203.708969 
	C43.506424,192.849792 46.785004,182.752319 50.032219,172.124466 
M139.442169,188.035919 
	C149.121796,172.036270 158.800568,156.036118 168.481842,140.037460 
	C170.130341,137.313248 171.282990,133.969742 168.249039,132.171799 
	C166.471222,131.118256 162.703629,131.623535 160.791031,132.884079 
	C146.915527,142.029068 133.133011,151.334137 119.637688,161.029266 
	C112.471352,166.177628 110.459351,173.404572 112.570648,180.539017 
	C115.185471,189.375031 126.449921,197.036560 139.442169,188.035919 
M97.009186,138.482346 
	C87.892517,146.172058 82.342148,155.769089 81.652313,168.001373 
	C79.684708,168.001373 78.021690,168.121872 76.382477,167.975647 
	C73.217430,167.693329 71.877335,168.839630 71.918739,172.201523 
	C71.958855,175.460236 73.498032,176.143234 76.283241,176.028534 
	C79.443008,175.898407 82.617203,175.888504 85.775894,176.031067 
	C88.623695,176.159607 89.798225,175.289322 90.106583,172.151413 
	C90.890800,164.171204 92.570374,156.492981 98.264435,150.144531 
	C109.857109,137.219574 123.937630,133.268890 140.693512,137.056259 
	C142.318024,137.423447 144.557297,135.070816 146.511215,133.980728 
	C145.459915,132.319229 144.779709,129.858917 143.280167,129.162354 
	C140.147476,127.707138 136.582352,127.182800 133.729065,126.419060 
	C131.066589,123.545425 136.554764,117.326477 129.259521,117.070557 
	C121.168312,116.786705 127.159119,123.968201 124.311798,126.692070 
	C114.298485,127.540520 105.254082,131.194397 97.009186,138.482346 
M175.000839,165.497971 
	C174.339859,162.338821 174.161057,158.951797 172.820007,156.114029 
	C172.120743,154.634369 169.155060,153.132385 167.618301,153.472351 
	C166.280579,153.768280 164.671402,156.636414 164.668686,158.370255 
	C164.663193,161.886459 165.522415,165.434860 166.278549,168.914932 
	C167.820984,176.013901 167.890091,175.998917 175.278152,175.998947 
	C177.102783,175.998962 178.952240,175.806992 180.746811,176.039215 
	C184.288910,176.497589 185.896973,174.150406 185.704193,171.552094 
	C185.608154,170.257675 182.731918,168.929611 180.900284,168.071503 
	C179.076843,167.217224 176.986633,166.932327 175.000839,165.497971 
z"/>
<path fill="none" opacity="1.000000" stroke="none" 
	d="
M47.028267,63.022362 
	C39.044258,65.910393 31.525188,68.963020 23.815435,71.416405 
	C22.289019,71.902138 18.929457,70.592194 18.307055,69.239731 
	C16.089659,64.421394 14.739660,59.209301 12.957449,54.183094 
	C11.993733,51.465218 12.966831,49.962337 15.539272,49.038029 
	C28.036188,44.547726 40.536339,40.064785 52.988457,35.452652 
	C55.998188,34.337879 57.886147,35.408508 58.933949,38.005161 
	C60.938541,42.972958 62.985226,47.967060 64.323219,53.129398 
	C64.648338,54.383774 62.645443,57.086105 61.095707,57.821114 
	C56.710571,59.900894 52.005413,61.305927 47.028267,63.022362 
z"/>
<path fill="none" opacity="1.000000" stroke="none" 
	d="
M243.966980,55.927322 
	C242.517792,60.126171 241.204636,63.969967 239.651764,67.714348 
	C238.367905,70.810112 236.804245,72.745682 232.606140,71.122017 
	C220.566864,66.465691 208.331375,62.316509 196.171082,57.973400 
	C193.296432,56.946709 192.314392,54.791515 193.230011,52.083382 
	C194.842331,47.314518 196.798859,42.663193 198.526169,37.931580 
	C199.501312,35.260326 201.092789,34.385777 203.860016,35.382965 
	C216.614838,39.979214 229.417831,44.442577 242.152344,49.093796 
	C245.363846,50.266788 245.390732,52.804016 243.966980,55.927322 
z"/>
<path fill="none" opacity="1.000000" stroke="none" 
	d="
M119.000244,210.998962 
	C131.329880,210.998978 143.172287,210.661041 154.985321,211.104645 
	C164.649887,211.467560 170.471741,213.733002 172.929047,222.629883 
	C143.334579,222.629883 113.839249,222.629883 84.346550,222.629883 
	C85.392273,214.987869 93.408646,211.534363 102.008507,211.056198 
	C107.489891,210.751434 113.001976,210.999039 119.000244,210.998962 
z"/>
<path fill="none" opacity="1.000000" stroke="none" 
	d="
M81.415756,41.402084 
	C91.151054,47.168873 95.247131,55.797428 96.000542,66.349945 
	C96.678787,75.849602 97.334282,85.350975 98.060661,94.846939 
	C98.118385,95.601562 98.651031,96.319847 99.119041,97.422829 
	C95.431046,99.027306 91.798187,100.607796 86.968376,102.709015 
	C85.917381,96.523758 84.578751,90.911339 84.089981,85.225868 
	C83.397125,77.166313 83.888680,68.973083 82.747864,60.998081 
	C82.221252,57.316822 79.837540,52.335011 76.869469,50.906490 
	C71.283211,48.217831 70.959480,43.365486 68.381119,37.887547 
	C73.240204,39.153919 77.165680,40.176975 81.415756,41.402084 
z"/>
<path fill="none" opacity="1.000000" stroke="none" 
	d="
M160.998962,82.852242 
	C161.334595,74.815025 160.873703,67.117279 162.188461,59.735806 
	C164.274551,48.023926 177.176453,36.942646 187.902771,39.355137 
	C186.322495,43.819660 186.250046,48.372398 180.249878,50.728226 
	C175.817673,52.468418 174.219147,57.884499 173.905991,63.219978 
	C173.207184,75.126305 172.022171,87.004959 170.951752,98.887360 
	C170.837143,100.159714 170.170807,101.382370 169.725479,102.734154 
	C165.886719,100.929871 162.124695,99.161659 158.863861,97.628998 
	C159.577896,92.848190 160.288437,88.090889 160.998962,82.852242 
z"/>
<path fill="#F1C40F" opacity="1.000000" stroke="none" 
	d="
M139.178558,188.307343 
	C126.449921,197.036560 115.185471,189.375031 112.570648,180.539017 
	C110.459351,173.404572 112.471352,166.177628 119.637688,161.029266 
	C133.133011,151.334137 146.915527,142.029068 160.791031,132.884079 
	C162.703629,131.623535 166.471222,131.118256 168.249039,132.171799 
	C171.282990,133.969742 170.130341,137.313248 168.481842,140.037460 
	C158.800568,156.036118 149.121796,172.036270 139.178558,188.307343 
M143.743088,165.228409 
	C146.543884,160.360825 149.344681,155.493225 152.857269,149.388565 
	C149.536957,151.529114 147.462143,152.753738 145.507507,154.146957 
	C138.169708,159.377197 130.664597,164.404144 123.635117,170.023788 
	C119.405144,173.405396 119.880821,178.106445 123.914314,181.422440 
	C127.475540,184.350189 131.159088,183.678879 134.262955,179.293915 
	C137.386078,174.881775 140.313843,170.331360 143.743088,165.228409 
z"/>
<path fill="#F1C40F" opacity="1.000000" stroke="none" 
	d="
M97.267105,138.233017 
	C105.254082,131.194397 114.298485,127.540520 124.311798,126.692070 
	C127.159119,123.968201 121.168312,116.786705 129.259521,117.070557 
	C136.554764,117.326477 131.066589,123.545425 133.729065,126.419060 
	C136.582352,127.182800 140.147476,127.707138 143.280167,129.162354 
	C144.779709,129.858917 145.459915,132.319229 146.511215,133.980728 
	C144.557297,135.070816 142.318024,137.423447 140.693512,137.056259 
	C123.937630,133.268890 109.857109,137.219574 98.264435,150.144531 
	C92.570374,156.492981 90.890800,164.171204 90.106583,172.151413 
	C89.798225,175.289322 88.623695,176.159607 85.775894,176.031067 
	C82.617203,175.888504 79.443008,175.898407 76.283241,176.028534 
	C73.498032,176.143234 71.958855,175.460236 71.918739,172.201523 
	C71.877335,168.839630 73.217430,167.693329 76.382477,167.975647 
	C78.021690,168.121872 79.684708,168.001373 81.652313,168.001373 
	C82.342148,155.769089 87.892517,146.172058 97.267105,138.233017 
z"/>
<path fill="#F1C40F" opacity="1.000000" stroke="none" 
	d="
M175.007111,165.947876 
	C176.986633,166.932327 179.076843,167.217224 180.900284,168.071503 
	C182.731918,168.929611 185.608154,170.257675 185.704193,171.552094 
	C185.896973,174.150406 184.288910,176.497589 180.746811,176.039215 
	C178.952240,175.806992 177.102783,175.998962 175.278152,175.998947 
	C167.890091,175.998917 167.820984,176.013901 166.278549,168.914932 
	C165.522415,165.434860 164.663193,161.886459 164.668686,158.370255 
	C164.671402,156.636414 166.280579,153.768280 167.618301,153.472351 
	C169.155060,153.132385 172.120743,154.634369 172.820007,156.114029 
	C174.161057,158.951797 174.339859,162.338821 175.007111,165.947876 
z"/>
<path fill="none" opacity="1.000000" stroke="none" 
	d="
M143.535141,165.534973 
	C140.313843,170.331360 137.386078,174.881775 134.262955,179.293915 
	C131.159088,183.678879 127.475540,184.350189 123.914314,181.422440 
	C119.880821,178.106445 119.405144,173.405396 123.635117,170.023788 
	C130.664597,164.404144 138.169708,159.377197 145.507507,154.146957 
	C147.462143,152.753738 149.536957,151.529114 152.857269,149.388565 
	C149.344681,155.493225 146.543884,160.360825 143.535141,165.534973 
z"/>
</svg>