<svg version="1.1" id="Layer_1" xmlns="http://www.w3.org/2000/svg" xmlns:xlink="http://www.w3.org/1999/xlink" x="0px" y="0px"
	 width="100%" viewBox="0 0 256 256" enable-background="new 0 0 256 256" xml:space="preserve">
<path fill="none" opacity="1.000000" stroke="none" 
	d="
M150.000000,257.000000 
	C100.000000,257.000000 50.500008,257.000000 1.000007,257.000000 
	C1.000004,171.666672 1.000004,86.333351 1.000002,1.000018 
	C86.333321,1.000012 171.666641,1.000012 257.000000,1.000006 
	C257.000000,86.333313 257.000000,171.666626 257.000000,256.999969 
	C221.500000,257.000000 186.000000,257.000000 150.000000,257.000000 
M33.992970,229.575928 
	C34.659649,232.242813 35.593746,234.876343 35.931622,237.584259 
	C36.465866,241.866028 38.904980,244.578659 42.698277,245.771332 
	C46.537529,246.978470 49.622276,245.134949 52.304131,242.243912 
	C62.354916,231.409210 72.548706,220.707047 82.582214,209.856552 
	C83.730888,208.614365 84.623566,206.828644 84.932663,205.164505 
	C87.897278,189.203354 90.710861,173.214142 93.680138,156.604126 
	C95.534218,157.944397 97.506531,158.872986 98.801071,160.382736 
	C111.935471,175.700500 139.169266,177.434082 153.197311,165.390671 
	C156.718857,162.367340 160.415298,159.547775 164.446030,156.300476 
	C166.739578,170.045624 168.729767,182.891647 171.094971,195.668259 
	C171.967926,200.383865 172.458359,206.009811 175.307114,209.367966 
	C185.177597,221.003464 195.850525,231.981216 206.617630,242.812088 
	C208.574722,244.780762 212.956177,246.331680 215.240601,245.473221 
	C218.032486,244.424072 221.069336,240.945160 221.801819,237.974808 
	C228.997757,208.794556 235.782578,179.512207 242.565140,150.231308 
	C243.920105,144.381790 246.004440,138.323044 245.570480,132.524063 
	C244.882858,123.335915 242.455902,114.264610 240.582367,105.181511 
	C237.462097,90.054237 234.243332,74.946831 230.979950,59.849670 
	C228.032394,46.213673 225.083588,32.575706 221.881104,18.998571 
	C221.031952,15.398434 218.801926,12.429008 214.598495,12.032908 
	C210.930328,11.687248 208.259354,12.877285 205.867676,16.130590 
	C197.823120,27.073254 189.233215,37.613674 181.110062,48.500568 
	C178.040009,52.615131 174.425262,56.943619 173.236374,61.716953 
	C170.452713,72.893135 169.011658,84.401886 166.972534,95.766220 
	C166.157318,100.309441 165.198624,104.826920 164.148621,110.150276 
	C140.496536,86.405220 117.080582,86.671799 93.646042,110.239517 
	C91.288307,96.331718 89.325417,83.631897 86.905121,71.019844 
	C85.916252,65.866890 85.083237,60.096222 82.198349,56.002625 
	C72.669106,42.480797 62.054863,29.728634 52.273487,16.376011 
	C49.743256,12.921972 47.026096,11.623130 43.197762,12.056263 
	C39.038315,12.526855 36.964855,15.587691 36.092876,19.201172 
	C33.581383,29.608786 31.255627,40.064102 29.035337,50.538502 
	C24.382854,72.486961 19.780968,94.446686 15.302308,116.431114 
	C14.118230,122.243408 12.122931,128.328232 12.826468,133.999313 
	C14.467825,147.230042 17.113089,160.379517 20.102711,173.389313 
	C24.360525,191.917862 29.291304,210.291779 33.992970,229.575928 
z"/>
<path fill="#F1C40F" opacity="1.000000" stroke="none" 
	d="
M33.963783,229.153839 
	C29.291304,210.291779 24.360525,191.917862 20.102711,173.389313 
	C17.113089,160.379517 14.467825,147.230042 12.826468,133.999313 
	C12.122931,128.328232 14.118230,122.243408 15.302308,116.431114 
	C19.780968,94.446686 24.382854,72.486961 29.035337,50.538502 
	C31.255627,40.064102 33.581383,29.608786 36.092876,19.201172 
	C36.964855,15.587691 39.038315,12.526855 43.197762,12.056263 
	C47.026096,11.623130 49.743256,12.921972 52.273487,16.376011 
	C62.054863,29.728634 72.669106,42.480797 82.198349,56.002625 
	C85.083237,60.096222 85.916252,65.866890 86.905121,71.019844 
	C89.325417,83.631897 91.288307,96.331718 93.646042,110.239517 
	C117.080582,86.671799 140.496536,86.405220 164.148621,110.150276 
	C165.198624,104.826920 166.157318,100.309441 166.972534,95.766220 
	C169.011658,84.401886 170.452713,72.893135 173.236374,61.716953 
	C174.425262,56.943619 178.040009,52.615131 181.110062,48.500568 
	C189.233215,37.613674 197.823120,27.073254 205.867676,16.130590 
	C208.259354,12.877285 210.930328,11.687248 214.598495,12.032908 
	C218.801926,12.429008 221.031952,15.398434 221.881104,18.998571 
	C225.083588,32.575706 228.032394,46.213673 230.979950,59.849670 
	C234.243332,74.946831 237.462097,90.054237 240.582367,105.181511 
	C242.455902,114.264610 244.882858,123.335915 245.570480,132.524063 
	C246.004440,138.323044 243.920105,144.381790 242.565140,150.231308 
	C235.782578,179.512207 228.997757,208.794556 221.801819,237.974808 
	C221.069336,240.945160 218.032486,244.424072 215.240601,245.473221 
	C212.956177,246.331680 208.574722,244.780762 206.617630,242.812088 
	C195.850525,231.981216 185.177597,221.003464 175.307114,209.367966 
	C172.458359,206.009811 171.967926,200.383865 171.094971,195.668259 
	C168.729767,182.891647 166.739578,170.045624 164.446030,156.300476 
	C160.415298,159.547775 156.718857,162.367340 153.197311,165.390671 
	C139.169266,177.434082 111.935471,175.700500 98.801071,160.382736 
	C97.506531,158.872986 95.534218,157.944397 93.680138,156.604126 
	C90.710861,173.214142 87.897278,189.203354 84.932663,205.164505 
	C84.623566,206.828644 83.730888,208.614365 82.582214,209.856552 
	C72.548706,220.707047 62.354916,231.409210 52.304131,242.243912 
	C49.622276,245.134949 46.537529,246.978470 42.698277,245.771332 
	C38.904980,244.578659 36.465866,241.866028 35.931622,237.584259 
	C35.593746,234.876343 34.659649,232.242813 33.963783,229.153839 
M141.229828,104.038963 
	C136.057556,103.358177 130.827103,101.809334 125.723381,102.151367 
	C106.664055,103.428658 94.202888,121.438812 98.271782,140.040314 
	C100.864563,151.893585 108.903053,160.299377 120.974983,163.351807 
	C132.193329,166.188416 142.651871,163.713364 151.015579,155.405243 
	C166.555252,139.968872 162.305984,113.690239 141.229828,104.038963 
M27.685497,100.102043 
	C25.684977,109.562218 23.684458,119.022385 21.574259,129.001205 
	C32.840809,129.001205 43.295811,129.011307 53.750774,128.996582 
	C58.401417,128.990036 61.764317,125.099281 60.976795,120.571510 
	C60.339958,116.910095 59.628025,113.259262 58.846249,109.625938 
	C53.404350,84.334633 47.935535,59.049114 42.362331,33.238338 
	C40.662907,40.827129 39.032448,47.927868 37.486923,55.047050 
	C34.286758,69.787979 31.131756,84.538704 27.685497,100.102043 
M208.559448,129.001221 
	C217.331375,129.001221 226.103302,129.001221 236.097000,129.001221 
	C229.297607,96.662148 222.671158,65.145584 216.044693,33.629021 
	C214.903488,35.985912 214.464569,38.205013 213.992401,40.417015 
	C209.382126,62.014988 204.351913,83.535904 200.376373,105.249969 
	C198.981384,112.869308 193.612564,120.811913 199.740646,129.001221 
	C202.267761,129.001221 204.925354,129.001221 208.559448,129.001221 
M23.957766,147.712463 
	C24.298292,149.297104 24.617327,150.886719 24.982559,152.465637 
	C30.656977,176.996170 36.337383,201.525299 42.346943,227.482483 
	C47.796494,203.454620 53.179317,181.048889 57.814194,158.489502 
	C59.235813,151.570053 64.674423,144.016571 57.032993,137.194885 
	C45.617420,137.194885 34.000431,137.194885 21.696566,137.194885 
	C22.401148,140.634445 23.042376,143.764725 23.957766,147.712463 
M197.321732,142.185715 
	C197.383179,143.791168 197.217499,145.445114 197.548111,146.993088 
	C198.596054,151.899521 199.893066,156.752228 200.979904,161.650970 
	C205.739120,183.102234 210.458206,204.562424 215.191849,226.019363 
	C215.428177,226.013000 215.664520,226.006622 215.900848,226.000244 
	C222.870270,196.553421 229.839691,167.106598 236.920761,137.188019 
	C223.825729,137.188019 212.059906,137.188019 200.547409,137.188019 
	C199.587372,138.806366 198.755249,140.209076 197.321732,142.185715 
M84.999870,112.406822 
	C82.999413,100.875397 81.155220,89.313881 78.943199,77.823181 
	C77.483955,70.242928 77.491920,62.076862 71.325058,56.081833 
	C70.047523,54.839897 69.081772,53.276077 67.980125,51.854561 
	C62.904003,45.304550 57.830647,38.752399 52.756298,32.201015 
	C52.391129,32.352951 52.025963,32.504887 51.660797,32.656826 
	C57.836594,62.089245 64.012390,91.521660 70.280800,121.395447 
	C74.512184,119.896179 78.424309,118.757515 82.088333,117.077698 
	C83.372765,116.488846 84.047424,114.569962 84.999870,112.406822 
M175.030106,99.714958 
	C174.460251,103.245018 174.094437,106.823822 173.265747,110.292038 
	C172.355515,114.101547 173.154358,116.675949 177.155289,117.867126 
	C180.566895,118.882843 183.935181,120.044075 187.740372,121.276215 
	C193.975113,91.520149 200.145294,62.072193 206.548325,31.512901 
	C205.049652,32.678394 204.446732,32.976604 204.082397,33.456112 
	C198.039703,41.408966 191.864197,49.269215 186.090897,57.414207 
	C183.906891,60.495388 181.948059,64.084526 181.133087,67.721436 
	C178.824524,78.023666 177.160110,88.470238 175.030106,99.714958 
M59.991047,191.354538 
	C57.221912,203.342361 54.452778,215.330185 51.683643,227.318008 
	C52.117100,227.503220 52.550560,227.688431 52.984020,227.873642 
	C60.348927,220.043228 67.759811,212.254990 75.026199,204.334198 
	C76.046120,203.222412 76.671806,201.518356 76.949440,199.991943 
	C79.683311,184.961960 82.332207,169.916275 84.933167,154.862595 
	C85.400337,152.158722 85.244148,149.776642 81.707375,148.880829 
	C77.880302,147.911453 74.188110,146.409622 70.213936,145.064514 
	C66.749130,160.473694 63.373962,175.484253 59.991047,191.354538 
M196.993378,185.565842 
	C193.921585,172.147629 190.849777,158.729431 187.725464,145.081787 
	C183.877136,146.359375 180.279099,147.765610 176.565781,148.726257 
	C172.953995,149.660629 172.559799,152.074158 173.068634,155.041565 
	C175.017685,166.408020 176.950256,177.778183 179.038422,189.119446 
	C179.946991,194.054062 179.815613,200.007980 182.601883,203.604523 
	C189.344269,212.307571 197.523712,219.897293 205.123917,227.935776 
	C205.513535,227.741028 205.903168,227.546280 206.292786,227.351532 
	C203.198196,213.710327 200.103622,200.069138 196.993378,185.565842 
M67.602524,135.108948 
	C74.658318,137.206787 81.714119,139.304626 88.753006,141.397430 
	C88.753006,135.917419 88.753006,130.248337 88.753006,125.310799 
	C82.302505,126.890564 75.899307,128.361969 69.558243,130.064758 
	C67.368454,130.652786 64.793800,131.513962 67.602524,135.108948 
M175.804443,139.053055 
	C181.327103,137.515411 186.849762,135.977783 192.372406,134.440140 
	C192.359924,133.615524 192.347443,132.790894 192.334961,131.966263 
	C184.597687,129.582489 176.860413,127.198700 169.124908,124.815460 
	C169.124908,130.344971 169.124908,135.965851 169.124908,142.135223 
	C171.315384,141.134628 173.199844,140.273804 175.804443,139.053055 
z"/>
<path fill="none" opacity="1.000000" stroke="none" 
	d="
M141.574921,104.226547 
	C162.305984,113.690239 166.555252,139.968872 151.015579,155.405243 
	C142.651871,163.713364 132.193329,166.188416 120.974983,163.351807 
	C108.903053,160.299377 100.864563,151.893585 98.271782,140.040314 
	C94.202888,121.438812 106.664055,103.428658 125.723381,102.151367 
	C130.827103,101.809334 136.057556,103.358177 141.574921,104.226547 
M141.128799,144.664856 
	C144.776825,140.948898 146.026917,136.599030 146.142929,131.306213 
	C146.398636,119.642410 134.243301,111.425110 122.405205,115.974937 
	C116.435364,118.269371 112.617355,122.753548 111.952202,129.591507 
	C111.142570,137.914902 114.008682,144.451782 121.667267,147.710434 
	C128.096252,150.445923 134.828552,150.271240 141.128799,144.664856 
z"/>
<path fill="none" opacity="1.000000" stroke="none" 
	d="
M27.821840,99.693726 
	C31.131756,84.538704 34.286758,69.787979 37.486923,55.047050 
	C39.032448,47.927868 40.662907,40.827129 42.362331,33.238338 
	C47.935535,59.049114 53.404350,84.334633 58.846249,109.625938 
	C59.628025,113.259262 60.339958,116.910095 60.976795,120.571510 
	C61.764317,125.099281 58.401417,128.990036 53.750774,128.996582 
	C43.295811,129.011307 32.840809,129.001205 21.574259,129.001205 
	C23.684458,119.022385 25.684977,109.562218 27.821840,99.693726 
z"/>
<path fill="none" opacity="1.000000" stroke="none" 
	d="
M208.071198,129.001221 
	C204.925354,129.001221 202.267761,129.001221 199.740646,129.001221 
	C193.612564,120.811913 198.981384,112.869308 200.376373,105.249969 
	C204.351913,83.535904 209.382126,62.014988 213.992401,40.417015 
	C214.464569,38.205013 214.903488,35.985912 216.044693,33.629021 
	C222.671158,65.145584 229.297607,96.662148 236.097000,129.001221 
	C226.103302,129.001221 217.331375,129.001221 208.071198,129.001221 
z"/>
<path fill="none" opacity="1.000000" stroke="none" 
	d="
M23.820684,147.303741 
	C23.042376,143.764725 22.401148,140.634445 21.696566,137.194885 
	C34.000431,137.194885 45.617420,137.194885 57.032993,137.194885 
	C64.674423,144.016571 59.235813,151.570053 57.814194,158.489502 
	C53.179317,181.048889 47.796494,203.454620 42.346943,227.482483 
	C36.337383,201.525299 30.656977,176.996170 24.982559,152.465637 
	C24.617327,150.886719 24.298292,149.297104 23.820684,147.303741 
z"/>
<path fill="none" opacity="1.000000" stroke="none" 
	d="
M197.622437,141.898758 
	C198.755249,140.209076 199.587372,138.806366 200.547409,137.188019 
	C212.059906,137.188019 223.825729,137.188019 236.920761,137.188019 
	C229.839691,167.106598 222.870270,196.553421 215.900848,226.000244 
	C215.664520,226.006622 215.428177,226.013000 215.191849,226.019363 
	C210.458206,204.562424 205.739120,183.102234 200.979904,161.650970 
	C199.893066,156.752228 198.596054,151.899521 197.548111,146.993088 
	C197.217499,145.445114 197.383179,143.791168 197.622437,141.898758 
z"/>
<path fill="none" opacity="1.000000" stroke="none" 
	d="
M85.000198,112.832626 
	C84.047424,114.569962 83.372765,116.488846 82.088333,117.077698 
	C78.424309,118.757515 74.512184,119.896179 70.280800,121.395447 
	C64.012390,91.521660 57.836594,62.089245 51.660797,32.656826 
	C52.025963,32.504887 52.391129,32.352951 52.756298,32.201015 
	C57.830647,38.752399 62.904003,45.304550 67.980125,51.854561 
	C69.081772,53.276077 70.047523,54.839897 71.325058,56.081833 
	C77.491920,62.076862 77.483955,70.242928 78.943199,77.823181 
	C81.155220,89.313881 82.999413,100.875397 85.000198,112.832626 
z"/>
<path fill="none" opacity="1.000000" stroke="none" 
	d="
M175.136047,99.287460 
	C177.160110,88.470238 178.824524,78.023666 181.133087,67.721436 
	C181.948059,64.084526 183.906891,60.495388 186.090897,57.414207 
	C191.864197,49.269215 198.039703,41.408966 204.082397,33.456112 
	C204.446732,32.976604 205.049652,32.678394 206.548325,31.512901 
	C200.145294,62.072193 193.975113,91.520149 187.740372,121.276215 
	C183.935181,120.044075 180.566895,118.882843 177.155289,117.867126 
	C173.154358,116.675949 172.355515,114.101547 173.265747,110.292038 
	C174.094437,106.823822 174.460251,103.245018 175.136047,99.287460 
z"/>
<path fill="none" opacity="1.000000" stroke="none" 
	d="
M59.994919,190.924683 
	C63.373962,175.484253 66.749130,160.473694 70.213936,145.064514 
	C74.188110,146.409622 77.880302,147.911453 81.707375,148.880829 
	C85.244148,149.776642 85.400337,152.158722 84.933167,154.862595 
	C82.332207,169.916275 79.683311,184.961960 76.949440,199.991943 
	C76.671806,201.518356 76.046120,203.222412 75.026199,204.334198 
	C67.759811,212.254990 60.348927,220.043228 52.984020,227.873642 
	C52.550560,227.688431 52.117100,227.503220 51.683643,227.318008 
	C54.452778,215.330185 57.221912,203.342361 59.994919,190.924683 
z"/>
<path fill="none" opacity="1.000000" stroke="none" 
	d="
M197.001205,185.996887 
	C200.103622,200.069138 203.198196,213.710327 206.292786,227.351532 
	C205.903168,227.546280 205.513535,227.741028 205.123917,227.935776 
	C197.523712,219.897293 189.344269,212.307571 182.601883,203.604523 
	C179.815613,200.007980 179.946991,194.054062 179.038422,189.119446 
	C176.950256,177.778183 175.017685,166.408020 173.068634,155.041565 
	C172.559799,152.074158 172.953995,149.660629 176.565781,148.726257 
	C180.279099,147.765610 183.877136,146.359375 187.725464,145.081787 
	C190.849777,158.729431 193.921585,172.147629 197.001205,185.996887 
z"/>
<path fill="none" opacity="1.000000" stroke="none" 
	d="
M67.241226,134.937500 
	C64.793800,131.513962 67.368454,130.652786 69.558243,130.064758 
	C75.899307,128.361969 82.302505,126.890564 88.753006,125.310799 
	C88.753006,130.248337 88.753006,135.917419 88.753006,141.397430 
	C81.714119,139.304626 74.658318,137.206787 67.241226,134.937500 
z"/>
<path fill="none" opacity="1.000000" stroke="none" 
	d="
M175.444382,139.233032 
	C173.199844,140.273804 171.315384,141.134628 169.124908,142.135223 
	C169.124908,135.965851 169.124908,130.344971 169.124908,124.815460 
	C176.860413,127.198700 184.597687,129.582489 192.334961,131.966263 
	C192.347443,132.790894 192.359924,133.615524 192.372406,134.440140 
	C186.849762,135.977783 181.327103,137.515411 175.444382,139.233032 
z"/>
<path fill="#F1C40F" opacity="1.000000" stroke="none" 
	d="
M140.804871,144.853851 
	C134.828552,150.271240 128.096252,150.445923 121.667267,147.710434 
	C114.008682,144.451782 111.142570,137.914902 111.952202,129.591507 
	C112.617355,122.753548 116.435364,118.269371 122.405205,115.974937 
	C134.243301,111.425110 146.398636,119.642410 146.142929,131.306213 
	C146.026917,136.599030 144.776825,140.948898 140.804871,144.853851 
M131.897064,124.028336 
	C130.905792,124.018768 129.903534,124.100838 128.925140,123.983742 
	C124.758034,123.485016 122.233742,126.042671 121.168846,129.316483 
	C119.854843,133.356155 121.113945,137.570892 125.149155,139.370529 
	C128.307968,140.779297 132.015625,141.007263 134.970795,137.616135 
	C138.543289,133.516571 138.018341,129.451279 131.897064,124.028336 
z"/>
<path fill="none" opacity="1.000000" stroke="none" 
	d="
M132.296371,124.124626 
	C138.018341,129.451279 138.543289,133.516571 134.970795,137.616135 
	C132.015625,141.007263 128.307968,140.779297 125.149155,139.370529 
	C121.113945,137.570892 119.854843,133.356155 121.168846,129.316483 
	C122.233742,126.042671 124.758034,123.485016 128.925140,123.983742 
	C129.903534,124.100838 130.905792,124.018768 132.296371,124.124626 
z"/>
</svg>